M48
;Layer_Color=9474304
;FILE_FORMAT=2:5
INCH,LZ
;TYPE=PLATED
T1F00S00C0.00787
T2F00S00C0.01299
T3F00S00C0.01575
T4F00S00C0.03543
%
T01
X0309Y0374
X02995Y0412
X0302Y04195
X02995Y0422
X0315Y0417
X03155Y04145
X0316Y0407
X0317Y0402
X0323899Y0403823
X03275Y0399
X0333Y04035
X03375
X03465Y04095
X03495
X0353Y04075
X0356Y0406
X0365Y03995
X0374Y0403
X03735Y0408
X0373Y04145
X03735Y04195
X0371Y0418
Y0423
Y0428
X038Y0431
X0348Y04175
X0343Y04195
X03225Y0428
X03265Y03835
X0324Y03755
X03175Y03745
X0319Y03675
X03125Y03645
X03175Y0344
X03215Y03455
X03245Y03475
Y035
X03505Y03475
X0349Y0364
X03485Y03765
X03425Y0379
X03455Y03835
T02
X0336Y0388159
Y0394841
X0339341Y03915
X0332659
T03
X0304Y03015
X03045Y03095
X0301Y0356
X03325Y0355
Y03495
X0338
Y0355
X0327Y03425
X03605Y03325
X0333Y04185
X0324Y0419
X034Y0428
T04
X03705Y0357
Y0367
X0353Y0435
X0343
X0333
X0323
Y0447
X0333
X0343
X0353
M30
