G04*
G04 #@! TF.GenerationSoftware,Altium Limited,Altium Designer,20.0.9 (164)*
G04*
G04 Layer_Physical_Order=1*
G04 Layer_Color=255*
%FSLAX25Y25*%
%MOIN*%
G70*
G01*
G75*
%ADD10C,0.00787*%
%ADD11R,0.11024X0.11024*%
%ADD12C,0.01181*%
%ADD13R,0.13780X0.07874*%
%ADD14R,0.09843X0.07480*%
G04:AMPARAMS|DCode=15|XSize=61.02mil|YSize=49.21mil|CornerRadius=3.69mil|HoleSize=0mil|Usage=FLASHONLY|Rotation=180.000|XOffset=0mil|YOffset=0mil|HoleType=Round|Shape=RoundedRectangle|*
%AMROUNDEDRECTD15*
21,1,0.06102,0.04183,0,0,180.0*
21,1,0.05364,0.04921,0,0,180.0*
1,1,0.00738,-0.02682,0.02092*
1,1,0.00738,0.02682,0.02092*
1,1,0.00738,0.02682,-0.02092*
1,1,0.00738,-0.02682,-0.02092*
%
%ADD15ROUNDEDRECTD15*%
G04:AMPARAMS|DCode=16|XSize=25.2mil|YSize=23.62mil|CornerRadius=5.91mil|HoleSize=0mil|Usage=FLASHONLY|Rotation=180.000|XOffset=0mil|YOffset=0mil|HoleType=Round|Shape=RoundedRectangle|*
%AMROUNDEDRECTD16*
21,1,0.02520,0.01181,0,0,180.0*
21,1,0.01339,0.02362,0,0,180.0*
1,1,0.01181,-0.00669,0.00591*
1,1,0.01181,0.00669,0.00591*
1,1,0.01181,0.00669,-0.00591*
1,1,0.01181,-0.00669,-0.00591*
%
%ADD16ROUNDEDRECTD16*%
%ADD17R,0.06693X0.04331*%
G04:AMPARAMS|DCode=18|XSize=25.2mil|YSize=23.62mil|CornerRadius=5.91mil|HoleSize=0mil|Usage=FLASHONLY|Rotation=90.000|XOffset=0mil|YOffset=0mil|HoleType=Round|Shape=RoundedRectangle|*
%AMROUNDEDRECTD18*
21,1,0.02520,0.01181,0,0,90.0*
21,1,0.01339,0.02362,0,0,90.0*
1,1,0.01181,0.00591,0.00669*
1,1,0.01181,0.00591,-0.00669*
1,1,0.01181,-0.00591,-0.00669*
1,1,0.01181,-0.00591,0.00669*
%
%ADD18ROUNDEDRECTD18*%
%ADD19P,0.13919X4X180.0*%
G04:AMPARAMS|DCode=20|XSize=7.87mil|YSize=29.53mil|CornerRadius=0mil|HoleSize=0mil|Usage=FLASHONLY|Rotation=135.000|XOffset=0mil|YOffset=0mil|HoleType=Round|Shape=Round|*
%AMOVALD20*
21,1,0.02165,0.00787,0.00000,0.00000,225.0*
1,1,0.00787,0.00766,0.00766*
1,1,0.00787,-0.00766,-0.00766*
%
%ADD20OVALD20*%

G04:AMPARAMS|DCode=21|XSize=7.87mil|YSize=29.53mil|CornerRadius=0mil|HoleSize=0mil|Usage=FLASHONLY|Rotation=225.000|XOffset=0mil|YOffset=0mil|HoleType=Round|Shape=Round|*
%AMOVALD21*
21,1,0.02165,0.00787,0.00000,0.00000,315.0*
1,1,0.00787,-0.00766,0.00766*
1,1,0.00787,0.00766,-0.00766*
%
%ADD21OVALD21*%

%ADD22C,0.04000*%
G04:AMPARAMS|DCode=23|XSize=20.47mil|YSize=22.05mil|CornerRadius=5.12mil|HoleSize=0mil|Usage=FLASHONLY|Rotation=0.000|XOffset=0mil|YOffset=0mil|HoleType=Round|Shape=RoundedRectangle|*
%AMROUNDEDRECTD23*
21,1,0.02047,0.01181,0,0,0.0*
21,1,0.01024,0.02205,0,0,0.0*
1,1,0.01024,0.00512,-0.00591*
1,1,0.01024,-0.00512,-0.00591*
1,1,0.01024,-0.00512,0.00591*
1,1,0.01024,0.00512,0.00591*
%
%ADD23ROUNDEDRECTD23*%
%ADD24R,0.09449X0.02992*%
%ADD25R,0.02500X0.02500*%
%ADD26R,0.02165X0.03150*%
G04:AMPARAMS|DCode=27|XSize=20.47mil|YSize=22.05mil|CornerRadius=5.12mil|HoleSize=0mil|Usage=FLASHONLY|Rotation=90.000|XOffset=0mil|YOffset=0mil|HoleType=Round|Shape=RoundedRectangle|*
%AMROUNDEDRECTD27*
21,1,0.02047,0.01181,0,0,90.0*
21,1,0.01024,0.02205,0,0,90.0*
1,1,0.01024,0.00591,0.00512*
1,1,0.01024,0.00591,-0.00512*
1,1,0.01024,-0.00591,-0.00512*
1,1,0.01024,-0.00591,0.00512*
%
%ADD27ROUNDEDRECTD27*%
%ADD28R,0.03543X0.02835*%
%ADD29R,0.02756X0.03347*%
G04:AMPARAMS|DCode=30|XSize=20.47mil|YSize=22.05mil|CornerRadius=5.12mil|HoleSize=0mil|Usage=FLASHONLY|Rotation=135.000|XOffset=0mil|YOffset=0mil|HoleType=Round|Shape=RoundedRectangle|*
%AMROUNDEDRECTD30*
21,1,0.02047,0.01181,0,0,135.0*
21,1,0.01024,0.02205,0,0,135.0*
1,1,0.01024,0.00056,0.00780*
1,1,0.01024,0.00780,0.00056*
1,1,0.01024,-0.00056,-0.00780*
1,1,0.01024,-0.00780,-0.00056*
%
%ADD30ROUNDEDRECTD30*%
%ADD57C,0.01575*%
%ADD58C,0.01500*%
%ADD59C,0.00984*%
%ADD60C,0.05906*%
%ADD61R,0.05906X0.05906*%
%ADD62R,0.05906X0.05906*%
%ADD63C,0.01772*%
%ADD64C,0.03543*%
%ADD65C,0.03150*%
%ADD66C,0.02598*%
G36*
X386000Y296000D02*
X288000D01*
Y399804D01*
X288376Y400104D01*
X288500Y400104D01*
X293300D01*
Y402000D01*
Y403896D01*
X288500D01*
X288376Y403896D01*
X288000Y404196D01*
Y404804D01*
X288376Y405104D01*
X288500Y405104D01*
X293300D01*
Y407000D01*
Y408896D01*
X288500D01*
X288376Y408896D01*
X288000Y409197D01*
Y409804D01*
X288376Y410104D01*
X288500Y410104D01*
X293300D01*
Y412000D01*
Y413896D01*
X288500D01*
X288376Y413896D01*
X288000Y414196D01*
Y414804D01*
X288376Y415104D01*
X288500Y415104D01*
X293300D01*
Y417000D01*
Y418896D01*
X288500D01*
X288376Y418896D01*
X288000Y419196D01*
Y419803D01*
X288376Y420104D01*
X288500Y420104D01*
X293300D01*
Y422000D01*
Y423896D01*
X288500D01*
X288376Y423896D01*
X288000Y424196D01*
Y424804D01*
X288376Y425104D01*
X288500Y425104D01*
X293300D01*
Y427000D01*
Y428896D01*
X288500D01*
X288376Y428896D01*
X288000Y429196D01*
Y450000D01*
X320581D01*
X320751Y449500D01*
X320609Y449391D01*
X320071Y448691D01*
X319734Y447875D01*
X319645Y447200D01*
X323000D01*
X326355D01*
X326266Y447875D01*
X325929Y448691D01*
X325391Y449391D01*
X325249Y449500D01*
X325419Y450000D01*
X330581D01*
X330751Y449500D01*
X330609Y449391D01*
X330071Y448691D01*
X329734Y447875D01*
X329618Y447000D01*
X329734Y446125D01*
X330071Y445309D01*
X330609Y444609D01*
X331309Y444071D01*
X331827Y443857D01*
Y438143D01*
X331309Y437929D01*
X330609Y437391D01*
X330071Y436691D01*
X329733Y435875D01*
X329618Y435000D01*
X329733Y434125D01*
X330071Y433309D01*
X330609Y432609D01*
X331309Y432071D01*
X331827Y431857D01*
Y429243D01*
X331629Y428946D01*
X331558Y428590D01*
Y427410D01*
X331629Y427054D01*
X331786Y426819D01*
X331652Y426319D01*
X331441D01*
X330992Y426229D01*
X330612Y425975D01*
X329938Y425302D01*
X329834Y425146D01*
X329084Y424396D01*
X327777D01*
Y422105D01*
X326236Y420564D01*
X325687D01*
X325638Y420638D01*
X324886Y421140D01*
X324000Y421316D01*
X323114Y421140D01*
X322362Y420638D01*
X321860Y419886D01*
X321684Y419000D01*
X321860Y418114D01*
X322362Y417362D01*
X323114Y416860D01*
X324000Y416684D01*
X324886Y416860D01*
X325638Y417362D01*
X326140Y418114D01*
X326161Y418218D01*
X326722D01*
X327170Y418308D01*
X327551Y418562D01*
X329435Y420446D01*
X330743D01*
Y422710D01*
X331064Y422973D01*
X331517Y422777D01*
Y422621D01*
X334483D01*
Y422664D01*
X334955Y422873D01*
X335258Y422634D01*
Y420446D01*
X338223D01*
Y424396D01*
X336916D01*
X336280Y425032D01*
X336176Y425187D01*
X335388Y425975D01*
X335008Y426229D01*
X334559Y426319D01*
X334348D01*
X334214Y426819D01*
X334371Y427054D01*
X334441Y427410D01*
Y428590D01*
X334371Y428946D01*
X334173Y429243D01*
Y431857D01*
X334691Y432071D01*
X335391Y432609D01*
X335929Y433309D01*
X336143Y433827D01*
X339857D01*
X340071Y433309D01*
X340609Y432609D01*
X341309Y432071D01*
X342125Y431734D01*
X343000Y431618D01*
X343875Y431734D01*
X344691Y432071D01*
X345391Y432609D01*
X345929Y433309D01*
X346266Y434125D01*
X346382Y435000D01*
X346266Y435875D01*
X345929Y436691D01*
X345391Y437391D01*
X344691Y437929D01*
X343875Y438266D01*
X343000Y438382D01*
X342125Y438266D01*
X341309Y437929D01*
X340609Y437391D01*
X340071Y436691D01*
X339857Y436172D01*
X336143D01*
X335929Y436691D01*
X335391Y437391D01*
X334691Y437929D01*
X334173Y438143D01*
Y443857D01*
X334691Y444071D01*
X335391Y444609D01*
X335929Y445309D01*
X336143Y445827D01*
X339857D01*
X340071Y445309D01*
X340609Y444609D01*
X341309Y444071D01*
X342125Y443734D01*
X343000Y443618D01*
X343875Y443734D01*
X344691Y444071D01*
X345391Y444609D01*
X345929Y445309D01*
X346266Y446125D01*
X346382Y447000D01*
X346266Y447875D01*
X345929Y448691D01*
X345391Y449391D01*
X345249Y449500D01*
X345419Y450000D01*
X349647D01*
Y447200D01*
X353000D01*
X356353D01*
Y450000D01*
X386000D01*
Y296000D01*
D02*
G37*
%LPC*%
G36*
X356353Y446800D02*
X353200D01*
Y443647D01*
X356353D01*
Y446800D01*
D02*
G37*
G36*
X352800D02*
X349647D01*
Y443647D01*
X352800D01*
Y446800D01*
D02*
G37*
G36*
X326355D02*
X323200D01*
Y443645D01*
X323875Y443734D01*
X324691Y444071D01*
X325391Y444609D01*
X325929Y445309D01*
X326266Y446125D01*
X326355Y446800D01*
D02*
G37*
G36*
X322800D02*
X319645D01*
X319734Y446125D01*
X320071Y445309D01*
X320609Y444609D01*
X321309Y444071D01*
X322125Y443734D01*
X322800Y443645D01*
Y446800D01*
D02*
G37*
G36*
X323200Y438355D02*
Y435200D01*
X326355D01*
X326266Y435875D01*
X325929Y436691D01*
X325391Y437391D01*
X324691Y437929D01*
X323875Y438266D01*
X323200Y438355D01*
D02*
G37*
G36*
X356353Y438353D02*
X353200D01*
Y435200D01*
X356353D01*
Y438353D01*
D02*
G37*
G36*
X352800D02*
X349647D01*
Y435200D01*
X352800D01*
Y438353D01*
D02*
G37*
G36*
X322800Y438355D02*
X322125Y438266D01*
X321309Y437929D01*
X320609Y437391D01*
X320071Y436691D01*
X319734Y435875D01*
X319645Y435200D01*
X322800D01*
Y438355D01*
D02*
G37*
G36*
X356353Y434800D02*
X353200D01*
Y431647D01*
X356353D01*
Y434800D01*
D02*
G37*
G36*
X352800D02*
X349647D01*
Y431647D01*
X352800D01*
Y434800D01*
D02*
G37*
G36*
X326355D02*
X323200D01*
Y431645D01*
X323875Y431734D01*
X324691Y432071D01*
X325391Y432609D01*
X325929Y433309D01*
X326266Y434125D01*
X326355Y434800D01*
D02*
G37*
G36*
X322800D02*
X319645D01*
X319734Y434125D01*
X320071Y433309D01*
X320609Y432609D01*
X321309Y432071D01*
X322125Y431734D01*
X322800Y431645D01*
Y434800D01*
D02*
G37*
G36*
X322500Y429413D02*
X321959Y429305D01*
X321501Y428999D01*
X321195Y428541D01*
X321150Y428317D01*
X320650Y428366D01*
Y428650D01*
X317350D01*
Y427809D01*
X313624D01*
Y428896D01*
X303376D01*
Y425104D01*
X313624D01*
Y426191D01*
X315810D01*
X316067Y425748D01*
Y425251D01*
X316171Y425000D01*
X316067Y424749D01*
Y424252D01*
X316100Y424172D01*
Y424086D01*
X316422Y423309D01*
X316236Y422916D01*
X316131Y422809D01*
X313624D01*
Y423896D01*
X303376D01*
Y421248D01*
X302776Y420648D01*
X302541Y420805D01*
X302000Y420913D01*
X301459Y420805D01*
X301001Y420499D01*
X300695Y420041D01*
X300587Y419500D01*
X300695Y418959D01*
X301001Y418501D01*
X301459Y418195D01*
X302000Y418087D01*
X302541Y418195D01*
X302876Y418418D01*
X303293Y418263D01*
X303376Y418197D01*
Y415104D01*
X312981D01*
X313188Y414604D01*
X312480Y413896D01*
X303376D01*
Y410104D01*
X313624D01*
Y412752D01*
X314092Y413219D01*
X314501Y413501D01*
X314959Y413195D01*
X315500Y413087D01*
X316041Y413195D01*
X316499Y413501D01*
X316805Y413959D01*
X316913Y414500D01*
X316805Y415041D01*
X316499Y415499D01*
X316306Y415628D01*
X316072Y415912D01*
X316178Y416269D01*
X316305Y416459D01*
X316413Y417000D01*
X316305Y417541D01*
X315999Y417999D01*
X315541Y418305D01*
X315000Y418413D01*
X314459Y418305D01*
X314124Y418082D01*
X313707Y418237D01*
X313624Y418303D01*
Y418896D01*
X304019D01*
X303812Y419396D01*
X304520Y420104D01*
X313624D01*
Y421191D01*
X318000D01*
X318000Y421191D01*
X318310Y421252D01*
X318456Y421350D01*
X320650D01*
Y422294D01*
X320722Y422323D01*
X321426Y423027D01*
X321459Y423106D01*
X321519Y423167D01*
X321900Y424086D01*
Y424172D01*
X321933Y424252D01*
Y424749D01*
X321829Y425000D01*
X321933Y425251D01*
Y425748D01*
X321900Y425828D01*
Y425914D01*
X321723Y426341D01*
X322057Y426675D01*
X322500Y426587D01*
X323041Y426695D01*
X323499Y427001D01*
X323805Y427459D01*
X323913Y428000D01*
X323805Y428541D01*
X323499Y428999D01*
X323041Y429305D01*
X322500Y429413D01*
D02*
G37*
G36*
X370124Y429896D02*
X365200D01*
Y428200D01*
X370124D01*
Y429896D01*
D02*
G37*
G36*
X364800D02*
X359876D01*
Y428200D01*
X364800D01*
Y429896D01*
D02*
G37*
G36*
X336976Y429520D02*
X336665D01*
Y428200D01*
X337906D01*
Y428590D01*
X337835Y428946D01*
X337634Y429248D01*
X337332Y429449D01*
X336976Y429520D01*
D02*
G37*
G36*
X336265D02*
X335953D01*
X335597Y429449D01*
X335295Y429248D01*
X335094Y428946D01*
X335023Y428590D01*
Y428200D01*
X336265D01*
Y429520D01*
D02*
G37*
G36*
X293700Y428896D02*
Y427200D01*
X298624D01*
Y428896D01*
X293700D01*
D02*
G37*
G36*
X337906Y427800D02*
X336665D01*
Y426480D01*
X336976D01*
X337332Y426551D01*
X337634Y426752D01*
X337835Y427054D01*
X337906Y427410D01*
Y427800D01*
D02*
G37*
G36*
X336265D02*
X335023D01*
Y427410D01*
X335094Y427054D01*
X335295Y426752D01*
X335597Y426551D01*
X335953Y426480D01*
X336265D01*
Y427800D01*
D02*
G37*
G36*
X380000Y432413D02*
X379459Y432305D01*
X379001Y431999D01*
X378695Y431541D01*
X378587Y431000D01*
X378695Y430459D01*
X378737Y430396D01*
X378470Y429896D01*
X374876D01*
Y426104D01*
X385124D01*
Y429896D01*
X381530D01*
X381263Y430396D01*
X381305Y430459D01*
X381413Y431000D01*
X381305Y431541D01*
X380999Y431999D01*
X380541Y432305D01*
X380000Y432413D01*
D02*
G37*
G36*
X370124Y427800D02*
X365200D01*
Y426104D01*
X370124D01*
Y427800D01*
D02*
G37*
G36*
X364800D02*
X359876D01*
Y426104D01*
X364800D01*
Y427800D01*
D02*
G37*
G36*
X298624Y426800D02*
X293700D01*
Y425104D01*
X298624D01*
Y426800D01*
D02*
G37*
G36*
X370124Y424896D02*
X365200D01*
Y423200D01*
X370124D01*
Y424896D01*
D02*
G37*
G36*
X364800D02*
X359876D01*
Y423200D01*
X364800D01*
Y424896D01*
D02*
G37*
G36*
X293700Y423896D02*
Y422200D01*
X298624D01*
Y423896D01*
X293700D01*
D02*
G37*
G36*
X378898Y424912D02*
X378819Y424896D01*
X374876D01*
Y423809D01*
X373517D01*
X373207Y423748D01*
X372944Y423572D01*
X372944Y423572D01*
X370892Y421520D01*
X370124D01*
Y422800D01*
X359876D01*
Y421336D01*
X359795Y421282D01*
X357917Y419404D01*
X357741Y419141D01*
X357680Y418832D01*
X357680Y418832D01*
Y416655D01*
X357458Y416525D01*
X357180Y416447D01*
X356946Y416603D01*
X356591Y416674D01*
X355410D01*
X355054Y416603D01*
X354752Y416401D01*
X354248D01*
X353946Y416603D01*
X353590Y416674D01*
X352410D01*
X352054Y416603D01*
X351752Y416401D01*
X351551Y416100D01*
X351480Y415744D01*
Y414935D01*
X349678Y413134D01*
X348953D01*
X348946Y413138D01*
X348590Y413209D01*
X347410D01*
X347054Y413138D01*
X346814Y412978D01*
X345172D01*
Y413955D01*
X340828D01*
Y412978D01*
X338223D01*
Y414553D01*
X335258D01*
Y412316D01*
X333015Y410073D01*
X331084D01*
Y405927D01*
X334640D01*
Y408275D01*
X336961Y410595D01*
X337035Y410581D01*
X337035Y410581D01*
X337433D01*
X337551Y410557D01*
X340828D01*
Y410321D01*
X344780D01*
X344862Y410265D01*
X345151Y409821D01*
X345087Y409500D01*
X345195Y408959D01*
X345501Y408501D01*
X345959Y408195D01*
X346500Y408087D01*
X347041Y408195D01*
X347182Y408289D01*
X348817D01*
X348959Y408195D01*
X349500Y408087D01*
X350041Y408195D01*
X350499Y408501D01*
X350805Y408959D01*
X350913Y409500D01*
X350805Y410041D01*
X350499Y410499D01*
X350041Y410805D01*
X349868Y411280D01*
X349966Y411516D01*
X350014D01*
X350014Y411516D01*
X350323Y411577D01*
X350586Y411753D01*
X350980Y412146D01*
X351480Y411939D01*
Y411256D01*
X351551Y410900D01*
X351752Y410599D01*
X352054Y410397D01*
X352191Y410370D01*
Y408626D01*
X352001Y408499D01*
X351695Y408041D01*
X351587Y407500D01*
X351695Y406959D01*
X352001Y406501D01*
X352459Y406195D01*
X353000Y406087D01*
X353541Y406195D01*
X353999Y406501D01*
X354305Y406959D01*
X354413Y407500D01*
X354305Y408041D01*
X353999Y408499D01*
X353809Y408626D01*
Y410370D01*
X353946Y410397D01*
X354248Y410599D01*
X354752D01*
X355054Y410397D01*
X355191Y410370D01*
Y407126D01*
X355001Y406999D01*
X354695Y406541D01*
X354587Y406000D01*
X354695Y405459D01*
X354807Y405290D01*
X354540Y404790D01*
X346802D01*
X346802Y404790D01*
X346492Y404729D01*
X346230Y404553D01*
X344486Y402809D01*
X341489D01*
X341489Y402809D01*
X341179Y402748D01*
X340917Y402572D01*
X339938Y401594D01*
X339794Y401614D01*
X339428Y401791D01*
X339392Y401971D01*
X339217Y402233D01*
X338680Y402771D01*
X338805Y402959D01*
X338913Y403500D01*
X338805Y404041D01*
X338499Y404499D01*
X338041Y404805D01*
X337500Y404913D01*
X336959Y404805D01*
X336501Y404499D01*
X336195Y404041D01*
X336087Y403500D01*
X336195Y402959D01*
X336501Y402501D01*
X336959Y402195D01*
X337025Y402181D01*
X337116Y402045D01*
X337500Y401661D01*
X336541Y400702D01*
X336366Y400440D01*
X336304Y400130D01*
X336366Y399820D01*
X336541Y399558D01*
X336804Y399382D01*
X337113Y399321D01*
X337158Y399330D01*
X337566Y398922D01*
X337557Y398877D01*
X337619Y398568D01*
X337794Y398305D01*
X338057Y398130D01*
X338366Y398068D01*
X338411Y398077D01*
X338819Y397669D01*
X338810Y397624D01*
X338871Y397315D01*
X339047Y397052D01*
X339309Y396877D01*
X339619Y396815D01*
X339664Y396824D01*
X340072Y396417D01*
X340062Y396372D01*
X340124Y396062D01*
X340300Y395800D01*
X340562Y395624D01*
X340872Y395563D01*
X340917Y395571D01*
X341324Y395164D01*
X341315Y395119D01*
X341377Y394809D01*
X341552Y394547D01*
X341815Y394371D01*
X342125Y394310D01*
X342169Y394319D01*
X342577Y393911D01*
X342568Y393866D01*
X342630Y393557D01*
X342805Y393294D01*
X343068Y393119D01*
X343377Y393057D01*
X343422Y393066D01*
X343830Y392658D01*
X343821Y392614D01*
X343882Y392304D01*
X344058Y392041D01*
X344320Y391866D01*
X344630Y391804D01*
X344940Y391866D01*
X345202Y392041D01*
X346496Y393335D01*
X352586D01*
X352739Y392564D01*
X353270Y391770D01*
X354028Y391263D01*
X354057Y391000D01*
X354028Y390737D01*
X353270Y390230D01*
X352739Y389436D01*
X352714Y389309D01*
X351047D01*
X350929Y389427D01*
X350666Y389603D01*
X350357Y389665D01*
X350357Y389665D01*
X346496D01*
X345202Y390959D01*
X344940Y391134D01*
X344630Y391196D01*
X344320Y391134D01*
X344058Y390959D01*
X343882Y390696D01*
X343821Y390387D01*
X343830Y390342D01*
X343422Y389934D01*
X343377Y389943D01*
X343068Y389881D01*
X342805Y389706D01*
X342630Y389443D01*
X342568Y389134D01*
X342577Y389089D01*
X342169Y388681D01*
X342125Y388690D01*
X341815Y388629D01*
X341552Y388453D01*
X341377Y388191D01*
X341315Y387881D01*
X341324Y387836D01*
X340917Y387428D01*
X340872Y387438D01*
X340562Y387376D01*
X340469Y387314D01*
X341779Y386004D01*
X343089Y384694D01*
X343151Y384787D01*
X343212Y385097D01*
X343203Y385142D01*
X343227Y385196D01*
X343611Y385549D01*
X343656Y385541D01*
X343656Y385541D01*
X347815D01*
X351811Y381544D01*
X351739Y381436D01*
X351553Y380500D01*
X351739Y379564D01*
X352270Y378770D01*
X353064Y378239D01*
X354000Y378053D01*
X354936Y378239D01*
X355730Y378770D01*
X356261Y379564D01*
X356447Y380500D01*
X356261Y381436D01*
X355730Y382230D01*
X354936Y382761D01*
X354000Y382947D01*
X353064Y382761D01*
X352956Y382689D01*
X352305Y383340D01*
X352587Y383752D01*
X352897Y383691D01*
X356370D01*
X356397Y383554D01*
X356598Y383252D01*
X356900Y383051D01*
X357256Y382980D01*
X358279D01*
X358635Y383051D01*
X358937Y383252D01*
X359138Y383554D01*
X359209Y383910D01*
Y385090D01*
X359138Y385446D01*
X358937Y385748D01*
X358635Y385949D01*
X358279Y386020D01*
X357256D01*
X356900Y385949D01*
X356598Y385748D01*
X356397Y385446D01*
X356370Y385309D01*
X353232D01*
X351312Y387229D01*
X351504Y387691D01*
X352714D01*
X352739Y387564D01*
X353270Y386770D01*
X354064Y386239D01*
X355000Y386053D01*
X355936Y386239D01*
X356730Y386770D01*
X357261Y387564D01*
X357447Y388500D01*
X357261Y389436D01*
X356730Y390230D01*
X355973Y390737D01*
X355943Y391000D01*
X355973Y391263D01*
X356730Y391770D01*
X357261Y392564D01*
X357447Y393500D01*
X357261Y394436D01*
X356730Y395230D01*
X355936Y395761D01*
X355000Y395947D01*
X354064Y395761D01*
X353270Y395230D01*
X353085Y394954D01*
X346317D01*
X346105Y395355D01*
X346094Y395438D01*
X348462Y397807D01*
X348564Y397739D01*
X349500Y397553D01*
X350436Y397739D01*
X351230Y398270D01*
X351761Y399064D01*
X351947Y400000D01*
X351766Y400911D01*
X351762Y400999D01*
X352018Y401411D01*
X359021D01*
X359021Y401411D01*
X359330Y401473D01*
X359376Y401503D01*
X359876Y401240D01*
Y401104D01*
X364800D01*
Y403000D01*
Y404896D01*
X360291D01*
Y406104D01*
X364800D01*
Y408000D01*
X365000D01*
Y408200D01*
X370124D01*
Y409444D01*
X370124Y409896D01*
X370363Y409963D01*
X370363Y409963D01*
X370625Y410138D01*
X372678Y412191D01*
X374876D01*
Y411104D01*
X385124D01*
Y414896D01*
X374876D01*
Y414737D01*
X374376Y414688D01*
X374305Y415041D01*
X373999Y415499D01*
X373541Y415805D01*
X373000Y415913D01*
X372459Y415805D01*
X372001Y415499D01*
X371695Y415041D01*
X371587Y414500D01*
X371695Y413959D01*
X371813Y413783D01*
X371771Y413572D01*
X371771Y413572D01*
X370586Y412388D01*
X370124Y412579D01*
Y412800D01*
X359876D01*
Y411741D01*
X359798Y411689D01*
X359298Y411956D01*
Y418119D01*
X359376Y418170D01*
X359876Y417903D01*
Y416104D01*
X364800D01*
Y418000D01*
X365000D01*
Y418200D01*
X370124D01*
Y419896D01*
X370622Y419901D01*
X371227D01*
X371227Y419901D01*
X371536Y419963D01*
X371690Y420065D01*
X372028Y419900D01*
X372143Y419780D01*
X372087Y419500D01*
X372195Y418959D01*
X372501Y418501D01*
X372959Y418195D01*
X373500Y418087D01*
X374041Y418195D01*
X374188Y418293D01*
X374876D01*
Y416104D01*
X385124D01*
Y419896D01*
X378976D01*
X378898Y419912D01*
X378898Y419912D01*
X374831D01*
X374805Y420041D01*
X374499Y420499D01*
X374041Y420805D01*
X373500Y420913D01*
X373227Y420859D01*
X372980Y421319D01*
X373852Y422191D01*
X374876D01*
Y421104D01*
X385124D01*
Y424896D01*
X378976D01*
X378898Y424912D01*
D02*
G37*
G36*
X334483Y422221D02*
X333200D01*
Y420446D01*
X334483D01*
Y422221D01*
D02*
G37*
G36*
X332800D02*
X331517D01*
Y420446D01*
X332800D01*
Y422221D01*
D02*
G37*
G36*
X298624Y421800D02*
X293700D01*
Y420104D01*
X298624D01*
Y421800D01*
D02*
G37*
G36*
X293700Y418896D02*
Y417200D01*
X298624D01*
Y418896D01*
X293700D01*
D02*
G37*
G36*
X345172Y418680D02*
X343200D01*
Y417062D01*
X345172D01*
Y418680D01*
D02*
G37*
G36*
X342800D02*
X340828D01*
Y417062D01*
X342800D01*
Y418680D01*
D02*
G37*
G36*
X370124Y417800D02*
X365200D01*
Y416104D01*
X370124D01*
Y417800D01*
D02*
G37*
G36*
X348590Y416674D02*
X348200D01*
Y415432D01*
X349520D01*
Y415744D01*
X349449Y416100D01*
X349248Y416401D01*
X348946Y416603D01*
X348590Y416674D01*
D02*
G37*
G36*
X347800D02*
X347410D01*
X347054Y416603D01*
X346752Y416401D01*
X346551Y416100D01*
X346480Y415744D01*
Y415432D01*
X347800D01*
Y416674D01*
D02*
G37*
G36*
X298624Y416800D02*
X293700D01*
Y415104D01*
X298624D01*
Y416800D01*
D02*
G37*
G36*
X345172Y416662D02*
X343200D01*
Y415045D01*
X345172D01*
Y416662D01*
D02*
G37*
G36*
X342800D02*
X340828D01*
Y415045D01*
X342800D01*
Y416662D01*
D02*
G37*
G36*
X349520Y415032D02*
X348200D01*
Y413791D01*
X348590D01*
X348946Y413862D01*
X349248Y414063D01*
X349449Y414365D01*
X349520Y414720D01*
Y415032D01*
D02*
G37*
G36*
X347800D02*
X346480D01*
Y414720D01*
X346551Y414365D01*
X346752Y414063D01*
X347054Y413862D01*
X347410Y413791D01*
X347800D01*
Y415032D01*
D02*
G37*
G36*
X370124Y414896D02*
X365200D01*
Y413200D01*
X370124D01*
Y414896D01*
D02*
G37*
G36*
X364800D02*
X359876D01*
Y413200D01*
X364800D01*
Y414896D01*
D02*
G37*
G36*
X293700Y413896D02*
Y412200D01*
X298624D01*
Y413896D01*
X293700D01*
D02*
G37*
G36*
X330743Y414554D02*
X327777D01*
Y410604D01*
X330743D01*
Y414554D01*
D02*
G37*
G36*
X298624Y411800D02*
X293700D01*
Y410104D01*
X298624D01*
Y411800D01*
D02*
G37*
G36*
X385124Y409896D02*
X374876D01*
Y409303D01*
X374793Y409237D01*
X374376Y409082D01*
X374041Y409305D01*
X373500Y409413D01*
X372959Y409305D01*
X372501Y408999D01*
X372195Y408541D01*
X372087Y408000D01*
X372195Y407459D01*
X372501Y407001D01*
X372959Y406695D01*
X373500Y406587D01*
X374041Y406695D01*
X374376Y406918D01*
X374793Y406763D01*
X374876Y406697D01*
Y406104D01*
X385124D01*
Y409896D01*
D02*
G37*
G36*
X293700Y408896D02*
Y407200D01*
X298624D01*
Y408896D01*
X293700D01*
D02*
G37*
G36*
X370124Y407800D02*
X365200D01*
Y406104D01*
X370124D01*
Y407800D01*
D02*
G37*
G36*
X313624Y408896D02*
X303376D01*
Y405104D01*
X313624D01*
Y406191D01*
X314874D01*
X315001Y406001D01*
X315459Y405695D01*
X316000Y405587D01*
X316541Y405695D01*
X316999Y406001D01*
X317305Y406459D01*
X317413Y407000D01*
X317305Y407541D01*
X316999Y407999D01*
X316541Y408305D01*
X316000Y408413D01*
X315459Y408305D01*
X315001Y407999D01*
X314874Y407809D01*
X313624D01*
Y408896D01*
D02*
G37*
G36*
X298624Y406800D02*
X293700D01*
Y405104D01*
X298624D01*
Y406800D01*
D02*
G37*
G36*
X385124Y404896D02*
X374876D01*
Y404637D01*
X374376Y404338D01*
X374000Y404413D01*
X373459Y404305D01*
X373001Y403999D01*
X372695Y403541D01*
X372587Y403000D01*
X372695Y402459D01*
X373001Y402001D01*
X373459Y401695D01*
X374000Y401587D01*
X374376Y401662D01*
X374876Y401363D01*
Y401104D01*
X375960D01*
X376151Y400642D01*
X361529Y386020D01*
X360720D01*
X360365Y385949D01*
X360063Y385748D01*
X359862Y385446D01*
X359791Y385090D01*
Y383910D01*
X359862Y383554D01*
X360063Y383252D01*
X360365Y383051D01*
X360720Y382980D01*
X361744D01*
X362100Y383051D01*
X362402Y383252D01*
X362603Y383554D01*
X362674Y383910D01*
Y384876D01*
X378010Y400212D01*
X378185Y400474D01*
X378247Y400784D01*
Y401104D01*
X385124D01*
Y404896D01*
D02*
G37*
G36*
X370124D02*
X365200D01*
Y403200D01*
X370124D01*
Y404896D01*
D02*
G37*
G36*
X326068Y403800D02*
X324826D01*
Y403409D01*
X324897Y403054D01*
X325098Y402752D01*
X325400Y402551D01*
X325756Y402480D01*
X326068D01*
Y403800D01*
D02*
G37*
G36*
X293700Y403896D02*
Y402200D01*
X298624D01*
Y403896D01*
X293700D01*
D02*
G37*
G36*
X370124Y402800D02*
X365200D01*
Y401104D01*
X370124D01*
Y402800D01*
D02*
G37*
G36*
X313624Y403896D02*
X303376D01*
Y400104D01*
X313624D01*
Y401191D01*
X315874D01*
X316001Y401001D01*
X316459Y400695D01*
X317000Y400587D01*
X317541Y400695D01*
X317999Y401001D01*
X318305Y401459D01*
X318413Y402000D01*
X318305Y402541D01*
X317999Y402999D01*
X317541Y403305D01*
X317000Y403413D01*
X316459Y403305D01*
X316001Y402999D01*
X315874Y402809D01*
X313624D01*
Y403896D01*
D02*
G37*
G36*
X298624Y401800D02*
X293700D01*
Y400104D01*
X298624D01*
Y401800D01*
D02*
G37*
G36*
X329916Y410073D02*
X326360D01*
Y405927D01*
X326134Y405520D01*
X325756D01*
X325400Y405449D01*
X325098Y405248D01*
X324897Y404946D01*
X324826Y404591D01*
Y404200D01*
X326268D01*
Y404000D01*
X326468D01*
Y402480D01*
X326780D01*
X327135Y402551D01*
X327437Y402752D01*
X327638Y403054D01*
X327709Y403409D01*
Y403658D01*
X328209Y403926D01*
X328291Y403871D01*
Y403409D01*
X328362Y403054D01*
X328563Y402752D01*
X328865Y402551D01*
X329194Y402485D01*
X329252Y402190D01*
X329428Y401928D01*
X329461Y401906D01*
X330917Y400449D01*
X330897Y400305D01*
X330720Y399939D01*
X330540Y399903D01*
X330278Y399728D01*
X330102Y399465D01*
X330041Y399156D01*
X330049Y399111D01*
X329642Y398703D01*
X329597Y398712D01*
X329287Y398651D01*
X329194Y398588D01*
X330504Y397279D01*
X331814Y395969D01*
X331876Y396062D01*
X331938Y396372D01*
X331928Y396417D01*
X332336Y396824D01*
X332381Y396815D01*
X332691Y396877D01*
X332953Y397052D01*
X333129Y397315D01*
X333190Y397624D01*
X333181Y397669D01*
X333589Y398077D01*
X333634Y398068D01*
X333943Y398130D01*
X334206Y398305D01*
X334381Y398568D01*
X334443Y398877D01*
X334434Y398922D01*
X334842Y399330D01*
X334887Y399321D01*
X335196Y399382D01*
X335459Y399558D01*
X335634Y399820D01*
X335696Y400130D01*
X335634Y400440D01*
X335459Y400702D01*
X334156Y402005D01*
X334017Y402445D01*
X334111Y402668D01*
X334305Y402959D01*
X334413Y403500D01*
X334305Y404041D01*
X333999Y404499D01*
X333541Y404805D01*
X333000Y404913D01*
X332459Y404805D01*
X332001Y404499D01*
X331695Y404041D01*
X331674Y403936D01*
X331174Y403985D01*
Y404591D01*
X331103Y404946D01*
X330902Y405248D01*
X330600Y405449D01*
X330244Y405520D01*
X330141D01*
X329916Y405927D01*
Y410073D01*
D02*
G37*
G36*
X328911Y398306D02*
X328849Y398213D01*
X328788Y397903D01*
X328797Y397858D01*
X328389Y397450D01*
X328344Y397460D01*
X328035Y397398D01*
X327772Y397222D01*
X327597Y396960D01*
X327535Y396650D01*
X327544Y396605D01*
X327136Y396198D01*
X327092Y396207D01*
X326782Y396145D01*
X326519Y395970D01*
X326344Y395707D01*
X326282Y395397D01*
X326291Y395353D01*
X325884Y394945D01*
X325839Y394954D01*
X325529Y394892D01*
X325267Y394717D01*
X325091Y394454D01*
X325030Y394145D01*
X325091Y393835D01*
X325267Y393572D01*
X326798Y392041D01*
X327060Y391866D01*
X327370Y391804D01*
X327680Y391866D01*
X327942Y392041D01*
X328118Y392304D01*
X328179Y392614D01*
X328170Y392658D01*
X328578Y393066D01*
X328623Y393057D01*
X328932Y393119D01*
X329195Y393294D01*
X329370Y393557D01*
X329432Y393866D01*
X329423Y393911D01*
X329831Y394319D01*
X329875Y394310D01*
X330185Y394371D01*
X330448Y394547D01*
X330623Y394809D01*
X330685Y395119D01*
X330676Y395164D01*
X331083Y395571D01*
X331128Y395563D01*
X331438Y395624D01*
X331531Y395686D01*
X330221Y396996D01*
X328911Y398306D01*
D02*
G37*
G36*
X336000Y399025D02*
X332379Y395404D01*
X336000Y391783D01*
X339621Y395404D01*
X336000Y399025D01*
D02*
G37*
G36*
X339904Y395121D02*
X336283Y391500D01*
X339904Y387879D01*
X343525Y391500D01*
X339904Y395121D01*
D02*
G37*
G36*
X332096D02*
X328475Y391500D01*
X332096Y387879D01*
X335717Y391500D01*
X332096Y395121D01*
D02*
G37*
G36*
X340186Y387031D02*
X340124Y386938D01*
X340062Y386628D01*
X340072Y386583D01*
X339664Y386176D01*
X339619Y386185D01*
X339309Y386123D01*
X339047Y385948D01*
X338871Y385685D01*
X338810Y385375D01*
X338819Y385331D01*
X338411Y384923D01*
X338366Y384932D01*
X338057Y384870D01*
X337794Y384695D01*
X337619Y384432D01*
X337557Y384123D01*
X337566Y384078D01*
X337158Y383670D01*
X337113Y383679D01*
X336804Y383618D01*
X336541Y383442D01*
X336366Y383180D01*
X336304Y382870D01*
X336366Y382560D01*
X336541Y382298D01*
X337835Y381004D01*
Y374608D01*
X337270Y374230D01*
X336739Y373436D01*
X336553Y372500D01*
X336739Y371564D01*
X337270Y370770D01*
X338064Y370239D01*
X339000Y370053D01*
X339936Y370239D01*
X340730Y370770D01*
X341261Y371564D01*
X341447Y372500D01*
X341261Y373436D01*
X340730Y374230D01*
X339936Y374761D01*
X339454Y374857D01*
Y376248D01*
X339916Y376440D01*
X342811Y373544D01*
X342739Y373436D01*
X342553Y372500D01*
X342739Y371564D01*
X343270Y370770D01*
X344064Y370239D01*
X345000Y370053D01*
X345936Y370239D01*
X346730Y370770D01*
X347261Y371564D01*
X347447Y372500D01*
X347261Y373436D01*
X346730Y374230D01*
X345936Y374761D01*
X345000Y374947D01*
X344064Y374761D01*
X343956Y374689D01*
X340768Y377876D01*
X340803Y378139D01*
X340813Y378147D01*
X341324Y378266D01*
X341501Y378001D01*
X341959Y377695D01*
X342500Y377587D01*
X343041Y377695D01*
X343499Y378001D01*
X343805Y378459D01*
X343830Y378583D01*
X344219Y379016D01*
X344575Y379086D01*
X344877Y379288D01*
X345712Y380123D01*
X345914Y380425D01*
X345984Y380781D01*
X345914Y381136D01*
X345712Y381438D01*
X344988Y382162D01*
X344687Y382363D01*
X344331Y382434D01*
X343975Y382363D01*
X343856Y382283D01*
X342336Y383803D01*
X342356Y383948D01*
X342532Y384314D01*
X342713Y384349D01*
X342806Y384412D01*
X341496Y385721D01*
X340186Y387031D01*
D02*
G37*
G36*
X336000Y391217D02*
X332379Y387596D01*
X336000Y383975D01*
X339621Y387596D01*
X336000Y391217D01*
D02*
G37*
G36*
X327370Y391196D02*
X327060Y391134D01*
X326798Y390959D01*
X325267Y389427D01*
X325091Y389165D01*
X325030Y388855D01*
X324595Y388477D01*
X324168D01*
X323858Y388416D01*
X323596Y388240D01*
X323596Y388240D01*
X319428Y384072D01*
X319252Y383810D01*
X319191Y383500D01*
X319191Y383500D01*
Y378663D01*
X316484D01*
X316457Y378800D01*
X316255Y379101D01*
X315953Y379303D01*
X315852Y379323D01*
Y380722D01*
X315936Y380739D01*
X316730Y381270D01*
X317261Y382064D01*
X317447Y383000D01*
X317261Y383936D01*
X316730Y384730D01*
X315936Y385261D01*
X315000Y385447D01*
X314064Y385261D01*
X313270Y384730D01*
X312739Y383936D01*
X312553Y383000D01*
X312739Y382064D01*
X313270Y381270D01*
X314064Y380739D01*
X314234Y380705D01*
Y379306D01*
X314218Y379303D01*
X313917Y379101D01*
X313715Y378800D01*
X313644Y378444D01*
Y377263D01*
X313715Y376907D01*
X313917Y376606D01*
X314218Y376404D01*
X314448Y376359D01*
Y375849D01*
X314218Y375803D01*
X313917Y375602D01*
X313715Y375300D01*
X313644Y374944D01*
Y373763D01*
X313715Y373407D01*
X313917Y373106D01*
X314218Y372904D01*
X314574Y372833D01*
X314734D01*
Y372040D01*
X314270Y371730D01*
X313739Y370936D01*
X313553Y370000D01*
X313739Y369064D01*
X314270Y368270D01*
X315064Y367739D01*
X316000Y367553D01*
X316936Y367739D01*
X317730Y368270D01*
X318261Y369064D01*
X318447Y370000D01*
X318261Y370936D01*
X317730Y371730D01*
X316936Y372261D01*
X316352Y372377D01*
Y372999D01*
X316787Y373241D01*
X316891Y373238D01*
X316898Y373236D01*
X316959Y373195D01*
X317500Y373087D01*
X318041Y373195D01*
X318499Y373501D01*
X318691Y373788D01*
X319191Y373636D01*
Y372000D01*
X319191Y372000D01*
X319252Y371690D01*
X319428Y371428D01*
X324928Y365928D01*
X324928Y365928D01*
X325190Y365752D01*
X325500Y365691D01*
X329665D01*
X332647Y362709D01*
Y362219D01*
X332154Y361882D01*
X332147Y361882D01*
X331213Y361882D01*
X328266Y364829D01*
X327886Y365083D01*
X327437Y365173D01*
X324361D01*
X324273Y365305D01*
X323945Y365524D01*
X323559Y365600D01*
X322220D01*
X321834Y365524D01*
X321506Y365305D01*
X321287Y364977D01*
X321255Y364814D01*
X320745D01*
X320713Y364977D01*
X320494Y365305D01*
X320166Y365524D01*
X319779Y365600D01*
X319310D01*
Y364000D01*
Y362400D01*
X319779D01*
X320166Y362476D01*
X320494Y362695D01*
X320713Y363023D01*
X320745Y363186D01*
X321255D01*
X321287Y363023D01*
X321506Y362695D01*
X321834Y362476D01*
X322220Y362400D01*
X323559D01*
X323945Y362476D01*
X324273Y362695D01*
X324361Y362827D01*
X326951D01*
X330539Y359239D01*
Y358890D01*
X330551Y358862D01*
X330543Y358833D01*
X330563Y358680D01*
X330592Y358630D01*
X330593Y358571D01*
X330652Y358429D01*
X330668Y358412D01*
X330663Y358329D01*
X330560Y358130D01*
X330399Y357912D01*
X329588D01*
Y357101D01*
X329370Y356940D01*
X329171Y356837D01*
X329088Y356832D01*
X329071Y356848D01*
X328929Y356907D01*
X328870D01*
X328820Y356937D01*
X328667Y356957D01*
X328638Y356949D01*
X328610Y356961D01*
X328261D01*
X326944Y358277D01*
X326564Y358531D01*
X326115Y358620D01*
X326007D01*
X324569Y360058D01*
Y360591D01*
X324492Y360977D01*
X324273Y361305D01*
X323945Y361524D01*
X323559Y361600D01*
X322220D01*
X321834Y361524D01*
X321506Y361305D01*
X321287Y360977D01*
X321255Y360814D01*
X320745D01*
X320713Y360977D01*
X320494Y361305D01*
X320166Y361524D01*
X319779Y361600D01*
X319310D01*
Y360000D01*
Y358400D01*
X319779D01*
X320166Y358476D01*
X320494Y358695D01*
X320713Y359023D01*
X320745Y359186D01*
X321255D01*
X321287Y359023D01*
X321506Y358695D01*
X321834Y358476D01*
X322220Y358400D01*
X322911D01*
X324692Y356618D01*
X325072Y356364D01*
X325521Y356275D01*
X325618D01*
Y355346D01*
X325481Y355141D01*
X323628D01*
X321673Y357097D01*
X321292Y357351D01*
X320843Y357440D01*
X311466D01*
Y358359D01*
X311407Y358659D01*
X311237Y358914D01*
X310982Y359084D01*
X310682Y359143D01*
X305318D01*
X305018Y359084D01*
X304763Y358914D01*
X304593Y358659D01*
X304534Y358359D01*
Y357306D01*
X302859D01*
X302638Y357638D01*
X301886Y358140D01*
X301000Y358316D01*
X300114Y358140D01*
X299362Y357638D01*
X298860Y356886D01*
X298684Y356000D01*
X298860Y355114D01*
X299362Y354362D01*
X300114Y353860D01*
X301000Y353684D01*
X301886Y353860D01*
X302638Y354362D01*
X303038Y354961D01*
X304534D01*
Y354176D01*
X304593Y353876D01*
X304763Y353622D01*
X305018Y353452D01*
X305318Y353392D01*
X310682D01*
X310982Y353452D01*
X311237Y353622D01*
X311407Y353876D01*
X311466Y354176D01*
Y355095D01*
X320358D01*
X321422Y354031D01*
X321231Y353569D01*
X320910D01*
X320523Y353492D01*
X320195Y353273D01*
X319976Y352945D01*
X319927Y352699D01*
X319073D01*
X319024Y352945D01*
X318805Y353273D01*
X318477Y353492D01*
X318091Y353569D01*
X316910D01*
X316523Y353492D01*
X316195Y353273D01*
X315976Y352945D01*
X315899Y352559D01*
Y351220D01*
X315976Y350834D01*
X316195Y350506D01*
X316523Y350287D01*
X316686Y350255D01*
Y349745D01*
X316523Y349713D01*
X316195Y349494D01*
X315976Y349166D01*
X315899Y348780D01*
Y347441D01*
X315976Y347055D01*
X316195Y346727D01*
X316523Y346508D01*
X316691Y346475D01*
Y345126D01*
X316501Y344999D01*
X316195Y344541D01*
X316087Y344000D01*
X316195Y343459D01*
X316501Y343001D01*
X316959Y342695D01*
X317500Y342587D01*
X318041Y342695D01*
X318499Y343001D01*
X318805Y343459D01*
X318913Y344000D01*
X318805Y344541D01*
X318499Y344999D01*
X318309Y345126D01*
Y346475D01*
X318477Y346508D01*
X318805Y346727D01*
X319024Y347055D01*
X319100Y347441D01*
Y348780D01*
X319024Y349166D01*
X318805Y349494D01*
X318477Y349713D01*
X318314Y349745D01*
Y350255D01*
X318477Y350287D01*
X318805Y350506D01*
X319024Y350834D01*
X319073Y351080D01*
X319927D01*
X319976Y350834D01*
X320195Y350506D01*
X320523Y350287D01*
X320686Y350255D01*
Y349745D01*
X320523Y349713D01*
X320195Y349494D01*
X319976Y349166D01*
X319900Y348780D01*
Y348310D01*
X321500D01*
X323100D01*
Y348780D01*
X323024Y349166D01*
X322805Y349494D01*
X322477Y349713D01*
X322314Y349745D01*
Y350255D01*
X322477Y350287D01*
X322805Y350506D01*
X323024Y350834D01*
X323084Y351136D01*
X325732D01*
X325745Y351103D01*
X326051Y350976D01*
X326465D01*
X326654Y350622D01*
X328546D01*
X328557Y350684D01*
X328775Y350994D01*
X328820Y351000D01*
X328870Y351030D01*
X328929D01*
X329071Y351089D01*
X329088Y351106D01*
X329171Y351100D01*
X329370Y350997D01*
X329588Y350836D01*
Y346088D01*
X332508D01*
Y345287D01*
X332154Y345049D01*
Y342551D01*
X331936D01*
X331890Y342456D01*
X331814Y342424D01*
X330323Y340933D01*
X328000Y340933D01*
X327694Y340806D01*
X327194Y340306D01*
X327067Y340000D01*
Y332000D01*
X327194Y331694D01*
X327694Y331194D01*
X328000Y331067D01*
X329821D01*
X330179Y330709D01*
Y323021D01*
X340821D01*
Y330709D01*
X341179Y331067D01*
X342500D01*
X342806Y331194D01*
X343306Y331694D01*
X343433Y332000D01*
Y340000D01*
X343306Y340306D01*
X342806Y340806D01*
X342500Y340933D01*
X338708Y340933D01*
X338091Y341550D01*
X338232Y342054D01*
X338633Y342207D01*
X338846Y342118D01*
X349551D01*
X349857Y342245D01*
X352679Y345067D01*
X364500D01*
X364806Y345194D01*
X364933Y345500D01*
Y350500D01*
X364870Y350652D01*
X364807Y350806D01*
X364806Y350806D01*
X364806Y350806D01*
X364653Y350869D01*
X364501Y350933D01*
X358423Y350945D01*
X358316Y351102D01*
X358231Y351445D01*
X362877Y356090D01*
X367147D01*
Y353647D01*
X373853D01*
Y360353D01*
X367147D01*
Y357910D01*
X362500D01*
X362152Y357840D01*
X361857Y357643D01*
X357123Y352910D01*
X355890D01*
X355774Y353082D01*
X355696Y353410D01*
X367245Y364959D01*
X367867Y364923D01*
X368109Y364609D01*
X368809Y364071D01*
X369625Y363734D01*
X370500Y363618D01*
X371375Y363734D01*
X372191Y364071D01*
X372891Y364609D01*
X373429Y365309D01*
X373766Y366125D01*
X373882Y367000D01*
X373766Y367875D01*
X373429Y368691D01*
X372891Y369391D01*
X372191Y369929D01*
X371375Y370266D01*
X370500Y370382D01*
X369625Y370266D01*
X368809Y369929D01*
X368109Y369391D01*
X367571Y368691D01*
X367234Y367875D01*
X367120Y367012D01*
X367102D01*
X366754Y366943D01*
X366459Y366746D01*
X354592Y354878D01*
X349099D01*
X348841Y355378D01*
X348878Y355431D01*
X349590D01*
X349977Y355508D01*
X350305Y355727D01*
X350524Y356054D01*
X350601Y356441D01*
Y357780D01*
X350524Y358166D01*
X350305Y358494D01*
X349977Y358713D01*
X349814Y358745D01*
Y359255D01*
X349977Y359287D01*
X350305Y359506D01*
X350524Y359834D01*
X350601Y360221D01*
Y360690D01*
X349000D01*
X347399D01*
Y360221D01*
X347476Y359834D01*
X347695Y359506D01*
X348023Y359287D01*
X348186Y359255D01*
Y358745D01*
X348023Y358713D01*
X347695Y358494D01*
X347476Y358166D01*
X347399Y357780D01*
Y356746D01*
X345291D01*
X345255Y356834D01*
X344949Y356961D01*
X342390D01*
X342362Y356949D01*
X342333Y356957D01*
X342180Y356937D01*
X342130Y356907D01*
X342071D01*
X341929Y356848D01*
X341912Y356832D01*
X341829Y356837D01*
X341630Y356940D01*
X341412Y357101D01*
Y357912D01*
X340601D01*
X340440Y358130D01*
X340337Y358329D01*
X340332Y358412D01*
X340348Y358429D01*
X340407Y358571D01*
X340407Y358630D01*
X340437Y358680D01*
X340457Y358833D01*
X340449Y358862D01*
X340460Y358890D01*
Y361449D01*
X340334Y361755D01*
X340028Y361882D01*
X338846Y361882D01*
X338365Y361755D01*
X338059Y361882D01*
X336878D01*
X336797Y361860D01*
X336309Y362146D01*
Y362679D01*
X336248Y362989D01*
X336072Y363251D01*
X336072Y363251D01*
X330874Y368449D01*
X330612Y368625D01*
X330302Y368687D01*
X330302Y368687D01*
X326458D01*
X322809Y372335D01*
Y373706D01*
X323043Y373752D01*
X323306Y373928D01*
X323554Y374176D01*
X324000Y374087D01*
X324541Y374195D01*
X324728Y374320D01*
X325089Y373959D01*
X324739Y373436D01*
X324553Y372500D01*
X324739Y371564D01*
X325270Y370770D01*
X326064Y370239D01*
X327000Y370053D01*
X327936Y370239D01*
X328730Y370770D01*
X329261Y371564D01*
X329447Y372500D01*
X329261Y373436D01*
X329189Y373544D01*
X332084Y376440D01*
X332546Y376248D01*
Y374857D01*
X332064Y374761D01*
X331270Y374230D01*
X330739Y373436D01*
X330553Y372500D01*
X330739Y371564D01*
X331270Y370770D01*
X332064Y370239D01*
X333000Y370053D01*
X333936Y370239D01*
X334730Y370770D01*
X335261Y371564D01*
X335447Y372500D01*
X335261Y373436D01*
X334730Y374230D01*
X334165Y374608D01*
Y381004D01*
X335459Y382298D01*
X335634Y382560D01*
X335696Y382870D01*
X335634Y383180D01*
X335459Y383442D01*
X335196Y383618D01*
X334887Y383679D01*
X334842Y383670D01*
X334434Y384078D01*
X334443Y384123D01*
X334381Y384432D01*
X334206Y384695D01*
X333943Y384870D01*
X333634Y384932D01*
X333589Y384923D01*
X333181Y385331D01*
X333190Y385375D01*
X333129Y385685D01*
X332953Y385948D01*
X332691Y386123D01*
X332381Y386185D01*
X332336Y386176D01*
X331928Y386583D01*
X331938Y386628D01*
X331876Y386938D01*
X331700Y387200D01*
X331438Y387376D01*
X331128Y387438D01*
X331083Y387428D01*
X330676Y387836D01*
X330685Y387881D01*
X330623Y388191D01*
X330448Y388453D01*
X330185Y388629D01*
X329875Y388690D01*
X329831Y388681D01*
X329423Y389089D01*
X329432Y389134D01*
X329370Y389443D01*
X329195Y389706D01*
X328932Y389881D01*
X328623Y389943D01*
X328578Y389934D01*
X328170Y390342D01*
X328179Y390387D01*
X328118Y390696D01*
X327942Y390959D01*
X327680Y391134D01*
X327370Y391196D01*
D02*
G37*
G36*
X346781Y379984D02*
X346425Y379913D01*
X346123Y379712D01*
X345847Y379436D01*
X346725Y378558D01*
X347658Y379491D01*
X347438Y379712D01*
X347136Y379913D01*
X346781Y379984D01*
D02*
G37*
G36*
X347941Y379209D02*
X347008Y378275D01*
X347886Y377397D01*
X348162Y377673D01*
X348363Y377975D01*
X348434Y378331D01*
X348363Y378686D01*
X348162Y378988D01*
X347941Y379209D01*
D02*
G37*
G36*
X345564Y379153D02*
X345288Y378877D01*
X345087Y378575D01*
X345016Y378219D01*
X345087Y377864D01*
X345288Y377562D01*
X345509Y377342D01*
X346442Y378275D01*
X345564Y379153D01*
D02*
G37*
G36*
X346725Y377992D02*
X345791Y377059D01*
X346012Y376838D01*
X346314Y376637D01*
X346669Y376566D01*
X347025Y376637D01*
X347327Y376838D01*
X347603Y377114D01*
X346725Y377992D01*
D02*
G37*
G36*
X312133Y379374D02*
X311109D01*
X310754Y379303D01*
X310452Y379101D01*
X310251Y378800D01*
X310180Y378444D01*
Y377263D01*
X310251Y376907D01*
X310452Y376606D01*
X310754Y376404D01*
X310812Y376393D01*
Y375815D01*
X310754Y375803D01*
X310452Y375602D01*
X310302Y375377D01*
X310085Y375265D01*
X309718Y375187D01*
X309541Y375305D01*
X309000Y375413D01*
X308459Y375305D01*
X308001Y374999D01*
X307695Y374541D01*
X307587Y374000D01*
X307695Y373459D01*
X308001Y373001D01*
X308459Y372695D01*
X309000Y372587D01*
X309541Y372695D01*
X309945Y372965D01*
X310335Y373078D01*
X310452Y373106D01*
X310754Y372904D01*
X311109Y372833D01*
X312133D01*
X312489Y372904D01*
X312790Y373106D01*
X312992Y373407D01*
X313063Y373763D01*
Y374944D01*
X312992Y375300D01*
X312790Y375602D01*
X312489Y375803D01*
X312431Y375815D01*
Y376393D01*
X312489Y376404D01*
X312790Y376606D01*
X312992Y376907D01*
X313063Y377263D01*
Y378444D01*
X312992Y378800D01*
X312790Y379101D01*
X312489Y379303D01*
X312133Y379374D01*
D02*
G37*
G36*
X310682Y367608D02*
X308200D01*
Y364932D01*
X311466D01*
Y366824D01*
X311407Y367124D01*
X311237Y367378D01*
X310982Y367548D01*
X310682Y367608D01*
D02*
G37*
G36*
X307800D02*
X305318D01*
X305018Y367548D01*
X304763Y367378D01*
X304593Y367124D01*
X304534Y366824D01*
Y364932D01*
X307800D01*
Y367608D01*
D02*
G37*
G36*
X318910Y365600D02*
X318441D01*
X318055Y365524D01*
X317727Y365305D01*
X317508Y364977D01*
X317431Y364591D01*
Y364200D01*
X318910D01*
Y365600D01*
D02*
G37*
G36*
Y363800D02*
X317431D01*
Y363409D01*
X317508Y363023D01*
X317727Y362695D01*
X318055Y362476D01*
X318441Y362400D01*
X318910D01*
Y363800D01*
D02*
G37*
G36*
X311466Y364532D02*
X308200D01*
Y361857D01*
X310682D01*
X310982Y361916D01*
X311237Y362086D01*
X311407Y362341D01*
X311466Y362641D01*
Y364532D01*
D02*
G37*
G36*
X307800D02*
X304534D01*
Y362641D01*
X304593Y362341D01*
X304763Y362086D01*
X305018Y361916D01*
X305318Y361857D01*
X307800D01*
Y364532D01*
D02*
G37*
G36*
X349590Y362569D02*
X349200D01*
Y361090D01*
X350601D01*
Y361559D01*
X350524Y361946D01*
X350305Y362273D01*
X349977Y362492D01*
X349590Y362569D01*
D02*
G37*
G36*
X348800D02*
X348410D01*
X348023Y362492D01*
X347695Y362273D01*
X347476Y361946D01*
X347399Y361559D01*
Y361090D01*
X348800D01*
Y362569D01*
D02*
G37*
G36*
X318910Y361600D02*
X318441D01*
X318055Y361524D01*
X317727Y361305D01*
X317508Y360977D01*
X317431Y360591D01*
Y360200D01*
X318910D01*
Y361600D01*
D02*
G37*
G36*
Y359800D02*
X317431D01*
Y359409D01*
X317508Y359023D01*
X317727Y358695D01*
X318055Y358476D01*
X318441Y358400D01*
X318910D01*
Y359800D01*
D02*
G37*
G36*
X328423Y349441D02*
X326829D01*
X326912Y349317D01*
Y348777D01*
X326829Y348654D01*
X328423D01*
X328340Y348777D01*
Y349317D01*
X328423Y349441D01*
D02*
G37*
G36*
Y347472D02*
X327826D01*
Y347093D01*
X328012Y347130D01*
X328340Y347349D01*
X328423Y347472D01*
D02*
G37*
G36*
X327426D02*
X326829D01*
X326912Y347349D01*
X327239Y347130D01*
X327426Y347093D01*
Y347472D01*
D02*
G37*
G36*
X323100Y347910D02*
X321700D01*
Y346431D01*
X322091D01*
X322477Y346508D01*
X322805Y346727D01*
X323024Y347055D01*
X323100Y347441D01*
Y347910D01*
D02*
G37*
G36*
X321300D02*
X319900D01*
Y347441D01*
X319976Y347055D01*
X320195Y346727D01*
X320523Y346508D01*
X320910Y346431D01*
X321300D01*
Y347910D01*
D02*
G37*
G36*
X330972Y344923D02*
X330849Y344840D01*
X330630Y344513D01*
X330593Y344326D01*
X330972D01*
Y344923D01*
D02*
G37*
G36*
Y343926D02*
X330593D01*
X330630Y343740D01*
X330849Y343412D01*
X330972Y343329D01*
Y343926D01*
D02*
G37*
G36*
X364247Y340447D02*
X360700D01*
Y338082D01*
X364247D01*
Y340447D01*
D02*
G37*
G36*
X360300D02*
X356753D01*
Y338082D01*
X360300D01*
Y340447D01*
D02*
G37*
G36*
X364247Y337682D02*
X360700D01*
Y335316D01*
X364247D01*
Y337682D01*
D02*
G37*
G36*
X360300D02*
X356753D01*
Y335316D01*
X360300D01*
Y337682D01*
D02*
G37*
G36*
X313682Y312608D02*
X311200D01*
Y309932D01*
X314466D01*
Y311824D01*
X314407Y312124D01*
X314237Y312378D01*
X313982Y312548D01*
X313682Y312608D01*
D02*
G37*
G36*
X310800D02*
X308318D01*
X308018Y312548D01*
X307763Y312378D01*
X307593Y312124D01*
X307534Y311824D01*
Y309932D01*
X310800D01*
Y312608D01*
D02*
G37*
G36*
X314466Y309532D02*
X311200D01*
Y306857D01*
X313682D01*
X313982Y306916D01*
X314237Y307086D01*
X314407Y307341D01*
X314466Y307641D01*
Y309532D01*
D02*
G37*
G36*
X310800D02*
X307534D01*
Y307641D01*
X307593Y307341D01*
X307763Y307086D01*
X308018Y306916D01*
X308318Y306857D01*
X310800D01*
Y309532D01*
D02*
G37*
G36*
X340821Y313979D02*
X330179D01*
Y306291D01*
X329225Y305337D01*
X328210D01*
Y302478D01*
X314466D01*
Y303359D01*
X314407Y303659D01*
X314237Y303914D01*
X313982Y304084D01*
X313682Y304143D01*
X308318D01*
X308018Y304084D01*
X307763Y303914D01*
X307593Y303659D01*
X307534Y303359D01*
Y302556D01*
X306026D01*
X305638Y303138D01*
X304886Y303640D01*
X304000Y303816D01*
X303114Y303640D01*
X302362Y303138D01*
X301860Y302386D01*
X301684Y301500D01*
X301860Y300614D01*
X302362Y299862D01*
X303114Y299360D01*
X304000Y299184D01*
X304886Y299360D01*
X305638Y299862D01*
X305871Y300211D01*
X307534D01*
Y299176D01*
X307593Y298876D01*
X307763Y298622D01*
X308018Y298452D01*
X308318Y298392D01*
X313682D01*
X313982Y298452D01*
X314237Y298622D01*
X314407Y298876D01*
X314466Y299176D01*
Y300057D01*
X328210D01*
Y296663D01*
X342790D01*
Y305337D01*
X341775D01*
X340821Y306291D01*
Y313979D01*
D02*
G37*
%LPD*%
G36*
X320416Y427370D02*
X321119Y426667D01*
X321500Y425748D01*
Y425251D01*
X316500D01*
Y425748D01*
X316881Y426667D01*
X317584Y427370D01*
X318503Y427751D01*
X319497D01*
X320416Y427370D01*
D02*
G37*
G36*
X321500Y424252D02*
X321119Y423333D01*
X320416Y422630D01*
X319497Y422249D01*
X318503D01*
X317584Y422630D01*
X316881Y423333D01*
X316500Y424252D01*
Y424749D01*
X321500D01*
Y424252D01*
D02*
G37*
G36*
X338059Y358890D02*
X338039Y358737D01*
X337980Y358594D01*
X337886Y358472D01*
X337764Y358378D01*
X337621Y358319D01*
X337469Y358299D01*
X337316Y358319D01*
X337173Y358378D01*
X337051Y358472D01*
X336957Y358594D01*
X336898Y358737D01*
X336878Y358890D01*
Y361449D01*
X338059D01*
Y358890D01*
D02*
G37*
G36*
X336090D02*
X336070Y358737D01*
X336011Y358594D01*
X335918Y358472D01*
X335795Y358378D01*
X335653Y358319D01*
X335500Y358299D01*
X335347Y358319D01*
X335205Y358378D01*
X335082Y358472D01*
X334989Y358594D01*
X334930Y358737D01*
X334910Y358890D01*
Y361449D01*
X336090D01*
Y358890D01*
D02*
G37*
G36*
X334122D02*
X334102Y358737D01*
X334043Y358594D01*
X333949Y358472D01*
X333827Y358378D01*
X333684Y358319D01*
X333531Y358299D01*
X333379Y358319D01*
X333236Y358378D01*
X333114Y358472D01*
X333020Y358594D01*
X332961Y358737D01*
X332941Y358890D01*
Y361449D01*
X334122D01*
Y358890D01*
D02*
G37*
G36*
X340028D02*
X340007Y358737D01*
X339948Y358594D01*
X339855Y358472D01*
X339732Y358378D01*
X339590Y358319D01*
X339437Y358299D01*
X339284Y358319D01*
X339142Y358378D01*
X339019Y358472D01*
X338926Y358594D01*
X338867Y358737D01*
X338846Y358890D01*
Y361449D01*
X340028Y361449D01*
Y358890D01*
D02*
G37*
G36*
X332154Y361449D02*
Y358890D01*
X332133Y358737D01*
X332074Y358594D01*
X331981Y358472D01*
X331858Y358378D01*
X331716Y358319D01*
X331563Y358299D01*
X331410Y358319D01*
X331268Y358378D01*
X331145Y358472D01*
X331052Y358594D01*
X330993Y358737D01*
X330972Y358890D01*
Y361449D01*
X332154Y361449D01*
D02*
G37*
G36*
X344949Y355346D02*
X342390D01*
X342237Y355367D01*
X342094Y355426D01*
X341972Y355519D01*
X341878Y355642D01*
X341819Y355784D01*
X341799Y355937D01*
X341819Y356090D01*
X341878Y356232D01*
X341972Y356355D01*
X342094Y356448D01*
X342237Y356507D01*
X342390Y356528D01*
X344949D01*
Y355346D01*
D02*
G37*
G36*
X328610Y356528D02*
X328763Y356507D01*
X328906Y356448D01*
X329028Y356355D01*
X329122Y356232D01*
X329181Y356090D01*
X329201Y355937D01*
X329181Y355784D01*
X329122Y355642D01*
X329028Y355519D01*
X328906Y355426D01*
X328763Y355367D01*
X328610Y355346D01*
X326051D01*
Y356528D01*
X328610Y356528D01*
D02*
G37*
G36*
X344949Y353378D02*
X342390D01*
X342237Y353398D01*
X342094Y353457D01*
X341972Y353551D01*
X341878Y353673D01*
X341819Y353816D01*
X341799Y353969D01*
X341819Y354121D01*
X341878Y354264D01*
X341972Y354386D01*
X342094Y354480D01*
X342237Y354539D01*
X342390Y354559D01*
X344949D01*
Y353378D01*
D02*
G37*
G36*
X328763Y354539D02*
X328906Y354480D01*
X329028Y354386D01*
X329122Y354264D01*
X329181Y354121D01*
X329201Y353969D01*
X329181Y353816D01*
X329122Y353673D01*
X329028Y353551D01*
X328906Y353457D01*
X328763Y353398D01*
X328610Y353378D01*
X326051Y353378D01*
Y354559D01*
X328610D01*
X328763Y354539D01*
D02*
G37*
G36*
X344949Y351410D02*
X342390D01*
X342237Y351430D01*
X342094Y351489D01*
X341972Y351582D01*
X341878Y351705D01*
X341819Y351847D01*
X341799Y352000D01*
X341819Y352153D01*
X341878Y352295D01*
X341972Y352418D01*
X342094Y352511D01*
X342237Y352570D01*
X342390Y352590D01*
X344949D01*
Y351410D01*
D02*
G37*
G36*
X328763Y352570D02*
X328906Y352511D01*
X329028Y352418D01*
X329122Y352295D01*
X329181Y352153D01*
X329201Y352000D01*
X329181Y351847D01*
X329122Y351705D01*
X329028Y351582D01*
X328906Y351489D01*
X328763Y351430D01*
X328610Y351410D01*
X326051Y351410D01*
Y352590D01*
X328610D01*
X328763Y352570D01*
D02*
G37*
G36*
X337621Y345681D02*
X337764Y345622D01*
X337886Y345528D01*
X337980Y345406D01*
X338039Y345263D01*
X338059Y345110D01*
Y342551D01*
X336878D01*
Y345110D01*
X336898Y345263D01*
X336957Y345406D01*
X337051Y345528D01*
X337173Y345622D01*
X337316Y345681D01*
X337469Y345701D01*
X337621Y345681D01*
D02*
G37*
G36*
X344949Y350537D02*
X364500Y350500D01*
Y345500D01*
X352500D01*
X349551Y342551D01*
X338846D01*
Y345110D01*
Y346088D01*
X341412D01*
Y349860D01*
X341878Y350327D01*
X341972Y350449D01*
X342094Y350543D01*
X342237Y350602D01*
X342390Y350622D01*
X344949D01*
Y350537D01*
D02*
G37*
G36*
X336090Y345110D02*
Y345110D01*
Y342939D01*
X336445Y342584D01*
Y342551D01*
X336572Y342245D01*
X336878Y342118D01*
X336911D01*
X338529Y340500D01*
X342500Y340500D01*
X343000Y340000D01*
Y332000D01*
X342500Y331500D01*
X341000D01*
X339500Y330000D01*
X331500D01*
X330000Y331500D01*
X328000D01*
X327500Y332000D01*
Y340000D01*
X328000Y340500D01*
X330502Y340500D01*
X332121Y342118D01*
X332154D01*
X332460Y342245D01*
X332587Y342551D01*
Y342584D01*
X332941Y342939D01*
Y345110D01*
Y346088D01*
X336090D01*
Y345110D01*
D02*
G37*
G36*
X342000Y304500D02*
X329000D01*
X331500Y307000D01*
X339500D01*
X342000Y304500D01*
D02*
G37*
D10*
X341489Y402000D02*
X344821D01*
X371227Y420710D02*
X373517Y423000D01*
X360367Y420710D02*
X371227D01*
X373517Y423000D02*
X380000D01*
X358489Y418832D02*
X360367Y420710D01*
X358489Y410489D02*
Y418832D01*
X357780Y409780D02*
X358489Y410489D01*
X356498Y403981D02*
X357780Y405263D01*
Y409780D01*
X344821Y402000D02*
X346802Y403981D01*
X356498D01*
X356000Y406000D02*
Y411768D01*
X305272Y422000D02*
X308500D01*
X302960Y419688D02*
X305272Y422000D01*
X302188Y419688D02*
X302960D01*
X302000Y419500D02*
X302188Y419688D01*
X308500Y417000D02*
X315000D01*
X378898Y424102D02*
X380000Y423000D01*
X378898Y419102D02*
X380000Y418000D01*
X374164Y419102D02*
X378898D01*
X373766Y419500D02*
X374164Y419102D01*
X373500Y419500D02*
X373766D01*
X339132Y399643D02*
X341489Y402000D01*
X347294Y402794D02*
X350657D01*
X340385Y398390D02*
X341150Y399156D01*
X341237Y399069D01*
X341890D01*
X341911Y399090D01*
X337688Y402618D02*
X338645Y401661D01*
X337879Y400896D02*
X338645Y401661D01*
X337688Y402618D02*
Y403312D01*
X337500Y403500D02*
X337688Y403312D01*
X373000Y413000D02*
X380000D01*
X372343D02*
X373000D01*
X308500Y412000D02*
X311728D01*
X314040Y414312D01*
X315312D01*
X315500Y414500D01*
X373000Y413000D02*
Y414500D01*
X333000Y402016D02*
X334121Y400896D01*
X333000Y402016D02*
Y403500D01*
X308000Y364732D02*
X312500D01*
Y364500D02*
Y364732D01*
X293500Y402000D02*
Y412000D01*
X299500D01*
X293500Y422000D02*
X299500D01*
Y422000D02*
Y422000D01*
X293500Y417000D02*
Y422000D01*
Y412000D02*
Y417000D01*
X293500Y422000D02*
X293500D01*
X293500D02*
Y427000D01*
X293500D01*
X365000Y423000D02*
Y428000D01*
Y423000D02*
X365000D01*
X365000Y399500D02*
X365000D01*
X365000D02*
Y403000D01*
Y408000D01*
X365000D01*
Y413000D02*
Y418000D01*
X371000D01*
X365000Y423000D02*
X371000D01*
X365000Y428000D02*
X371000D01*
X349000Y360890D02*
Y364000D01*
X332500Y349500D02*
X338000D01*
Y355000D01*
X332500D02*
X338000D01*
X332500D02*
X335500Y352000D01*
X319110Y360000D02*
Y364000D01*
X308500Y422000D02*
X318000D01*
X319000Y423000D01*
X308500Y427000D02*
X321234D01*
X322234Y428000D01*
X322500D01*
X380000Y428000D02*
X380000Y428000D01*
X380000Y428000D02*
Y431000D01*
X360367Y410710D02*
X370053D01*
X372343Y413000D01*
X351230Y402220D02*
X359021D01*
X359482Y402682D02*
Y409825D01*
X360367Y410710D01*
X350657Y402794D02*
X351230Y402220D01*
X343590Y399090D02*
X347294Y402794D01*
X359021Y402220D02*
X359482Y402682D01*
X341911Y399090D02*
X343590D01*
X308500Y407000D02*
X316000D01*
X308500Y402000D02*
X317000D01*
X353000Y407500D02*
Y411768D01*
X373500Y408000D02*
X380000D01*
X378540Y403000D02*
X380000D01*
X374000D02*
X378540D01*
X352921Y415232D02*
X353000D01*
X350014Y412325D02*
X352921Y415232D01*
X348557Y412325D02*
X350014D01*
X348000Y411768D02*
X348557Y412325D01*
X353000Y415232D02*
X356000D01*
X343000Y416862D02*
Y419500D01*
X348000Y415232D02*
Y417500D01*
X328188Y383688D02*
X330363Y385863D01*
X326688Y383688D02*
X328188D01*
X326500Y383500D02*
X326688Y383688D01*
X325415Y386415D02*
X327583D01*
X328344Y386350D02*
X329110Y387115D01*
X328257Y386437D02*
X328344Y386350D01*
X327605Y386437D02*
X328257D01*
X322000Y374500D02*
Y383000D01*
X320000Y378000D02*
Y383500D01*
X327092Y387603D02*
X327857Y388368D01*
X327005Y387689D02*
X327092Y387603D01*
X326352Y387689D02*
X327005D01*
X326331Y387668D02*
X326352Y387689D01*
X327000Y379500D02*
X327131D01*
X327962Y380331D01*
Y380462D01*
X330850Y383350D01*
X361232Y384500D02*
Y384579D01*
X377438Y400784D02*
Y401898D01*
X361232Y384579D02*
X377438Y400784D01*
Y401898D02*
X378540Y403000D01*
X349794Y387603D02*
X352897Y384500D01*
X344908Y387603D02*
X349794D01*
X344143Y388368D02*
X344908Y387603D01*
X352897Y384500D02*
X357768D01*
X315000Y383000D02*
X315043Y382957D01*
Y377896D02*
Y382957D01*
Y377896D02*
X315086Y377854D01*
X315543Y370457D02*
X316000Y370000D01*
X315543Y370457D02*
Y373897D01*
X315086Y374354D02*
X315543Y373897D01*
X343374Y355937D02*
X347799D01*
X348972Y357110D01*
X349000D01*
X317000Y347610D02*
X317500Y347110D01*
Y344000D02*
Y347110D01*
X317000Y347610D02*
X317500Y348110D01*
Y351890D02*
X321500D01*
X325329Y348063D02*
X327626D01*
X324766Y347500D02*
X325329Y348063D01*
X324500Y347500D02*
X324766D01*
X327610Y350016D02*
X327626Y350031D01*
X324516Y350016D02*
X327610D01*
X324500Y350000D02*
X324516Y350016D01*
X327626Y348063D02*
Y350031D01*
X321500Y351890D02*
X321555Y351945D01*
X327571D01*
X327626Y352000D01*
X321500Y345500D02*
Y348110D01*
X319055Y364055D02*
X319110Y364000D01*
X319055Y364055D02*
Y367445D01*
X319000Y367500D02*
X319055Y367445D01*
X322000Y383000D02*
X325415Y386415D01*
X322000Y372000D02*
Y374500D01*
X323734Y375500D02*
X324000D01*
X322734Y374500D02*
X323734Y375500D01*
X322000Y374500D02*
X322734D01*
X315086Y374354D02*
X315159Y374427D01*
X317427D01*
X317500Y374500D01*
X320000Y383500D02*
X324168Y387668D01*
X320000Y372000D02*
Y378000D01*
X315086Y377854D02*
X319854D01*
X320000Y378000D01*
X311621Y374354D02*
Y377853D01*
X309000Y374000D02*
X309177Y374177D01*
X311444D01*
X311621Y374354D01*
X335500Y359874D02*
Y362679D01*
X330302Y367877D02*
X335500Y362679D01*
X326123Y367877D02*
X330302D01*
X322000Y372000D02*
X326123Y367877D01*
X327583Y386415D02*
X327605Y386437D01*
X333456Y359949D02*
X333531Y359874D01*
X330000Y366500D02*
X333456Y363044D01*
Y359949D02*
Y363044D01*
X325500Y366500D02*
X330000D01*
X320000Y372000D02*
X325500Y366500D01*
X324168Y387668D02*
X326331D01*
X344143Y394632D02*
X349500Y399989D01*
Y400000D01*
X345396Y393379D02*
X346161Y394145D01*
X353486D01*
X354131Y393500D01*
X355000D01*
X330850Y383844D02*
X331615Y384610D01*
X330850Y383350D02*
Y383844D01*
X327000Y372500D02*
Y372500D01*
X332000Y377500D01*
Y382489D01*
X332868Y383357D01*
X333355Y381339D02*
X334121Y382104D01*
X333355Y372855D02*
Y381339D01*
X333000Y372500D02*
X333355Y372855D01*
X337879Y382104D02*
X338645Y381339D01*
Y372855D02*
Y381339D01*
Y372855D02*
X339000Y372500D01*
X339132Y383357D02*
X339897Y382592D01*
Y377603D02*
Y382592D01*
Y377603D02*
X345000Y372500D01*
X348150Y386350D02*
X354000Y380500D01*
X343656Y386350D02*
X348150D01*
X342890Y387115D02*
X343656Y386350D01*
X345396Y389621D02*
X346161Y388855D01*
X350357D01*
X350712Y388500D02*
X353698D01*
X350357Y388855D02*
X350712Y388500D01*
X328138Y405594D02*
Y408000D01*
Y405594D02*
X329097Y404636D01*
X329111D01*
X329732Y404015D01*
Y404000D02*
Y404015D01*
Y404000D02*
X330000Y403732D01*
Y402500D02*
Y403732D01*
Y402500D02*
X330011D01*
X332868Y399643D01*
X326091Y403823D02*
X326268Y404000D01*
X323899Y403823D02*
X326091D01*
X330363Y397137D02*
X336000Y391500D01*
X327500Y399000D02*
X328000D01*
X327500D02*
X327688Y398812D01*
X328688D01*
X330363Y397137D01*
X336000Y391500D02*
X341637Y385863D01*
X344270Y380725D02*
X344275D01*
X344250D02*
X344270D01*
X342525Y379000D02*
X344250Y380725D01*
X342500Y379000D02*
X342525D01*
X340385Y384610D02*
X344270Y380725D01*
X346725Y378275D02*
X348500Y376500D01*
X341637Y385863D02*
X343812Y383688D01*
X345312D01*
X345500Y383500D01*
X286000Y452500D02*
X388000D01*
Y293500D02*
Y452500D01*
X286000Y293500D02*
X388000D01*
X286000D02*
Y452500D01*
D11*
X335500Y352000D02*
D03*
D12*
X331563Y359874D02*
D03*
X333531Y359874D02*
D03*
X335500D02*
D03*
X337469D02*
D03*
X339437Y359874D02*
D03*
X343374Y355937D02*
D03*
Y353969D02*
D03*
Y352000D02*
D03*
Y350031D02*
D03*
Y348063D02*
D03*
X339437Y344126D02*
D03*
X337469D02*
D03*
X335500D02*
D03*
X333531D02*
D03*
X331563D02*
D03*
X327626Y348063D02*
D03*
Y350031D02*
D03*
Y352000D02*
D03*
Y353969D02*
D03*
Y355937D02*
D03*
D13*
X335500Y301000D02*
D03*
Y336000D02*
D03*
D14*
Y327161D02*
D03*
Y309839D02*
D03*
D15*
X308000Y356268D02*
D03*
Y364732D02*
D03*
X311000Y301268D02*
D03*
Y309732D02*
D03*
D16*
X319110Y364000D02*
D03*
X322890D02*
D03*
X319110Y360000D02*
D03*
X322890D02*
D03*
D17*
X360500Y337882D02*
D03*
Y348118D02*
D03*
D18*
X317500Y351890D02*
D03*
Y348110D02*
D03*
X321500D02*
D03*
Y351890D02*
D03*
X349000Y360890D02*
D03*
Y357110D02*
D03*
D19*
X336000Y391500D02*
D03*
D20*
X334121Y382104D02*
D03*
X332868Y383357D02*
D03*
X331615Y384610D02*
D03*
X330363Y385863D02*
D03*
X329110Y387115D02*
D03*
X327857Y388368D02*
D03*
X326604Y389621D02*
D03*
X337879Y400896D02*
D03*
X339132Y399643D02*
D03*
X340385Y398390D02*
D03*
X341637Y397137D02*
D03*
X342890Y395885D02*
D03*
X344143Y394632D02*
D03*
X345396Y393379D02*
D03*
D21*
X326604D02*
D03*
X327857Y394632D02*
D03*
X329110Y395885D02*
D03*
X330363Y397137D02*
D03*
X331615Y398390D02*
D03*
X332868Y399643D02*
D03*
X334121Y400896D02*
D03*
X345396Y389621D02*
D03*
X344143Y388368D02*
D03*
X342890Y387115D02*
D03*
X341637Y385863D02*
D03*
X340385Y384610D02*
D03*
X339132Y383357D02*
D03*
X337879Y382104D02*
D03*
D22*
X327000Y378500D02*
D03*
Y372500D02*
D03*
X333000D02*
D03*
X339000D02*
D03*
X345000D02*
D03*
X354000Y380500D02*
D03*
X355000Y388500D02*
D03*
Y393500D02*
D03*
X349500Y400000D02*
D03*
X315000Y383000D02*
D03*
X316000Y370000D02*
D03*
D23*
X361232Y384500D02*
D03*
X357768D02*
D03*
X311621Y377853D02*
D03*
X315086Y377854D02*
D03*
X311621Y374354D02*
D03*
X315086D02*
D03*
X333000Y428000D02*
D03*
X336465D02*
D03*
X329732Y404000D02*
D03*
X326268D02*
D03*
D24*
X380000Y403000D02*
D03*
X365000D02*
D03*
X380000Y408000D02*
D03*
X365000D02*
D03*
X380000Y413000D02*
D03*
X365000D02*
D03*
X380000Y418000D02*
D03*
X365000D02*
D03*
X380000Y423000D02*
D03*
X365000D02*
D03*
X380000Y428000D02*
D03*
X365000D02*
D03*
X308500Y402000D02*
D03*
X293500D02*
D03*
X308500Y407000D02*
D03*
X293500Y407000D02*
D03*
X308500Y412000D02*
D03*
X293500D02*
D03*
X308500Y417000D02*
D03*
X293500D02*
D03*
X308500Y422000D02*
D03*
X293500Y422000D02*
D03*
X308500Y427000D02*
D03*
X293500D02*
D03*
D25*
X319000Y427000D02*
D03*
Y423000D02*
D03*
D26*
X329260Y412579D02*
D03*
X336740Y412579D02*
D03*
X329260Y422421D02*
D03*
X333000Y422421D02*
D03*
X336740Y422421D02*
D03*
D27*
X356000Y415232D02*
D03*
Y411768D02*
D03*
X353000Y415232D02*
D03*
Y411768D02*
D03*
X348000D02*
D03*
Y415232D02*
D03*
D28*
X343000Y412138D02*
D03*
Y416862D02*
D03*
D29*
X332862Y408000D02*
D03*
X328138D02*
D03*
D30*
X344275Y380725D02*
D03*
X346725Y378275D02*
D03*
D57*
X348000Y409500D02*
Y411768D01*
Y409500D02*
X349500D01*
X337551Y411768D02*
X348000D01*
X346500Y409500D02*
X348000D01*
X333539Y408886D02*
X336740Y412087D01*
X333453Y408886D02*
X333539D01*
X332862Y408295D02*
X333453Y408886D01*
X332862Y408000D02*
Y408295D01*
X336740Y412087D02*
Y412579D01*
Y412087D02*
X337035Y411791D01*
X337528D01*
X337551Y411768D01*
X335232Y301268D02*
X335500Y301000D01*
X311000Y301268D02*
X335232D01*
X310768Y309500D02*
X311000Y309732D01*
X304500Y309500D02*
X310768D01*
D58*
X310884Y301384D02*
X311000Y301268D01*
X304116Y301384D02*
X310884D01*
X304000Y301500D02*
X304116Y301384D01*
X322890Y364000D02*
X327437D01*
X331563Y359874D01*
X326115Y357448D02*
X327626Y355937D01*
X325521Y357448D02*
X326115D01*
X322969Y360000D02*
X325521Y357448D01*
X322890Y360000D02*
X322969D01*
X308000Y356268D02*
X320843D01*
X323143Y353969D02*
X327626D01*
X320843Y356268D02*
X323143Y353969D01*
X307866Y356134D02*
X308000Y356268D01*
X301134Y356134D02*
X307866D01*
X301000Y356000D02*
X301134Y356134D01*
X329260Y421929D02*
Y422421D01*
X326722Y419391D02*
X329260Y421929D01*
X324391Y419391D02*
X326722D01*
X324000Y419000D02*
X324391Y419391D01*
X336465Y428000D02*
X340000D01*
X333000Y418500D02*
Y422421D01*
X327000Y342500D02*
X327316Y342816D01*
X330253D01*
X331563Y344126D01*
X360500Y332500D02*
Y337882D01*
X333000Y435000D02*
Y447000D01*
X343000D01*
X333000Y435000D02*
X343000D01*
X333000Y425146D02*
X334559D01*
X331441D02*
X333000D01*
Y435000D01*
X334559Y425146D02*
X335347Y424358D01*
X336740Y422421D02*
Y422913D01*
X330767Y424421D02*
Y424472D01*
X335347Y424307D02*
Y424358D01*
X329260Y422913D02*
X330767Y424421D01*
X335347Y424307D02*
X336740Y422913D01*
X329260Y422421D02*
Y422913D01*
X330767Y424472D02*
X331441Y425146D01*
D59*
X343374Y353969D02*
X354969D01*
X343374Y352000D02*
X357500D01*
X362500Y357000D02*
X370500D01*
X357500Y352000D02*
X362500Y357000D01*
X354969Y353969D02*
X367102Y366102D01*
X369602D02*
X370500Y367000D01*
X367102Y366102D02*
X369602D01*
D60*
X370500Y367000D02*
D03*
X323000Y435000D02*
D03*
X333000D02*
D03*
X343000D02*
D03*
X323000Y447000D02*
D03*
X333000D02*
D03*
X343000D02*
D03*
D61*
X370500Y357000D02*
D03*
D62*
X353000Y435000D02*
D03*
Y447000D02*
D03*
D63*
X356000Y406000D02*
D03*
X302000Y419500D02*
D03*
X315000Y417000D02*
D03*
X373500Y419500D02*
D03*
X337500Y403500D02*
D03*
X315500Y414500D02*
D03*
X373000D02*
D03*
X333000Y403500D02*
D03*
X312500Y364500D02*
D03*
X349500Y409500D02*
D03*
X346500D02*
D03*
X299500Y412000D02*
D03*
Y422000D02*
D03*
X365000Y399500D02*
D03*
X371000Y418000D02*
D03*
Y423000D02*
D03*
Y428000D02*
D03*
X349000Y364000D02*
D03*
X322500Y428000D02*
D03*
X380000Y431000D02*
D03*
X316000Y407000D02*
D03*
X317000Y402000D02*
D03*
X353000Y407500D02*
D03*
X373500Y408000D02*
D03*
X374000Y403000D02*
D03*
X343000Y419500D02*
D03*
X348000Y417500D02*
D03*
X326500Y383500D02*
D03*
X350500Y347500D02*
D03*
X317500Y344000D02*
D03*
X324500Y347500D02*
D03*
Y350000D02*
D03*
X321500Y345500D02*
D03*
X319000Y367500D02*
D03*
X324000Y375500D02*
D03*
X317500Y374500D02*
D03*
X309000Y374000D02*
D03*
X323899Y403823D02*
D03*
X327500Y399000D02*
D03*
X342500Y379000D02*
D03*
X348500Y376500D02*
D03*
X345500Y383500D02*
D03*
D64*
X304000Y301500D02*
D03*
X332500Y349500D02*
D03*
X338000D02*
D03*
Y355000D02*
D03*
X332500D02*
D03*
X301000Y356000D02*
D03*
X324000Y419000D02*
D03*
D65*
X340000Y428000D02*
D03*
X333000Y418500D02*
D03*
X327000Y342500D02*
D03*
X360500Y332500D02*
D03*
X304500Y309500D02*
D03*
D66*
X336000Y394841D02*
D03*
X339341Y391500D02*
D03*
X332659D02*
D03*
X336000Y388159D02*
D03*
M02*
