G04*
G04 #@! TF.GenerationSoftware,Altium Limited,Altium Designer,20.0.9 (164)*
G04*
G04 Layer_Physical_Order=2*
G04 Layer_Color=36540*
%FSLAX25Y25*%
%MOIN*%
G70*
G01*
G75*
%ADD10C,0.00787*%
%ADD60C,0.05906*%
%ADD62R,0.05906X0.05906*%
%ADD63C,0.01772*%
%ADD64C,0.03543*%
%ADD65C,0.03150*%
%ADD66C,0.02598*%
G36*
X386000Y296000D02*
X288000D01*
Y450000D01*
X320581D01*
X320751Y449500D01*
X320609Y449391D01*
X320071Y448691D01*
X319734Y447875D01*
X319645Y447200D01*
X323000D01*
X326355D01*
X326266Y447875D01*
X325929Y448691D01*
X325391Y449391D01*
X325249Y449500D01*
X325419Y450000D01*
X330581D01*
X330751Y449500D01*
X330609Y449391D01*
X330071Y448691D01*
X329734Y447875D01*
X329618Y447000D01*
X329734Y446125D01*
X330071Y445309D01*
X330609Y444609D01*
X331309Y444071D01*
X332125Y443734D01*
X333000Y443618D01*
X333875Y443734D01*
X334691Y444071D01*
X335391Y444609D01*
X335929Y445309D01*
X336266Y446125D01*
X336382Y447000D01*
X336266Y447875D01*
X335929Y448691D01*
X335391Y449391D01*
X335249Y449500D01*
X335419Y450000D01*
X340581D01*
X340751Y449500D01*
X340609Y449391D01*
X340071Y448691D01*
X339734Y447875D01*
X339618Y447000D01*
X339734Y446125D01*
X340071Y445309D01*
X340609Y444609D01*
X341309Y444071D01*
X342125Y443734D01*
X343000Y443618D01*
X343875Y443734D01*
X344691Y444071D01*
X345391Y444609D01*
X345929Y445309D01*
X346266Y446125D01*
X346382Y447000D01*
X346266Y447875D01*
X345929Y448691D01*
X345391Y449391D01*
X345249Y449500D01*
X345419Y450000D01*
X349647D01*
Y447200D01*
X353000D01*
X356353D01*
Y450000D01*
X386000D01*
Y296000D01*
D02*
G37*
%LPC*%
G36*
X356353Y446800D02*
X353200D01*
Y443647D01*
X356353D01*
Y446800D01*
D02*
G37*
G36*
X352800D02*
X349647D01*
Y443647D01*
X352800D01*
Y446800D01*
D02*
G37*
G36*
X326355D02*
X323200D01*
Y443645D01*
X323875Y443734D01*
X324691Y444071D01*
X325391Y444609D01*
X325929Y445309D01*
X326266Y446125D01*
X326355Y446800D01*
D02*
G37*
G36*
X322800D02*
X319645D01*
X319734Y446125D01*
X320071Y445309D01*
X320609Y444609D01*
X321309Y444071D01*
X322125Y443734D01*
X322800Y443645D01*
Y446800D01*
D02*
G37*
G36*
X323200Y438355D02*
Y435200D01*
X326355D01*
X326266Y435875D01*
X325929Y436691D01*
X325391Y437391D01*
X324691Y437929D01*
X323875Y438266D01*
X323200Y438355D01*
D02*
G37*
G36*
X356353Y438353D02*
X353200D01*
Y435200D01*
X356353D01*
Y438353D01*
D02*
G37*
G36*
X352800D02*
X349647D01*
Y435200D01*
X352800D01*
Y438353D01*
D02*
G37*
G36*
X322800Y438355D02*
X322125Y438266D01*
X321309Y437929D01*
X320609Y437391D01*
X320071Y436691D01*
X319734Y435875D01*
X319645Y435200D01*
X322800D01*
Y438355D01*
D02*
G37*
G36*
X356353Y434800D02*
X353200D01*
Y431647D01*
X356353D01*
Y434800D01*
D02*
G37*
G36*
X352800D02*
X349647D01*
Y431647D01*
X352800D01*
Y434800D01*
D02*
G37*
G36*
X326355D02*
X323200D01*
Y431645D01*
X323875Y431734D01*
X324691Y432071D01*
X325391Y432609D01*
X325929Y433309D01*
X326266Y434125D01*
X326355Y434800D01*
D02*
G37*
G36*
X322800D02*
X319645D01*
X319734Y434125D01*
X320071Y433309D01*
X320609Y432609D01*
X321309Y432071D01*
X322125Y431734D01*
X322800Y431645D01*
Y434800D01*
D02*
G37*
G36*
X343000Y438382D02*
X342125Y438266D01*
X341309Y437929D01*
X340609Y437391D01*
X340071Y436691D01*
X339734Y435875D01*
X339618Y435000D01*
X339734Y434125D01*
X340071Y433309D01*
X340609Y432609D01*
X341309Y432071D01*
X342125Y431734D01*
X343000Y431618D01*
X343875Y431734D01*
X344691Y432071D01*
X345391Y432609D01*
X345929Y433309D01*
X346266Y434125D01*
X346382Y435000D01*
X346266Y435875D01*
X345929Y436691D01*
X345391Y437391D01*
X344691Y437929D01*
X343875Y438266D01*
X343000Y438382D01*
D02*
G37*
G36*
X333000D02*
X332125Y438266D01*
X331309Y437929D01*
X330609Y437391D01*
X330071Y436691D01*
X329733Y435875D01*
X329618Y435000D01*
X329733Y434125D01*
X330071Y433309D01*
X330609Y432609D01*
X331309Y432071D01*
X332125Y431734D01*
X333000Y431618D01*
X333875Y431734D01*
X334691Y432071D01*
X335391Y432609D01*
X335929Y433309D01*
X336266Y434125D01*
X336382Y435000D01*
X336266Y435875D01*
X335929Y436691D01*
X335391Y437391D01*
X334691Y437929D01*
X333875Y438266D01*
X333000Y438382D01*
D02*
G37*
G36*
X380000Y432413D02*
X379459Y432305D01*
X379001Y431999D01*
X378695Y431541D01*
X378587Y431000D01*
X378695Y430459D01*
X379001Y430001D01*
X379459Y429695D01*
X380000Y429587D01*
X380541Y429695D01*
X380999Y430001D01*
X381305Y430459D01*
X381413Y431000D01*
X381305Y431541D01*
X380999Y431999D01*
X380541Y432305D01*
X380000Y432413D01*
D02*
G37*
G36*
X322500Y429413D02*
X321959Y429305D01*
X321501Y428999D01*
X321195Y428541D01*
X321087Y428000D01*
X321195Y427459D01*
X321501Y427001D01*
X321959Y426695D01*
X322500Y426587D01*
X323041Y426695D01*
X323499Y427001D01*
X323805Y427459D01*
X323913Y428000D01*
X323805Y428541D01*
X323499Y428999D01*
X323041Y429305D01*
X322500Y429413D01*
D02*
G37*
G36*
X373500Y420913D02*
X372959Y420805D01*
X372501Y420499D01*
X372195Y420041D01*
X372087Y419500D01*
X372195Y418959D01*
X372501Y418501D01*
X372959Y418195D01*
X373500Y418087D01*
X374041Y418195D01*
X374499Y418501D01*
X374805Y418959D01*
X374913Y419500D01*
X374805Y420041D01*
X374499Y420499D01*
X374041Y420805D01*
X373500Y420913D01*
D02*
G37*
G36*
X302000D02*
X301459Y420805D01*
X301001Y420499D01*
X300695Y420041D01*
X300587Y419500D01*
X300695Y418959D01*
X301001Y418501D01*
X301459Y418195D01*
X302000Y418087D01*
X302541Y418195D01*
X302999Y418501D01*
X303305Y418959D01*
X303413Y419500D01*
X303305Y420041D01*
X302999Y420499D01*
X302541Y420805D01*
X302000Y420913D01*
D02*
G37*
G36*
X324000Y421316D02*
X323114Y421140D01*
X322362Y420638D01*
X321860Y419886D01*
X321684Y419000D01*
X321860Y418114D01*
X322362Y417362D01*
X323114Y416860D01*
X324000Y416684D01*
X324886Y416860D01*
X325638Y417362D01*
X326140Y418114D01*
X326316Y419000D01*
X326140Y419886D01*
X325638Y420638D01*
X324886Y421140D01*
X324000Y421316D01*
D02*
G37*
G36*
X373000Y415913D02*
X372459Y415805D01*
X372001Y415499D01*
X371695Y415041D01*
X371587Y414500D01*
X371695Y413959D01*
X372001Y413501D01*
X372459Y413195D01*
X373000Y413087D01*
X373541Y413195D01*
X373999Y413501D01*
X374305Y413959D01*
X374413Y414500D01*
X374305Y415041D01*
X373999Y415499D01*
X373541Y415805D01*
X373000Y415913D01*
D02*
G37*
G36*
X315000Y418413D02*
X314459Y418305D01*
X314001Y417999D01*
X313695Y417541D01*
X313587Y417000D01*
X313695Y416459D01*
X314001Y416001D01*
X314194Y415872D01*
X314428Y415588D01*
X314322Y415231D01*
X314195Y415041D01*
X314087Y414500D01*
X314195Y413959D01*
X314501Y413501D01*
X314959Y413195D01*
X315500Y413087D01*
X316041Y413195D01*
X316499Y413501D01*
X316805Y413959D01*
X316913Y414500D01*
X316805Y415041D01*
X316499Y415499D01*
X316306Y415628D01*
X316072Y415912D01*
X316178Y416269D01*
X316305Y416459D01*
X316413Y417000D01*
X316305Y417541D01*
X315999Y417999D01*
X315541Y418305D01*
X315000Y418413D01*
D02*
G37*
G36*
X349500Y410913D02*
X348959Y410805D01*
X348501Y410499D01*
X348278Y410165D01*
X348163Y410135D01*
X347837D01*
X347722Y410165D01*
X347499Y410499D01*
X347041Y410805D01*
X346500Y410913D01*
X345959Y410805D01*
X345501Y410499D01*
X345195Y410041D01*
X345087Y409500D01*
X345195Y408959D01*
X345501Y408501D01*
X345959Y408195D01*
X346500Y408087D01*
X347041Y408195D01*
X347499Y408501D01*
X347722Y408835D01*
X347837Y408865D01*
X348163D01*
X348278Y408835D01*
X348501Y408501D01*
X348959Y408195D01*
X349500Y408087D01*
X350041Y408195D01*
X350499Y408501D01*
X350805Y408959D01*
X350913Y409500D01*
X350805Y410041D01*
X350499Y410499D01*
X350041Y410805D01*
X349500Y410913D01*
D02*
G37*
G36*
X373500Y409413D02*
X372959Y409305D01*
X372501Y408999D01*
X372195Y408541D01*
X372087Y408000D01*
X372195Y407459D01*
X372501Y407001D01*
X372959Y406695D01*
X373500Y406587D01*
X374041Y406695D01*
X374499Y407001D01*
X374805Y407459D01*
X374913Y408000D01*
X374805Y408541D01*
X374499Y408999D01*
X374041Y409305D01*
X373500Y409413D01*
D02*
G37*
G36*
X353000Y408913D02*
X352459Y408805D01*
X352001Y408499D01*
X351695Y408041D01*
X351587Y407500D01*
X351695Y406959D01*
X352001Y406501D01*
X352459Y406195D01*
X353000Y406087D01*
X353541Y406195D01*
X353999Y406501D01*
X354305Y406959D01*
X354413Y407500D01*
X354305Y408041D01*
X353999Y408499D01*
X353541Y408805D01*
X353000Y408913D01*
D02*
G37*
G36*
X316000Y408413D02*
X315459Y408305D01*
X315001Y407999D01*
X314695Y407541D01*
X314587Y407000D01*
X314695Y406459D01*
X315001Y406001D01*
X315459Y405695D01*
X316000Y405587D01*
X316541Y405695D01*
X316999Y406001D01*
X317305Y406459D01*
X317413Y407000D01*
X317305Y407541D01*
X316999Y407999D01*
X316541Y408305D01*
X316000Y408413D01*
D02*
G37*
G36*
X356000Y407413D02*
X355459Y407305D01*
X355001Y406999D01*
X354695Y406541D01*
X354587Y406000D01*
X354695Y405459D01*
X355001Y405001D01*
X355459Y404695D01*
X356000Y404587D01*
X356541Y404695D01*
X356999Y405001D01*
X357305Y405459D01*
X357413Y406000D01*
X357305Y406541D01*
X356999Y406999D01*
X356541Y407305D01*
X356000Y407413D01*
D02*
G37*
G36*
X337500Y404913D02*
X336959Y404805D01*
X336501Y404499D01*
X336195Y404041D01*
X336087Y403500D01*
X336195Y402959D01*
X336501Y402501D01*
X336959Y402195D01*
X337500Y402087D01*
X338041Y402195D01*
X338499Y402501D01*
X338805Y402959D01*
X338913Y403500D01*
X338805Y404041D01*
X338499Y404499D01*
X338041Y404805D01*
X337500Y404913D01*
D02*
G37*
G36*
X333000D02*
X332459Y404805D01*
X332001Y404499D01*
X331695Y404041D01*
X331587Y403500D01*
X331695Y402959D01*
X332001Y402501D01*
X332459Y402195D01*
X333000Y402087D01*
X333541Y402195D01*
X333999Y402501D01*
X334305Y402959D01*
X334413Y403500D01*
X334305Y404041D01*
X333999Y404499D01*
X333541Y404805D01*
X333000Y404913D01*
D02*
G37*
G36*
X374000Y404413D02*
X373459Y404305D01*
X373001Y403999D01*
X372695Y403541D01*
X372587Y403000D01*
X372695Y402459D01*
X373001Y402001D01*
X373459Y401695D01*
X374000Y401587D01*
X374541Y401695D01*
X374999Y402001D01*
X375305Y402459D01*
X375413Y403000D01*
X375305Y403541D01*
X374999Y403999D01*
X374541Y404305D01*
X374000Y404413D01*
D02*
G37*
G36*
X317000Y403413D02*
X316459Y403305D01*
X316001Y402999D01*
X315695Y402541D01*
X315587Y402000D01*
X315695Y401459D01*
X316001Y401001D01*
X316459Y400695D01*
X317000Y400587D01*
X317541Y400695D01*
X317999Y401001D01*
X318305Y401459D01*
X318413Y402000D01*
X318305Y402541D01*
X317999Y402999D01*
X317541Y403305D01*
X317000Y403413D01*
D02*
G37*
G36*
X326500Y384913D02*
X325959Y384805D01*
X325501Y384499D01*
X325195Y384041D01*
X325087Y383500D01*
X325195Y382959D01*
X325501Y382501D01*
X325959Y382195D01*
X326500Y382087D01*
X327041Y382195D01*
X327499Y382501D01*
X327805Y382959D01*
X327913Y383500D01*
X327805Y384041D01*
X327499Y384499D01*
X327041Y384805D01*
X326500Y384913D01*
D02*
G37*
G36*
X342500Y380413D02*
X341959Y380305D01*
X341501Y379999D01*
X341195Y379541D01*
X341087Y379000D01*
X341195Y378459D01*
X341501Y378001D01*
X341959Y377695D01*
X342500Y377587D01*
X343041Y377695D01*
X343499Y378001D01*
X343805Y378459D01*
X343913Y379000D01*
X343805Y379541D01*
X343499Y379999D01*
X343041Y380305D01*
X342500Y380413D01*
D02*
G37*
G36*
X324000Y376913D02*
X323459Y376805D01*
X323001Y376499D01*
X322695Y376041D01*
X322587Y375500D01*
X322695Y374959D01*
X323001Y374501D01*
X323459Y374195D01*
X324000Y374087D01*
X324541Y374195D01*
X324999Y374501D01*
X325305Y374959D01*
X325413Y375500D01*
X325305Y376041D01*
X324999Y376499D01*
X324541Y376805D01*
X324000Y376913D01*
D02*
G37*
G36*
X317500Y375913D02*
X316959Y375805D01*
X316501Y375499D01*
X316195Y375041D01*
X316087Y374500D01*
X316195Y373959D01*
X316501Y373501D01*
X316959Y373195D01*
X317500Y373087D01*
X318041Y373195D01*
X318499Y373501D01*
X318805Y373959D01*
X318913Y374500D01*
X318805Y375041D01*
X318499Y375499D01*
X318041Y375805D01*
X317500Y375913D01*
D02*
G37*
G36*
X309000Y375413D02*
X308459Y375305D01*
X308001Y374999D01*
X307695Y374541D01*
X307587Y374000D01*
X307695Y373459D01*
X308001Y373001D01*
X308459Y372695D01*
X309000Y372587D01*
X309541Y372695D01*
X309999Y373001D01*
X310305Y373459D01*
X310413Y374000D01*
X310305Y374541D01*
X309999Y374999D01*
X309541Y375305D01*
X309000Y375413D01*
D02*
G37*
G36*
X370500Y370382D02*
X369625Y370266D01*
X368809Y369929D01*
X368109Y369391D01*
X367571Y368691D01*
X367234Y367875D01*
X367118Y367000D01*
X367234Y366125D01*
X367571Y365309D01*
X368109Y364609D01*
X368809Y364071D01*
X369625Y363734D01*
X370500Y363618D01*
X371375Y363734D01*
X372191Y364071D01*
X372891Y364609D01*
X373429Y365309D01*
X373766Y366125D01*
X373882Y367000D01*
X373766Y367875D01*
X373429Y368691D01*
X372891Y369391D01*
X372191Y369929D01*
X371375Y370266D01*
X370500Y370382D01*
D02*
G37*
G36*
X301000Y358316D02*
X300114Y358140D01*
X299362Y357638D01*
X298860Y356886D01*
X298684Y356000D01*
X298860Y355114D01*
X299362Y354362D01*
X300114Y353860D01*
X301000Y353684D01*
X301886Y353860D01*
X302638Y354362D01*
X303140Y355114D01*
X303316Y356000D01*
X303140Y356886D01*
X302638Y357638D01*
X301886Y358140D01*
X301000Y358316D01*
D02*
G37*
G36*
X373853Y360353D02*
X367147D01*
Y353647D01*
X373853D01*
Y360353D01*
D02*
G37*
G36*
X350500Y348913D02*
X349959Y348805D01*
X349501Y348499D01*
X349195Y348041D01*
X349087Y347500D01*
X349195Y346959D01*
X349501Y346501D01*
X349959Y346195D01*
X350500Y346087D01*
X351041Y346195D01*
X351499Y346501D01*
X351805Y346959D01*
X351913Y347500D01*
X351805Y348041D01*
X351499Y348499D01*
X351041Y348805D01*
X350500Y348913D01*
D02*
G37*
G36*
X317500Y345413D02*
X316959Y345305D01*
X316501Y344999D01*
X316195Y344541D01*
X316087Y344000D01*
X316195Y343459D01*
X316501Y343001D01*
X316959Y342695D01*
X317500Y342587D01*
X318041Y342695D01*
X318499Y343001D01*
X318805Y343459D01*
X318913Y344000D01*
X318805Y344541D01*
X318499Y344999D01*
X318041Y345305D01*
X317500Y345413D01*
D02*
G37*
G36*
X304000Y303816D02*
X303114Y303640D01*
X302362Y303138D01*
X301860Y302386D01*
X301684Y301500D01*
X301860Y300614D01*
X302362Y299862D01*
X303114Y299360D01*
X304000Y299184D01*
X304886Y299360D01*
X305638Y299862D01*
X306140Y300614D01*
X306316Y301500D01*
X306140Y302386D01*
X305638Y303138D01*
X304886Y303640D01*
X304000Y303816D01*
D02*
G37*
%LPD*%
D10*
X286000Y452500D02*
X388000D01*
Y293500D02*
Y452500D01*
X286000Y293500D02*
X388000D01*
X286000D02*
Y452500D01*
D60*
X323000Y435000D02*
D03*
Y447000D02*
D03*
D62*
X353000Y435000D02*
D03*
Y447000D02*
D03*
D63*
X312500Y364500D02*
D03*
X299500Y412000D02*
D03*
Y422000D02*
D03*
X365000Y399500D02*
D03*
X371000Y418000D02*
D03*
Y423000D02*
D03*
Y428000D02*
D03*
X349000Y364000D02*
D03*
X343000Y419500D02*
D03*
X348000Y417500D02*
D03*
X324500Y347500D02*
D03*
Y350000D02*
D03*
X321500Y345500D02*
D03*
X319000Y367500D02*
D03*
X323899Y403823D02*
D03*
X327500Y399000D02*
D03*
X348500Y376500D02*
D03*
X345500Y383500D02*
D03*
D64*
X332500Y349500D02*
D03*
X338000D02*
D03*
Y355000D02*
D03*
X332500D02*
D03*
D65*
X340000Y428000D02*
D03*
X333000Y418500D02*
D03*
X327000Y342500D02*
D03*
X360500Y332500D02*
D03*
X304500Y309500D02*
D03*
D66*
X336000Y394841D02*
D03*
X339341Y391500D02*
D03*
X332659D02*
D03*
X336000Y388159D02*
D03*
M02*
