G04*
G04 #@! TF.GenerationSoftware,Altium Limited,Altium Designer,20.0.9 (164)*
G04*
G04 Layer_Physical_Order=3*
G04 Layer_Color=16440176*
%FSLAX25Y25*%
%MOIN*%
G70*
G01*
G75*
%ADD10C,0.00787*%
%ADD58C,0.01500*%
%ADD63C,0.01772*%
%ADD64C,0.03543*%
G36*
X386000Y296000D02*
X288000D01*
Y414500D01*
X314087D01*
X314195Y413959D01*
X314501Y413501D01*
X314959Y413195D01*
X315500Y413087D01*
X315777Y413142D01*
X316023Y412681D01*
X300171Y396829D01*
X299917Y396449D01*
X299828Y396000D01*
Y357949D01*
X299362Y357638D01*
X298860Y356886D01*
X298684Y356000D01*
X298860Y355114D01*
X299362Y354362D01*
X299828Y354051D01*
Y304500D01*
X299917Y304051D01*
X300171Y303671D01*
X301793Y302049D01*
X301684Y301500D01*
X301860Y300614D01*
X302362Y299862D01*
X303114Y299360D01*
X304000Y299184D01*
X304886Y299360D01*
X305638Y299862D01*
X306140Y300614D01*
X306316Y301500D01*
X306140Y302386D01*
X305638Y303138D01*
X304886Y303640D01*
X304000Y303816D01*
X303451Y303707D01*
X302172Y304986D01*
Y308349D01*
X302673Y308501D01*
X303004Y308004D01*
X303691Y307546D01*
X304500Y307384D01*
X305310Y307546D01*
X305996Y308004D01*
X306454Y308691D01*
X306615Y309500D01*
X306454Y310310D01*
X305996Y310996D01*
X305310Y311454D01*
X304500Y311615D01*
X303691Y311454D01*
X303004Y310996D01*
X302673Y310500D01*
X302172Y310651D01*
Y354051D01*
X302638Y354362D01*
X303140Y355114D01*
X303316Y356000D01*
X303140Y356886D01*
X302638Y357638D01*
X302172Y357949D01*
Y395514D01*
X314181Y407523D01*
X314642Y407277D01*
X314587Y407000D01*
X314695Y406459D01*
X315001Y406001D01*
X315459Y405695D01*
X316000Y405587D01*
X316541Y405695D01*
X316999Y406001D01*
X317305Y406459D01*
X317413Y407000D01*
X317305Y407541D01*
X316999Y407999D01*
X316541Y408305D01*
X316000Y408413D01*
X315723Y408358D01*
X315477Y408819D01*
X321158Y414500D01*
X371587D01*
X371695Y413959D01*
X372001Y413501D01*
X372459Y413195D01*
X373000Y413087D01*
X373541Y413195D01*
X373999Y413501D01*
X374305Y413959D01*
X374413Y414500D01*
X386000D01*
Y296000D01*
D02*
G37*
%LPC*%
G36*
X299500Y413413D02*
X298959Y413305D01*
X298501Y412999D01*
X298195Y412541D01*
X298087Y412000D01*
X298195Y411459D01*
X298501Y411001D01*
X298959Y410695D01*
X299500Y410587D01*
X300041Y410695D01*
X300499Y411001D01*
X300805Y411459D01*
X300913Y412000D01*
X300805Y412541D01*
X300499Y412999D01*
X300041Y413305D01*
X299500Y413413D01*
D02*
G37*
G36*
X373500Y409413D02*
X372959Y409305D01*
X372501Y408999D01*
X372195Y408541D01*
X372087Y408000D01*
X372195Y407459D01*
X372501Y407001D01*
X372959Y406695D01*
X373500Y406587D01*
X374041Y406695D01*
X374499Y407001D01*
X374805Y407459D01*
X374913Y408000D01*
X374805Y408541D01*
X374499Y408999D01*
X374041Y409305D01*
X373500Y409413D01*
D02*
G37*
G36*
X353000Y408913D02*
X352459Y408805D01*
X352001Y408499D01*
X351695Y408041D01*
X351587Y407500D01*
X351695Y406959D01*
X352001Y406501D01*
X352459Y406195D01*
X353000Y406087D01*
X353541Y406195D01*
X353999Y406501D01*
X354305Y406959D01*
X354413Y407500D01*
X354305Y408041D01*
X353999Y408499D01*
X353541Y408805D01*
X353000Y408913D01*
D02*
G37*
G36*
X356000Y407413D02*
X355459Y407305D01*
X355001Y406999D01*
X354695Y406541D01*
X354587Y406000D01*
X354695Y405459D01*
X355001Y405001D01*
X355459Y404695D01*
X356000Y404587D01*
X356541Y404695D01*
X356999Y405001D01*
X357305Y405459D01*
X357413Y406000D01*
X357305Y406541D01*
X356999Y406999D01*
X356541Y407305D01*
X356000Y407413D01*
D02*
G37*
G36*
X323899Y405236D02*
X323358Y405129D01*
X322900Y404822D01*
X322593Y404364D01*
X322486Y403823D01*
X322593Y403282D01*
X322900Y402824D01*
X323358Y402518D01*
X323899Y402410D01*
X324439Y402518D01*
X324898Y402824D01*
X325204Y403282D01*
X325312Y403823D01*
X325204Y404364D01*
X324898Y404822D01*
X324439Y405129D01*
X323899Y405236D01*
D02*
G37*
G36*
X337500Y404913D02*
X336959Y404805D01*
X336501Y404499D01*
X336195Y404041D01*
X336087Y403500D01*
X336195Y402959D01*
X336501Y402501D01*
X336959Y402195D01*
X337500Y402087D01*
X338041Y402195D01*
X338499Y402501D01*
X338805Y402959D01*
X338913Y403500D01*
X338805Y404041D01*
X338499Y404499D01*
X338041Y404805D01*
X337500Y404913D01*
D02*
G37*
G36*
X333000D02*
X332459Y404805D01*
X332001Y404499D01*
X331695Y404041D01*
X331587Y403500D01*
X331695Y402959D01*
X332001Y402501D01*
X332459Y402195D01*
X333000Y402087D01*
X333541Y402195D01*
X333999Y402501D01*
X334305Y402959D01*
X334413Y403500D01*
X334305Y404041D01*
X333999Y404499D01*
X333541Y404805D01*
X333000Y404913D01*
D02*
G37*
G36*
X374000Y404413D02*
X373459Y404305D01*
X373001Y403999D01*
X372695Y403541D01*
X372587Y403000D01*
X372695Y402459D01*
X373001Y402001D01*
X373459Y401695D01*
X374000Y401587D01*
X374541Y401695D01*
X374999Y402001D01*
X375305Y402459D01*
X375413Y403000D01*
X375305Y403541D01*
X374999Y403999D01*
X374541Y404305D01*
X374000Y404413D01*
D02*
G37*
G36*
X317000Y403413D02*
X316459Y403305D01*
X316001Y402999D01*
X315695Y402541D01*
X315587Y402000D01*
X315695Y401459D01*
X316001Y401001D01*
X316459Y400695D01*
X317000Y400587D01*
X317541Y400695D01*
X317999Y401001D01*
X318305Y401459D01*
X318413Y402000D01*
X318305Y402541D01*
X317999Y402999D01*
X317541Y403305D01*
X317000Y403413D01*
D02*
G37*
G36*
X365000Y400913D02*
X364459Y400805D01*
X364001Y400499D01*
X363695Y400041D01*
X363587Y399500D01*
X363695Y398959D01*
X364001Y398501D01*
X364459Y398195D01*
X365000Y398087D01*
X365541Y398195D01*
X365999Y398501D01*
X366305Y398959D01*
X366413Y399500D01*
X366305Y400041D01*
X365999Y400499D01*
X365541Y400805D01*
X365000Y400913D01*
D02*
G37*
G36*
X327500Y400413D02*
X326959Y400305D01*
X326501Y399999D01*
X326195Y399541D01*
X326087Y399000D01*
X326195Y398459D01*
X326501Y398001D01*
X326959Y397695D01*
X327500Y397587D01*
X328041Y397695D01*
X328499Y398001D01*
X328805Y398459D01*
X328913Y399000D01*
X328805Y399541D01*
X328499Y399999D01*
X328041Y400305D01*
X327500Y400413D01*
D02*
G37*
G36*
X336000Y396675D02*
X335298Y396535D01*
X334703Y396138D01*
X334305Y395543D01*
X334166Y394841D01*
X334305Y394139D01*
X334703Y393544D01*
X335298Y393146D01*
X336000Y393006D01*
X336702Y393146D01*
X337297Y393544D01*
X337695Y394139D01*
X337835Y394841D01*
X337695Y395543D01*
X337297Y396138D01*
X336702Y396535D01*
X336000Y396675D01*
D02*
G37*
G36*
X339341Y393335D02*
X338639Y393195D01*
X338043Y392797D01*
X337646Y392202D01*
X337506Y391500D01*
X337646Y390798D01*
X338043Y390203D01*
X338639Y389805D01*
X339341Y389666D01*
X340043Y389805D01*
X340638Y390203D01*
X341036Y390798D01*
X341175Y391500D01*
X341036Y392202D01*
X340638Y392797D01*
X340043Y393195D01*
X339341Y393335D01*
D02*
G37*
G36*
X332659D02*
X331957Y393195D01*
X331362Y392797D01*
X330964Y392202D01*
X330825Y391500D01*
X330964Y390798D01*
X331362Y390203D01*
X331957Y389805D01*
X332659Y389666D01*
X333361Y389805D01*
X333957Y390203D01*
X334354Y390798D01*
X334494Y391500D01*
X334354Y392202D01*
X333957Y392797D01*
X333361Y393195D01*
X332659Y393335D01*
D02*
G37*
G36*
X336000Y389994D02*
X335298Y389854D01*
X334703Y389457D01*
X334305Y388861D01*
X334166Y388159D01*
X334305Y387457D01*
X334703Y386862D01*
X335298Y386465D01*
X336000Y386325D01*
X336702Y386465D01*
X337297Y386862D01*
X337695Y387457D01*
X337835Y388159D01*
X337695Y388861D01*
X337297Y389457D01*
X336702Y389854D01*
X336000Y389994D01*
D02*
G37*
G36*
X345500Y384913D02*
X344959Y384805D01*
X344501Y384499D01*
X344195Y384041D01*
X344087Y383500D01*
X344195Y382959D01*
X344501Y382501D01*
X344959Y382195D01*
X345500Y382087D01*
X346041Y382195D01*
X346499Y382501D01*
X346805Y382959D01*
X346913Y383500D01*
X346805Y384041D01*
X346499Y384499D01*
X346041Y384805D01*
X345500Y384913D01*
D02*
G37*
G36*
X326500D02*
X325959Y384805D01*
X325501Y384499D01*
X325195Y384041D01*
X325087Y383500D01*
X325195Y382959D01*
X325501Y382501D01*
X325959Y382195D01*
X326500Y382087D01*
X327041Y382195D01*
X327499Y382501D01*
X327805Y382959D01*
X327913Y383500D01*
X327805Y384041D01*
X327499Y384499D01*
X327041Y384805D01*
X326500Y384913D01*
D02*
G37*
G36*
X348500Y377913D02*
X347959Y377805D01*
X347501Y377499D01*
X347195Y377041D01*
X347087Y376500D01*
X347195Y375959D01*
X347501Y375501D01*
X347959Y375195D01*
X348500Y375087D01*
X349041Y375195D01*
X349499Y375501D01*
X349805Y375959D01*
X349913Y376500D01*
X349805Y377041D01*
X349499Y377499D01*
X349041Y377805D01*
X348500Y377913D01*
D02*
G37*
G36*
X324000Y376913D02*
X323459Y376805D01*
X323001Y376499D01*
X322695Y376041D01*
X322587Y375500D01*
X322695Y374959D01*
X323001Y374501D01*
X323459Y374195D01*
X324000Y374087D01*
X324541Y374195D01*
X324999Y374501D01*
X325305Y374959D01*
X325413Y375500D01*
X325305Y376041D01*
X324999Y376499D01*
X324541Y376805D01*
X324000Y376913D01*
D02*
G37*
G36*
X317500Y375913D02*
X316959Y375805D01*
X316501Y375499D01*
X316195Y375041D01*
X316087Y374500D01*
X316195Y373959D01*
X316501Y373501D01*
X316959Y373195D01*
X317500Y373087D01*
X318041Y373195D01*
X318499Y373501D01*
X318805Y373959D01*
X318913Y374500D01*
X318805Y375041D01*
X318499Y375499D01*
X318041Y375805D01*
X317500Y375913D01*
D02*
G37*
G36*
X319000Y368913D02*
X318459Y368805D01*
X318001Y368499D01*
X317695Y368041D01*
X317587Y367500D01*
X317695Y366959D01*
X318001Y366501D01*
X318459Y366195D01*
X319000Y366087D01*
X319541Y366195D01*
X319999Y366501D01*
X320305Y366959D01*
X320413Y367500D01*
X320305Y368041D01*
X319999Y368499D01*
X319541Y368805D01*
X319000Y368913D01*
D02*
G37*
G36*
X370500Y370382D02*
X369625Y370266D01*
X368809Y369929D01*
X368109Y369391D01*
X367571Y368691D01*
X367234Y367875D01*
X367118Y367000D01*
X367234Y366125D01*
X367571Y365309D01*
X368109Y364609D01*
X368809Y364071D01*
X369625Y363734D01*
X370500Y363618D01*
X371375Y363734D01*
X372191Y364071D01*
X372891Y364609D01*
X373429Y365309D01*
X373766Y366125D01*
X373882Y367000D01*
X373766Y367875D01*
X373429Y368691D01*
X372891Y369391D01*
X372191Y369929D01*
X371375Y370266D01*
X370500Y370382D01*
D02*
G37*
G36*
X312500Y365913D02*
X311959Y365805D01*
X311501Y365499D01*
X311195Y365041D01*
X311087Y364500D01*
X311195Y363959D01*
X311501Y363501D01*
X311959Y363195D01*
X312500Y363087D01*
X313041Y363195D01*
X313499Y363501D01*
X313805Y363959D01*
X313913Y364500D01*
X313805Y365041D01*
X313499Y365499D01*
X313041Y365805D01*
X312500Y365913D01*
D02*
G37*
G36*
X349000Y365413D02*
X348459Y365305D01*
X348001Y364999D01*
X347695Y364541D01*
X347587Y364000D01*
X347695Y363459D01*
X348001Y363001D01*
X348459Y362695D01*
X349000Y362587D01*
X349541Y362695D01*
X349999Y363001D01*
X350305Y363459D01*
X350413Y364000D01*
X350305Y364541D01*
X349999Y364999D01*
X349541Y365305D01*
X349000Y365413D01*
D02*
G37*
G36*
X373853Y360353D02*
X367147D01*
Y353647D01*
X373853D01*
Y360353D01*
D02*
G37*
G36*
X338000Y357316D02*
X337114Y357140D01*
X336362Y356638D01*
X335860Y355886D01*
X335684Y355000D01*
X335860Y354114D01*
X336362Y353362D01*
X337114Y352860D01*
X338000Y352684D01*
X338886Y352860D01*
X339638Y353362D01*
X340140Y354114D01*
X340316Y355000D01*
X340140Y355886D01*
X339638Y356638D01*
X338886Y357140D01*
X338000Y357316D01*
D02*
G37*
G36*
X332500D02*
X331614Y357140D01*
X330862Y356638D01*
X330360Y355886D01*
X330184Y355000D01*
X330360Y354114D01*
X330862Y353362D01*
X331614Y352860D01*
X332500Y352684D01*
X333386Y352860D01*
X334138Y353362D01*
X334640Y354114D01*
X334816Y355000D01*
X334640Y355886D01*
X334138Y356638D01*
X333386Y357140D01*
X332500Y357316D01*
D02*
G37*
G36*
X338000Y351816D02*
X337114Y351640D01*
X336362Y351138D01*
X335860Y350386D01*
X335684Y349500D01*
X335860Y348614D01*
X336362Y347862D01*
X337114Y347360D01*
X338000Y347184D01*
X338886Y347360D01*
X339638Y347862D01*
X340140Y348614D01*
X340316Y349500D01*
X340140Y350386D01*
X339638Y351138D01*
X338886Y351640D01*
X338000Y351816D01*
D02*
G37*
G36*
X332500D02*
X331614Y351640D01*
X330862Y351138D01*
X330360Y350386D01*
X330184Y349500D01*
X330360Y348614D01*
X330862Y347862D01*
X331614Y347360D01*
X332500Y347184D01*
X333386Y347360D01*
X334138Y347862D01*
X334640Y348614D01*
X334816Y349500D01*
X334640Y350386D01*
X334138Y351138D01*
X333386Y351640D01*
X332500Y351816D01*
D02*
G37*
G36*
X350500Y348913D02*
X349959Y348805D01*
X349501Y348499D01*
X349195Y348041D01*
X349087Y347500D01*
X349195Y346959D01*
X349501Y346501D01*
X349959Y346195D01*
X350500Y346087D01*
X351041Y346195D01*
X351499Y346501D01*
X351805Y346959D01*
X351913Y347500D01*
X351805Y348041D01*
X351499Y348499D01*
X351041Y348805D01*
X350500Y348913D01*
D02*
G37*
G36*
X324500Y351413D02*
X323959Y351305D01*
X323501Y350999D01*
X323195Y350541D01*
X323087Y350000D01*
X323195Y349459D01*
X323501Y349001D01*
X323502Y349000D01*
Y348500D01*
X323501Y348499D01*
X323195Y348041D01*
X323087Y347500D01*
X323195Y346959D01*
X323501Y346501D01*
X323959Y346195D01*
X324500Y346087D01*
X325041Y346195D01*
X325499Y346501D01*
X325805Y346959D01*
X325913Y347500D01*
X325805Y348041D01*
X325499Y348499D01*
X325498Y348500D01*
Y349000D01*
X325499Y349001D01*
X325805Y349459D01*
X325913Y350000D01*
X325805Y350541D01*
X325499Y350999D01*
X325041Y351305D01*
X324500Y351413D01*
D02*
G37*
G36*
X321500Y346913D02*
X320959Y346805D01*
X320501Y346499D01*
X320195Y346041D01*
X320087Y345500D01*
X320195Y344959D01*
X320501Y344501D01*
X320959Y344195D01*
X321500Y344087D01*
X322041Y344195D01*
X322499Y344501D01*
X322805Y344959D01*
X322913Y345500D01*
X322805Y346041D01*
X322499Y346499D01*
X322041Y346805D01*
X321500Y346913D01*
D02*
G37*
G36*
X317500Y345413D02*
X316959Y345305D01*
X316501Y344999D01*
X316195Y344541D01*
X316087Y344000D01*
X316195Y343459D01*
X316501Y343001D01*
X316959Y342695D01*
X317500Y342587D01*
X318041Y342695D01*
X318499Y343001D01*
X318805Y343459D01*
X318913Y344000D01*
X318805Y344541D01*
X318499Y344999D01*
X318041Y345305D01*
X317500Y345413D01*
D02*
G37*
G36*
X327000Y344616D02*
X326190Y344454D01*
X325504Y343996D01*
X325046Y343309D01*
X324885Y342500D01*
X325046Y341690D01*
X325504Y341004D01*
X326190Y340546D01*
X327000Y340385D01*
X327810Y340546D01*
X328496Y341004D01*
X328954Y341690D01*
X329116Y342500D01*
X328954Y343309D01*
X328496Y343996D01*
X327810Y344454D01*
X327000Y344616D01*
D02*
G37*
G36*
X360500Y334615D02*
X359690Y334454D01*
X359004Y333996D01*
X358546Y333310D01*
X358384Y332500D01*
X358546Y331691D01*
X359004Y331004D01*
X359690Y330546D01*
X360500Y330384D01*
X361310Y330546D01*
X361996Y331004D01*
X362454Y331691D01*
X362615Y332500D01*
X362454Y333310D01*
X361996Y333996D01*
X361310Y334454D01*
X360500Y334615D01*
D02*
G37*
%LPD*%
D10*
X286000Y452500D02*
X388000D01*
Y293500D02*
Y452500D01*
X286000Y293500D02*
X388000D01*
X286000D02*
Y452500D01*
D58*
X301000Y304500D02*
Y356000D01*
Y304500D02*
X304000Y301500D01*
X301000Y396000D02*
X324000Y419000D01*
X301000Y356000D02*
Y396000D01*
D63*
X349500Y409500D02*
D03*
X346500D02*
D03*
X309000Y374000D02*
D03*
X342500Y379000D02*
D03*
D64*
X304000Y301500D02*
D03*
X301000Y356000D02*
D03*
X324000Y419000D02*
D03*
M02*
