G04*
G04 #@! TF.GenerationSoftware,Altium Limited,Altium Designer,20.0.9 (164)*
G04*
G04 Layer_Color=8388736*
%FSLAX25Y25*%
%MOIN*%
G70*
G01*
G75*
%ADD10C,0.00787*%
%ADD31R,0.11614X0.11614*%
%ADD32C,0.01772*%
%ADD33R,0.14370X0.08465*%
%ADD34R,0.10433X0.08071*%
G04:AMPARAMS|DCode=35|XSize=66.93mil|YSize=55.12mil|CornerRadius=6.64mil|HoleSize=0mil|Usage=FLASHONLY|Rotation=180.000|XOffset=0mil|YOffset=0mil|HoleType=Round|Shape=RoundedRectangle|*
%AMROUNDEDRECTD35*
21,1,0.06693,0.04183,0,0,180.0*
21,1,0.05364,0.05512,0,0,180.0*
1,1,0.01329,-0.02682,0.02092*
1,1,0.01329,0.02682,0.02092*
1,1,0.01329,0.02682,-0.02092*
1,1,0.01329,-0.02682,-0.02092*
%
%ADD35ROUNDEDRECTD35*%
G04:AMPARAMS|DCode=36|XSize=31.1mil|YSize=29.53mil|CornerRadius=8.86mil|HoleSize=0mil|Usage=FLASHONLY|Rotation=180.000|XOffset=0mil|YOffset=0mil|HoleType=Round|Shape=RoundedRectangle|*
%AMROUNDEDRECTD36*
21,1,0.03110,0.01181,0,0,180.0*
21,1,0.01339,0.02953,0,0,180.0*
1,1,0.01772,-0.00669,0.00591*
1,1,0.01772,0.00669,0.00591*
1,1,0.01772,0.00669,-0.00591*
1,1,0.01772,-0.00669,-0.00591*
%
%ADD36ROUNDEDRECTD36*%
%ADD37R,0.07284X0.04921*%
G04:AMPARAMS|DCode=38|XSize=31.1mil|YSize=29.53mil|CornerRadius=8.86mil|HoleSize=0mil|Usage=FLASHONLY|Rotation=90.000|XOffset=0mil|YOffset=0mil|HoleType=Round|Shape=RoundedRectangle|*
%AMROUNDEDRECTD38*
21,1,0.03110,0.01181,0,0,90.0*
21,1,0.01339,0.02953,0,0,90.0*
1,1,0.01772,0.00591,0.00669*
1,1,0.01772,0.00591,-0.00669*
1,1,0.01772,-0.00591,-0.00669*
1,1,0.01772,-0.00591,0.00669*
%
%ADD38ROUNDEDRECTD38*%
%ADD39P,0.14755X4X180.0*%
G04:AMPARAMS|DCode=40|XSize=13.78mil|YSize=35.43mil|CornerRadius=0mil|HoleSize=0mil|Usage=FLASHONLY|Rotation=135.000|XOffset=0mil|YOffset=0mil|HoleType=Round|Shape=Round|*
%AMOVALD40*
21,1,0.02165,0.01378,0.00000,0.00000,225.0*
1,1,0.01378,0.00766,0.00766*
1,1,0.01378,-0.00766,-0.00766*
%
%ADD40OVALD40*%

G04:AMPARAMS|DCode=41|XSize=13.78mil|YSize=35.43mil|CornerRadius=0mil|HoleSize=0mil|Usage=FLASHONLY|Rotation=225.000|XOffset=0mil|YOffset=0mil|HoleType=Round|Shape=Round|*
%AMOVALD41*
21,1,0.02165,0.01378,0.00000,0.00000,315.0*
1,1,0.01378,-0.00766,0.00766*
1,1,0.01378,0.00766,-0.00766*
%
%ADD41OVALD41*%

%ADD42C,0.04591*%
G04:AMPARAMS|DCode=43|XSize=26.38mil|YSize=27.95mil|CornerRadius=8.07mil|HoleSize=0mil|Usage=FLASHONLY|Rotation=0.000|XOffset=0mil|YOffset=0mil|HoleType=Round|Shape=RoundedRectangle|*
%AMROUNDEDRECTD43*
21,1,0.02638,0.01181,0,0,0.0*
21,1,0.01024,0.02795,0,0,0.0*
1,1,0.01614,0.00512,-0.00591*
1,1,0.01614,-0.00512,-0.00591*
1,1,0.01614,-0.00512,0.00591*
1,1,0.01614,0.00512,0.00591*
%
%ADD43ROUNDEDRECTD43*%
%ADD44R,0.10039X0.03583*%
%ADD45R,0.03091X0.03091*%
%ADD46R,0.02756X0.03740*%
G04:AMPARAMS|DCode=47|XSize=26.38mil|YSize=27.95mil|CornerRadius=8.07mil|HoleSize=0mil|Usage=FLASHONLY|Rotation=90.000|XOffset=0mil|YOffset=0mil|HoleType=Round|Shape=RoundedRectangle|*
%AMROUNDEDRECTD47*
21,1,0.02638,0.01181,0,0,90.0*
21,1,0.01024,0.02795,0,0,90.0*
1,1,0.01614,0.00591,0.00512*
1,1,0.01614,0.00591,-0.00512*
1,1,0.01614,-0.00591,-0.00512*
1,1,0.01614,-0.00591,0.00512*
%
%ADD47ROUNDEDRECTD47*%
%ADD48R,0.04134X0.03425*%
%ADD49R,0.03347X0.03937*%
G04:AMPARAMS|DCode=50|XSize=26.38mil|YSize=27.95mil|CornerRadius=8.07mil|HoleSize=0mil|Usage=FLASHONLY|Rotation=135.000|XOffset=0mil|YOffset=0mil|HoleType=Round|Shape=RoundedRectangle|*
%AMROUNDEDRECTD50*
21,1,0.02638,0.01181,0,0,135.0*
21,1,0.01024,0.02795,0,0,135.0*
1,1,0.01614,0.00056,0.00780*
1,1,0.01614,0.00780,0.00056*
1,1,0.01614,-0.00056,-0.00780*
1,1,0.01614,-0.00780,-0.00056*
%
%ADD50ROUNDEDRECTD50*%
%ADD51C,0.06496*%
%ADD52R,0.06496X0.06496*%
%ADD53R,0.06496X0.06496*%
%ADD54C,0.02362*%
%ADD55C,0.04134*%
%ADD56C,0.03740*%
G36*
X319509Y428046D02*
X319520D01*
X319532Y428045D01*
X319544Y428044D01*
X319555Y428041D01*
X319566Y428039D01*
X319578Y428035D01*
X319589Y428033D01*
X319600Y428028D01*
X319611Y428025D01*
X320530Y427644D01*
X320540Y427639D01*
X320551Y427634D01*
X320561Y427628D01*
X320571Y427623D01*
X320580Y427616D01*
X320590Y427610D01*
X320599Y427602D01*
X320608Y427596D01*
X320617Y427587D01*
X320626Y427580D01*
X321329Y426877D01*
X321336Y426868D01*
X321345Y426860D01*
X321351Y426850D01*
X321359Y426841D01*
X321365Y426831D01*
X321372Y426822D01*
X321377Y426812D01*
X321383Y426802D01*
X321388Y426791D01*
X321393Y426781D01*
X321774Y425862D01*
X321777Y425851D01*
X321782Y425840D01*
X321784Y425829D01*
X321788Y425817D01*
X321790Y425806D01*
X321793Y425795D01*
X321794Y425783D01*
X321795Y425772D01*
Y425760D01*
X321796Y425748D01*
Y425251D01*
X321793Y425205D01*
X321782Y425160D01*
X321764Y425117D01*
X321740Y425077D01*
X321709Y425042D01*
X321674Y425011D01*
X321656Y425000D01*
X321674Y424989D01*
X321709Y424958D01*
X321740Y424923D01*
X321764Y424883D01*
X321782Y424840D01*
X321793Y424795D01*
X321796Y424749D01*
Y424252D01*
X321795Y424240D01*
Y424228D01*
X321794Y424217D01*
X321793Y424205D01*
X321790Y424194D01*
X321788Y424183D01*
X321784Y424171D01*
X321782Y424160D01*
X321777Y424149D01*
X321774Y424138D01*
X321393Y423219D01*
X321388Y423209D01*
X321383Y423198D01*
X321377Y423188D01*
X321372Y423178D01*
X321365Y423169D01*
X321359Y423159D01*
X321351Y423150D01*
X321345Y423140D01*
X321336Y423132D01*
X321329Y423123D01*
X320626Y422420D01*
X320617Y422413D01*
X320608Y422404D01*
X320599Y422398D01*
X320590Y422390D01*
X320580Y422384D01*
X320571Y422377D01*
X320561Y422372D01*
X320551Y422366D01*
X320540Y422361D01*
X320530Y422356D01*
X319611Y421975D01*
X319600Y421972D01*
X319589Y421967D01*
X319578Y421965D01*
X319566Y421961D01*
X319555Y421959D01*
X319544Y421956D01*
X319532Y421955D01*
X319520Y421954D01*
X319509D01*
X319497Y421953D01*
X318503D01*
X318491Y421954D01*
X318479D01*
X318468Y421955D01*
X318456Y421956D01*
X318445Y421959D01*
X318434Y421961D01*
X318423Y421965D01*
X318411Y421967D01*
X318400Y421972D01*
X318389Y421975D01*
X317471Y422356D01*
X317460Y422361D01*
X317449Y422366D01*
X317440Y422372D01*
X317429Y422377D01*
X317420Y422384D01*
X317410Y422390D01*
X317401Y422398D01*
X317391Y422404D01*
X317383Y422413D01*
X317374Y422420D01*
X316671Y423123D01*
X316664Y423132D01*
X316655Y423140D01*
X316649Y423150D01*
X316641Y423159D01*
X316635Y423169D01*
X316628Y423178D01*
X316623Y423188D01*
X316617Y423198D01*
X316612Y423209D01*
X316607Y423219D01*
X316226Y424138D01*
X316223Y424149D01*
X316218Y424160D01*
X316216Y424171D01*
X316212Y424183D01*
X316210Y424194D01*
X316208Y424205D01*
X316207Y424217D01*
X316205Y424228D01*
Y424240D01*
X316204Y424252D01*
Y424749D01*
X316208Y424795D01*
X316218Y424840D01*
X316236Y424883D01*
X316260Y424923D01*
X316291Y424958D01*
X316326Y424989D01*
X316344Y425000D01*
X316326Y425011D01*
X316291Y425042D01*
X316260Y425077D01*
X316236Y425117D01*
X316218Y425160D01*
X316208Y425205D01*
X316204Y425251D01*
Y425748D01*
X316205Y425760D01*
Y425772D01*
X316207Y425783D01*
X316208Y425795D01*
X316210Y425806D01*
X316212Y425817D01*
X316216Y425829D01*
X316218Y425840D01*
X316223Y425851D01*
X316226Y425862D01*
X316607Y426781D01*
X316612Y426791D01*
X316617Y426802D01*
X316623Y426812D01*
X316628Y426822D01*
X316635Y426831D01*
X316641Y426841D01*
X316649Y426850D01*
X316655Y426860D01*
X316664Y426868D01*
X316671Y426877D01*
X317374Y427580D01*
X317383Y427587D01*
X317391Y427596D01*
X317401Y427602D01*
X317410Y427610D01*
X317420Y427616D01*
X317429Y427623D01*
X317440Y427628D01*
X317449Y427634D01*
X317460Y427639D01*
X317471Y427644D01*
X318389Y428025D01*
X318400Y428028D01*
X318411Y428033D01*
X318423Y428035D01*
X318434Y428039D01*
X318445Y428041D01*
X318456Y428044D01*
X318468Y428045D01*
X318479Y428046D01*
X318491D01*
X318503Y428047D01*
X319497D01*
X319509Y428046D01*
D02*
G37*
D10*
X286000Y452500D02*
X388000D01*
Y293500D02*
Y452500D01*
X286000Y293500D02*
X388000D01*
X286000D02*
Y452500D01*
D31*
X335500Y352000D02*
D03*
D32*
X331563Y359874D02*
D03*
X333531Y359874D02*
D03*
X335500D02*
D03*
X337469D02*
D03*
X339437Y359874D02*
D03*
X343374Y355937D02*
D03*
Y353969D02*
D03*
Y352000D02*
D03*
Y350031D02*
D03*
Y348063D02*
D03*
X339437Y344126D02*
D03*
X337469D02*
D03*
X335500D02*
D03*
X333531D02*
D03*
X331563D02*
D03*
X327626Y348063D02*
D03*
Y350031D02*
D03*
Y352000D02*
D03*
Y353969D02*
D03*
Y355937D02*
D03*
D33*
X335500Y301000D02*
D03*
Y336000D02*
D03*
D34*
Y327161D02*
D03*
Y309839D02*
D03*
D35*
X308000Y356268D02*
D03*
Y364732D02*
D03*
X311000Y301268D02*
D03*
Y309732D02*
D03*
D36*
X319110Y364000D02*
D03*
X322890D02*
D03*
X319110Y360000D02*
D03*
X322890D02*
D03*
D37*
X360500Y337882D02*
D03*
Y348118D02*
D03*
D38*
X317500Y351890D02*
D03*
Y348110D02*
D03*
X321500D02*
D03*
Y351890D02*
D03*
X349000Y360890D02*
D03*
Y357110D02*
D03*
D39*
X336000Y391500D02*
D03*
D40*
X334121Y382104D02*
D03*
X332868Y383357D02*
D03*
X331615Y384610D02*
D03*
X330363Y385863D02*
D03*
X329110Y387115D02*
D03*
X327857Y388368D02*
D03*
X326604Y389621D02*
D03*
X337879Y400896D02*
D03*
X339132Y399643D02*
D03*
X340385Y398390D02*
D03*
X341637Y397137D02*
D03*
X342890Y395885D02*
D03*
X344143Y394632D02*
D03*
X345396Y393379D02*
D03*
D41*
X326604D02*
D03*
X327857Y394632D02*
D03*
X329110Y395885D02*
D03*
X330363Y397137D02*
D03*
X331615Y398390D02*
D03*
X332868Y399643D02*
D03*
X334121Y400896D02*
D03*
X345396Y389621D02*
D03*
X344143Y388368D02*
D03*
X342890Y387115D02*
D03*
X341637Y385863D02*
D03*
X340385Y384610D02*
D03*
X339132Y383357D02*
D03*
X337879Y382104D02*
D03*
D42*
X327000Y378500D02*
D03*
Y372500D02*
D03*
X333000D02*
D03*
X339000D02*
D03*
X345000D02*
D03*
X354000Y380500D02*
D03*
X355000Y388500D02*
D03*
Y393500D02*
D03*
X349500Y400000D02*
D03*
X315000Y383000D02*
D03*
X316000Y370000D02*
D03*
D43*
X361232Y384500D02*
D03*
X357768D02*
D03*
X311621Y377853D02*
D03*
X315086Y377854D02*
D03*
X311621Y374354D02*
D03*
X315086D02*
D03*
X333000Y428000D02*
D03*
X336465D02*
D03*
X329732Y404000D02*
D03*
X326268D02*
D03*
D44*
X380000Y403000D02*
D03*
X365000D02*
D03*
X380000Y408000D02*
D03*
X365000D02*
D03*
X380000Y413000D02*
D03*
X365000D02*
D03*
X380000Y418000D02*
D03*
X365000D02*
D03*
X380000Y423000D02*
D03*
X365000D02*
D03*
X380000Y428000D02*
D03*
X365000D02*
D03*
X308500Y402000D02*
D03*
X293500D02*
D03*
X308500Y407000D02*
D03*
X293500Y407000D02*
D03*
X308500Y412000D02*
D03*
X293500D02*
D03*
X308500Y417000D02*
D03*
X293500D02*
D03*
X308500Y422000D02*
D03*
X293500Y422000D02*
D03*
X308500Y427000D02*
D03*
X293500D02*
D03*
D45*
X319000Y427000D02*
D03*
Y423000D02*
D03*
D46*
X329260Y412579D02*
D03*
X336740Y412579D02*
D03*
X329260Y422421D02*
D03*
X333000Y422421D02*
D03*
X336740Y422421D02*
D03*
D47*
X356000Y415232D02*
D03*
Y411768D02*
D03*
X353000Y415232D02*
D03*
Y411768D02*
D03*
X348000D02*
D03*
Y415232D02*
D03*
D48*
X343000Y412138D02*
D03*
Y416862D02*
D03*
D49*
X332862Y408000D02*
D03*
X328138D02*
D03*
D50*
X344275Y380725D02*
D03*
X346725Y378275D02*
D03*
D51*
X370500Y367000D02*
D03*
X323000Y435000D02*
D03*
X333000D02*
D03*
X343000D02*
D03*
X323000Y447000D02*
D03*
X333000D02*
D03*
X343000D02*
D03*
D52*
X370500Y357000D02*
D03*
D53*
X353000Y435000D02*
D03*
Y447000D02*
D03*
D54*
X356000Y406000D02*
D03*
X302000Y419500D02*
D03*
X315000Y417000D02*
D03*
X373500Y419500D02*
D03*
X337500Y403500D02*
D03*
X315500Y414500D02*
D03*
X373000D02*
D03*
X333000Y403500D02*
D03*
X312500Y364500D02*
D03*
X349500Y409500D02*
D03*
X346500D02*
D03*
X299500Y412000D02*
D03*
Y422000D02*
D03*
X365000Y399500D02*
D03*
X371000Y418000D02*
D03*
Y423000D02*
D03*
Y428000D02*
D03*
X349000Y364000D02*
D03*
X322500Y428000D02*
D03*
X380000Y431000D02*
D03*
X316000Y407000D02*
D03*
X317000Y402000D02*
D03*
X353000Y407500D02*
D03*
X373500Y408000D02*
D03*
X374000Y403000D02*
D03*
X343000Y419500D02*
D03*
X348000Y417500D02*
D03*
X326500Y383500D02*
D03*
X350500Y347500D02*
D03*
X317500Y344000D02*
D03*
X324500Y347500D02*
D03*
Y350000D02*
D03*
X321500Y345500D02*
D03*
X319000Y367500D02*
D03*
X324000Y375500D02*
D03*
X317500Y374500D02*
D03*
X309000Y374000D02*
D03*
X323899Y403823D02*
D03*
X327500Y399000D02*
D03*
X342500Y379000D02*
D03*
X348500Y376500D02*
D03*
X345500Y383500D02*
D03*
D55*
X304000Y301500D02*
D03*
X332500Y349500D02*
D03*
X338000D02*
D03*
Y355000D02*
D03*
X332500D02*
D03*
X301000Y356000D02*
D03*
X324000Y419000D02*
D03*
D56*
X340000Y428000D02*
D03*
X333000Y418500D02*
D03*
X327000Y342500D02*
D03*
X360500Y332500D02*
D03*
X304500Y309500D02*
D03*
M02*
