G04*
G04 #@! TF.GenerationSoftware,Altium Limited,Altium Designer,20.0.9 (164)*
G04*
G04 Layer_Color=8421504*
%FSLAX25Y25*%
%MOIN*%
G70*
G01*
G75*
%ADD10C,0.00787*%
%ADD11R,0.11024X0.11024*%
%ADD12C,0.01181*%
%ADD13R,0.13780X0.07874*%
%ADD14R,0.09843X0.07480*%
G04:AMPARAMS|DCode=15|XSize=61.02mil|YSize=49.21mil|CornerRadius=3.69mil|HoleSize=0mil|Usage=FLASHONLY|Rotation=180.000|XOffset=0mil|YOffset=0mil|HoleType=Round|Shape=RoundedRectangle|*
%AMROUNDEDRECTD15*
21,1,0.06102,0.04183,0,0,180.0*
21,1,0.05364,0.04921,0,0,180.0*
1,1,0.00738,-0.02682,0.02092*
1,1,0.00738,0.02682,0.02092*
1,1,0.00738,0.02682,-0.02092*
1,1,0.00738,-0.02682,-0.02092*
%
%ADD15ROUNDEDRECTD15*%
G04:AMPARAMS|DCode=16|XSize=25.2mil|YSize=23.62mil|CornerRadius=5.91mil|HoleSize=0mil|Usage=FLASHONLY|Rotation=180.000|XOffset=0mil|YOffset=0mil|HoleType=Round|Shape=RoundedRectangle|*
%AMROUNDEDRECTD16*
21,1,0.02520,0.01181,0,0,180.0*
21,1,0.01339,0.02362,0,0,180.0*
1,1,0.01181,-0.00669,0.00591*
1,1,0.01181,0.00669,0.00591*
1,1,0.01181,0.00669,-0.00591*
1,1,0.01181,-0.00669,-0.00591*
%
%ADD16ROUNDEDRECTD16*%
%ADD17R,0.06693X0.04331*%
G04:AMPARAMS|DCode=18|XSize=25.2mil|YSize=23.62mil|CornerRadius=5.91mil|HoleSize=0mil|Usage=FLASHONLY|Rotation=90.000|XOffset=0mil|YOffset=0mil|HoleType=Round|Shape=RoundedRectangle|*
%AMROUNDEDRECTD18*
21,1,0.02520,0.01181,0,0,90.0*
21,1,0.01339,0.02362,0,0,90.0*
1,1,0.01181,0.00591,0.00669*
1,1,0.01181,0.00591,-0.00669*
1,1,0.01181,-0.00591,-0.00669*
1,1,0.01181,-0.00591,0.00669*
%
%ADD18ROUNDEDRECTD18*%
%ADD19P,0.13919X4X180.0*%
G04:AMPARAMS|DCode=20|XSize=7.87mil|YSize=29.53mil|CornerRadius=0mil|HoleSize=0mil|Usage=FLASHONLY|Rotation=135.000|XOffset=0mil|YOffset=0mil|HoleType=Round|Shape=Round|*
%AMOVALD20*
21,1,0.02165,0.00787,0.00000,0.00000,225.0*
1,1,0.00787,0.00766,0.00766*
1,1,0.00787,-0.00766,-0.00766*
%
%ADD20OVALD20*%

G04:AMPARAMS|DCode=21|XSize=7.87mil|YSize=29.53mil|CornerRadius=0mil|HoleSize=0mil|Usage=FLASHONLY|Rotation=225.000|XOffset=0mil|YOffset=0mil|HoleType=Round|Shape=Round|*
%AMOVALD21*
21,1,0.02165,0.00787,0.00000,0.00000,315.0*
1,1,0.00787,-0.00766,0.00766*
1,1,0.00787,0.00766,-0.00766*
%
%ADD21OVALD21*%

%ADD22C,0.04000*%
G04:AMPARAMS|DCode=23|XSize=20.47mil|YSize=22.05mil|CornerRadius=5.12mil|HoleSize=0mil|Usage=FLASHONLY|Rotation=0.000|XOffset=0mil|YOffset=0mil|HoleType=Round|Shape=RoundedRectangle|*
%AMROUNDEDRECTD23*
21,1,0.02047,0.01181,0,0,0.0*
21,1,0.01024,0.02205,0,0,0.0*
1,1,0.01024,0.00512,-0.00591*
1,1,0.01024,-0.00512,-0.00591*
1,1,0.01024,-0.00512,0.00591*
1,1,0.01024,0.00512,0.00591*
%
%ADD23ROUNDEDRECTD23*%
%ADD24R,0.09449X0.02992*%
%ADD25R,0.02500X0.02500*%
%ADD26R,0.02165X0.03150*%
G04:AMPARAMS|DCode=27|XSize=20.47mil|YSize=22.05mil|CornerRadius=5.12mil|HoleSize=0mil|Usage=FLASHONLY|Rotation=90.000|XOffset=0mil|YOffset=0mil|HoleType=Round|Shape=RoundedRectangle|*
%AMROUNDEDRECTD27*
21,1,0.02047,0.01181,0,0,90.0*
21,1,0.01024,0.02205,0,0,90.0*
1,1,0.01024,0.00591,0.00512*
1,1,0.01024,0.00591,-0.00512*
1,1,0.01024,-0.00591,-0.00512*
1,1,0.01024,-0.00591,0.00512*
%
%ADD27ROUNDEDRECTD27*%
%ADD28R,0.03543X0.02835*%
%ADD29R,0.02756X0.03347*%
G04:AMPARAMS|DCode=30|XSize=20.47mil|YSize=22.05mil|CornerRadius=5.12mil|HoleSize=0mil|Usage=FLASHONLY|Rotation=135.000|XOffset=0mil|YOffset=0mil|HoleType=Round|Shape=RoundedRectangle|*
%AMROUNDEDRECTD30*
21,1,0.02047,0.01181,0,0,135.0*
21,1,0.01024,0.02205,0,0,135.0*
1,1,0.01024,0.00056,0.00780*
1,1,0.01024,0.00780,0.00056*
1,1,0.01024,-0.00056,-0.00780*
1,1,0.01024,-0.00780,-0.00056*
%
%ADD30ROUNDEDRECTD30*%
D10*
X286000Y452500D02*
X388000D01*
Y293500D02*
Y452500D01*
X286000Y293500D02*
X388000D01*
X286000D02*
Y452500D01*
D11*
X335500Y352000D02*
D03*
D12*
X331563Y359874D02*
D03*
X333531Y359874D02*
D03*
X335500D02*
D03*
X337469D02*
D03*
X339437Y359874D02*
D03*
X343374Y355937D02*
D03*
Y353969D02*
D03*
Y352000D02*
D03*
Y350031D02*
D03*
Y348063D02*
D03*
X339437Y344126D02*
D03*
X337469D02*
D03*
X335500D02*
D03*
X333531D02*
D03*
X331563D02*
D03*
X327626Y348063D02*
D03*
Y350031D02*
D03*
Y352000D02*
D03*
Y353969D02*
D03*
Y355937D02*
D03*
D13*
X335500Y301000D02*
D03*
Y336000D02*
D03*
D14*
Y327161D02*
D03*
Y309839D02*
D03*
D15*
X308000Y356268D02*
D03*
Y364732D02*
D03*
X311000Y301268D02*
D03*
Y309732D02*
D03*
D16*
X319110Y364000D02*
D03*
X322890D02*
D03*
X319110Y360000D02*
D03*
X322890D02*
D03*
D17*
X360500Y337882D02*
D03*
Y348118D02*
D03*
D18*
X317500Y351890D02*
D03*
Y348110D02*
D03*
X321500D02*
D03*
Y351890D02*
D03*
X349000Y360890D02*
D03*
Y357110D02*
D03*
D19*
X336000Y391500D02*
D03*
D20*
X334121Y382104D02*
D03*
X332868Y383357D02*
D03*
X331615Y384610D02*
D03*
X330363Y385863D02*
D03*
X329110Y387115D02*
D03*
X327857Y388368D02*
D03*
X326604Y389621D02*
D03*
X337879Y400896D02*
D03*
X339132Y399643D02*
D03*
X340385Y398390D02*
D03*
X341637Y397137D02*
D03*
X342890Y395885D02*
D03*
X344143Y394632D02*
D03*
X345396Y393379D02*
D03*
D21*
X326604D02*
D03*
X327857Y394632D02*
D03*
X329110Y395885D02*
D03*
X330363Y397137D02*
D03*
X331615Y398390D02*
D03*
X332868Y399643D02*
D03*
X334121Y400896D02*
D03*
X345396Y389621D02*
D03*
X344143Y388368D02*
D03*
X342890Y387115D02*
D03*
X341637Y385863D02*
D03*
X340385Y384610D02*
D03*
X339132Y383357D02*
D03*
X337879Y382104D02*
D03*
D22*
X327000Y378500D02*
D03*
Y372500D02*
D03*
X333000D02*
D03*
X339000D02*
D03*
X345000D02*
D03*
X354000Y380500D02*
D03*
X355000Y388500D02*
D03*
Y393500D02*
D03*
X349500Y400000D02*
D03*
X315000Y383000D02*
D03*
X316000Y370000D02*
D03*
D23*
X361232Y384500D02*
D03*
X357768D02*
D03*
X311621Y377853D02*
D03*
X315086Y377854D02*
D03*
X311621Y374354D02*
D03*
X315086D02*
D03*
X333000Y428000D02*
D03*
X336465D02*
D03*
X329732Y404000D02*
D03*
X326268D02*
D03*
D24*
X380000Y403000D02*
D03*
X365000D02*
D03*
X380000Y408000D02*
D03*
X365000D02*
D03*
X380000Y413000D02*
D03*
X365000D02*
D03*
X380000Y418000D02*
D03*
X365000D02*
D03*
X380000Y423000D02*
D03*
X365000D02*
D03*
X380000Y428000D02*
D03*
X365000D02*
D03*
X308500Y402000D02*
D03*
X293500D02*
D03*
X308500Y407000D02*
D03*
X293500Y407000D02*
D03*
X308500Y412000D02*
D03*
X293500D02*
D03*
X308500Y417000D02*
D03*
X293500D02*
D03*
X308500Y422000D02*
D03*
X293500Y422000D02*
D03*
X308500Y427000D02*
D03*
X293500D02*
D03*
D25*
X319000Y427000D02*
D03*
Y423000D02*
D03*
D26*
X329260Y412579D02*
D03*
X336740Y412579D02*
D03*
X329260Y422421D02*
D03*
X333000Y422421D02*
D03*
X336740Y422421D02*
D03*
D27*
X356000Y415232D02*
D03*
Y411768D02*
D03*
X353000Y415232D02*
D03*
Y411768D02*
D03*
X348000D02*
D03*
Y415232D02*
D03*
D28*
X343000Y412138D02*
D03*
Y416862D02*
D03*
D29*
X332862Y408000D02*
D03*
X328138D02*
D03*
D30*
X344275Y380725D02*
D03*
X346725Y378275D02*
D03*
M02*
