G04*
G04 #@! TF.GenerationSoftware,Altium Limited,Altium Designer,20.0.9 (164)*
G04*
G04 Layer_Color=16711935*
%FSLAX25Y25*%
%MOIN*%
G70*
G01*
G75*
%ADD10C,0.00787*%
%ADD51C,0.06496*%
%ADD52R,0.06496X0.06496*%
%ADD53R,0.06496X0.06496*%
%ADD54C,0.02362*%
%ADD55C,0.04134*%
%ADD56C,0.03740*%
%ADD67C,0.03398*%
D10*
X286000Y452500D02*
X388000D01*
Y293500D02*
Y452500D01*
X286000Y293500D02*
X388000D01*
X286000D02*
Y452500D01*
D51*
X370500Y367000D02*
D03*
X323000Y435000D02*
D03*
X333000D02*
D03*
X343000D02*
D03*
X323000Y447000D02*
D03*
X333000D02*
D03*
X343000D02*
D03*
D52*
X370500Y357000D02*
D03*
D53*
X353000Y435000D02*
D03*
Y447000D02*
D03*
D54*
X356000Y406000D02*
D03*
X302000Y419500D02*
D03*
X315000Y417000D02*
D03*
X373500Y419500D02*
D03*
X337500Y403500D02*
D03*
X315500Y414500D02*
D03*
X373000D02*
D03*
X333000Y403500D02*
D03*
X312500Y364500D02*
D03*
X349500Y409500D02*
D03*
X346500D02*
D03*
X299500Y412000D02*
D03*
Y422000D02*
D03*
X365000Y399500D02*
D03*
X371000Y418000D02*
D03*
Y423000D02*
D03*
Y428000D02*
D03*
X349000Y364000D02*
D03*
X322500Y428000D02*
D03*
X380000Y431000D02*
D03*
X316000Y407000D02*
D03*
X317000Y402000D02*
D03*
X353000Y407500D02*
D03*
X373500Y408000D02*
D03*
X374000Y403000D02*
D03*
X343000Y419500D02*
D03*
X348000Y417500D02*
D03*
X326500Y383500D02*
D03*
X350500Y347500D02*
D03*
X317500Y344000D02*
D03*
X324500Y347500D02*
D03*
Y350000D02*
D03*
X321500Y345500D02*
D03*
X319000Y367500D02*
D03*
X324000Y375500D02*
D03*
X317500Y374500D02*
D03*
X309000Y374000D02*
D03*
X323899Y403823D02*
D03*
X327500Y399000D02*
D03*
X342500Y379000D02*
D03*
X348500Y376500D02*
D03*
X345500Y383500D02*
D03*
D55*
X304000Y301500D02*
D03*
X332500Y349500D02*
D03*
X338000D02*
D03*
Y355000D02*
D03*
X332500D02*
D03*
X301000Y356000D02*
D03*
X324000Y419000D02*
D03*
D56*
X340000Y428000D02*
D03*
X333000Y418500D02*
D03*
X327000Y342500D02*
D03*
X360500Y332500D02*
D03*
X304500Y309500D02*
D03*
D67*
X336000Y394841D02*
D03*
X339341Y391500D02*
D03*
X332659D02*
D03*
X336000Y388159D02*
D03*
M02*
