M48
;Layer_Color=9474304
;FILE_FORMAT=2:5
INCH,LZ
;TYPE=PLATED
T1F00S00C0.01181
T2F00S00C0.03937
%
T01
X0326Y02415
X03295Y0240181
X03245Y02485
X0328Y02645
X0328Y027
X03195Y027
Y02645
X0344256Y02525
X0355
X03595Y0255965
Y0273
X0352291Y0273917
X0360611Y0280681
X0358681Y02995
X0346819
X0375744Y03085
X0402Y03105
X04025Y0295
X03985Y0285
X0398604Y0273604
X03945Y02495
X04045
X04035Y0235
X0397767Y0239233
X03855Y02405
X0315Y0311181
X0307Y02955
X0284Y02965
Y02865
Y03065
Y02655
Y0255
Y02455
Y02355
X0299Y02325
X0294724Y025
X0309957Y0259957
Y0274043
X0304Y03355
X02935Y03285
X02815
X02835Y03375
X0284Y03475
Y03575
Y03675
Y03875
Y0398
Y04075
Y04175
Y03165
X0314Y0335
X03335Y0338
X0330252Y0326819
X0343Y0326
X0346542Y0330042
X0341624Y0318624
X03315Y0313
X0377Y03245
Y03365
X0372497Y0349328
X0372563Y035269
X0372521Y0356066
X0375172Y0358747
X0360004Y0359581
X0359819Y0356224
Y0352862
Y03495
X03485Y0363
Y03695
X03425Y03865
Y0392
X0334
Y03865
X0324957Y0381957
X0325Y0396
X0325256Y0412756
X03155Y04225
X0348
X03745Y0403
X0381Y0391
X03995Y0403
X04Y03755
X03925Y03635
X0402Y0327
T02
X03755Y02495
X03855
Y02595
Y02695
Y02795
Y02895
X03755
Y02995
X03855Y02995
X03755Y02795
Y02695
Y02595
X02525Y02555
Y02455
Y02355
X02425
X02325
X02325Y02455
X02425
X02425Y02555
X02325
X02325Y02655
X02425
X02525
Y02865
Y02965
X02425
Y02865
X02325
Y02965
Y03065
X02425
X02525
Y03165
X02425
X02325Y03165
Y03375
X02425
X02525
Y03475
X02425
X02325
Y03575
X02425
X02525
Y03675
X02425
X02325
Y03875
X02425
Y03975
X02325
Y04075
Y04175
X02425Y04175
Y04075
X02525
Y03975
X02525Y03875
X02525Y04175
M30
