G04*
G04 #@! TF.GenerationSoftware,Altium Limited,Altium Designer,21.7.2 (23)*
G04*
G04 Layer_Color=8421504*
%FSLAX44Y44*%
%MOMM*%
G71*
G04*
G04 #@! TF.SameCoordinates,D8B0C331-9F13-42D9-86B2-76A37CFF7907*
G04*
G04*
G04 #@! TF.FilePolarity,Positive*
G04*
G01*
G75*
%ADD10R,0.6350X0.6350*%
%ADD11O,0.4500X1.4500*%
G04:AMPARAMS|DCode=12|XSize=1.05mm|YSize=0.9mm|CornerRadius=0.045mm|HoleSize=0mm|Usage=FLASHONLY|Rotation=0.000|XOffset=0mm|YOffset=0mm|HoleType=Round|Shape=RoundedRectangle|*
%AMROUNDEDRECTD12*
21,1,1.0500,0.8100,0,0,0.0*
21,1,0.9600,0.9000,0,0,0.0*
1,1,0.0900,0.4800,-0.4050*
1,1,0.0900,-0.4800,-0.4050*
1,1,0.0900,-0.4800,0.4050*
1,1,0.0900,0.4800,0.4050*
%
%ADD12ROUNDEDRECTD12*%
%ADD13R,0.9000X2.1500*%
%ADD14R,3.2000X2.1500*%
%ADD15O,0.2500X0.8000*%
%ADD16O,0.8000X0.2500*%
G04:AMPARAMS|DCode=17|XSize=1.1mm|YSize=0.92mm|CornerRadius=0.046mm|HoleSize=0mm|Usage=FLASHONLY|Rotation=0.000|XOffset=0mm|YOffset=0mm|HoleType=Round|Shape=RoundedRectangle|*
%AMROUNDEDRECTD17*
21,1,1.1000,0.8280,0,0,0.0*
21,1,1.0080,0.9200,0,0,0.0*
1,1,0.0920,0.5040,-0.4140*
1,1,0.0920,-0.5040,-0.4140*
1,1,0.0920,-0.5040,0.4140*
1,1,0.0920,0.5040,0.4140*
%
%ADD17ROUNDEDRECTD17*%
G04:AMPARAMS|DCode=18|XSize=1.05mm|YSize=0.9mm|CornerRadius=0.045mm|HoleSize=0mm|Usage=FLASHONLY|Rotation=270.000|XOffset=0mm|YOffset=0mm|HoleType=Round|Shape=RoundedRectangle|*
%AMROUNDEDRECTD18*
21,1,1.0500,0.8100,0,0,270.0*
21,1,0.9600,0.9000,0,0,270.0*
1,1,0.0900,-0.4050,-0.4800*
1,1,0.0900,-0.4050,0.4800*
1,1,0.0900,0.4050,0.4800*
1,1,0.0900,0.4050,-0.4800*
%
%ADD18ROUNDEDRECTD18*%
G04:AMPARAMS|DCode=19|XSize=1.1mm|YSize=0.92mm|CornerRadius=0.046mm|HoleSize=0mm|Usage=FLASHONLY|Rotation=270.000|XOffset=0mm|YOffset=0mm|HoleType=Round|Shape=RoundedRectangle|*
%AMROUNDEDRECTD19*
21,1,1.1000,0.8280,0,0,270.0*
21,1,1.0080,0.9200,0,0,270.0*
1,1,0.0920,-0.4140,-0.5040*
1,1,0.0920,-0.4140,0.5040*
1,1,0.0920,0.4140,0.5040*
1,1,0.0920,0.4140,-0.5040*
%
%ADD19ROUNDEDRECTD19*%
G04:AMPARAMS|DCode=20|XSize=1.05mm|YSize=0.9mm|CornerRadius=0.045mm|HoleSize=0mm|Usage=FLASHONLY|Rotation=45.000|XOffset=0mm|YOffset=0mm|HoleType=Round|Shape=RoundedRectangle|*
%AMROUNDEDRECTD20*
21,1,1.0500,0.8100,0,0,45.0*
21,1,0.9600,0.9000,0,0,45.0*
1,1,0.0900,0.6258,0.0530*
1,1,0.0900,-0.0530,-0.6258*
1,1,0.0900,-0.6258,-0.0530*
1,1,0.0900,0.0530,0.6258*
%
%ADD20ROUNDEDRECTD20*%
%ADD21R,1.9500X1.2500*%
D10*
X816628Y631190D02*
D03*
X806468D02*
D03*
X820420Y613410D02*
D03*
X810260D02*
D03*
X868042Y922020D02*
D03*
X878202D02*
D03*
X868042Y938530D02*
D03*
X878202D02*
D03*
X734664Y834401D02*
D03*
X724504D02*
D03*
D11*
X812390Y958560D02*
D03*
X818890D02*
D03*
X774290Y648680D02*
D03*
X780790D02*
D03*
X831890Y1017560D02*
D03*
X825390D02*
D03*
X818890D02*
D03*
X812390D02*
D03*
X805890D02*
D03*
X799390D02*
D03*
X792890D02*
D03*
X786390D02*
D03*
X779890D02*
D03*
X773390D02*
D03*
X831890Y958560D02*
D03*
X825390D02*
D03*
X805890D02*
D03*
X799390D02*
D03*
X792890D02*
D03*
X786390D02*
D03*
X779890D02*
D03*
X773390D02*
D03*
X793790Y707680D02*
D03*
X787290D02*
D03*
X780790D02*
D03*
X774290D02*
D03*
X767790D02*
D03*
X761290D02*
D03*
X754790D02*
D03*
X748290D02*
D03*
X741790D02*
D03*
X735290D02*
D03*
X793790Y648680D02*
D03*
X787290D02*
D03*
X767790D02*
D03*
X761290D02*
D03*
X754790D02*
D03*
X748290D02*
D03*
X741790D02*
D03*
X735290D02*
D03*
D12*
X838200Y929640D02*
D03*
X777240Y626760D02*
D03*
Y612760D02*
D03*
X1002030Y644510D02*
D03*
Y658510D02*
D03*
X925830Y1018570D02*
D03*
Y1004570D02*
D03*
X838200Y915640D02*
D03*
D13*
X980580Y868720D02*
D03*
X957580Y868720D02*
D03*
X934580Y868720D02*
D03*
D14*
X957580Y810220D02*
D03*
D15*
X797760Y802190D02*
D03*
X802760D02*
D03*
X807760D02*
D03*
X812760D02*
D03*
X817760D02*
D03*
X822760D02*
D03*
X822760Y841190D02*
D03*
X817760D02*
D03*
X812760D02*
D03*
X807760D02*
D03*
X802760D02*
D03*
X797760D02*
D03*
D16*
X829760Y809190D02*
D03*
Y814190D02*
D03*
Y819190D02*
D03*
Y824190D02*
D03*
Y829190D02*
D03*
Y834190D02*
D03*
X790760Y834190D02*
D03*
Y829190D02*
D03*
Y824190D02*
D03*
Y819190D02*
D03*
Y814190D02*
D03*
Y809190D02*
D03*
D17*
X869950Y1017920D02*
D03*
X848360D02*
D03*
X869950Y958850D02*
D03*
X848360D02*
D03*
X833120Y708040D02*
D03*
X811530D02*
D03*
Y648970D02*
D03*
X833120D02*
D03*
X779780Y728330D02*
D03*
Y742330D02*
D03*
X833120Y662970D02*
D03*
X811530Y694040D02*
D03*
Y662970D02*
D03*
X833120Y694040D02*
D03*
X852170Y795640D02*
D03*
Y809640D02*
D03*
X772160Y843280D02*
D03*
Y829280D02*
D03*
X848360Y972850D02*
D03*
X869950D02*
D03*
X848360Y1003920D02*
D03*
X869950D02*
D03*
X816610Y1048400D02*
D03*
Y1034400D02*
D03*
D18*
X890890Y1018540D02*
D03*
X683910Y1060450D02*
D03*
Y1035050D02*
D03*
Y1010920D02*
D03*
Y984250D02*
D03*
Y933450D02*
D03*
Y908050D02*
D03*
X683910Y882650D02*
D03*
X683910Y857250D02*
D03*
X912480Y737870D02*
D03*
X890890Y958850D02*
D03*
X852790Y707390D02*
D03*
X683910Y803910D02*
D03*
Y778510D02*
D03*
Y753110D02*
D03*
Y727710D02*
D03*
Y674370D02*
D03*
Y647700D02*
D03*
Y623570D02*
D03*
Y598170D02*
D03*
X912480Y723900D02*
D03*
X852790Y648970D02*
D03*
X669910Y623570D02*
D03*
Y647700D02*
D03*
Y674370D02*
D03*
Y727710D02*
D03*
Y753110D02*
D03*
Y778510D02*
D03*
Y803910D02*
D03*
Y857250D02*
D03*
Y882650D02*
D03*
Y908050D02*
D03*
Y933450D02*
D03*
Y984250D02*
D03*
Y1010920D02*
D03*
Y1035050D02*
D03*
Y1060450D02*
D03*
Y598170D02*
D03*
X866790Y648970D02*
D03*
Y685800D02*
D03*
X852790D02*
D03*
X866790Y707390D02*
D03*
X926480Y737870D02*
D03*
Y723900D02*
D03*
Y684530D02*
D03*
X912480D02*
D03*
Y633730D02*
D03*
X926480D02*
D03*
X926480Y659130D02*
D03*
X912480D02*
D03*
X1016650Y684530D02*
D03*
X1002650D02*
D03*
X1016650Y708660D02*
D03*
X1002650Y708660D02*
D03*
X904890Y958850D02*
D03*
X982360Y967740D02*
D03*
X968360D02*
D03*
Y984250D02*
D03*
X982360D02*
D03*
X904890Y1018540D02*
D03*
D19*
X698570Y1060450D02*
D03*
Y1035050D02*
D03*
Y1010920D02*
D03*
Y984250D02*
D03*
Y933450D02*
D03*
Y908050D02*
D03*
Y882650D02*
D03*
Y857250D02*
D03*
Y803910D02*
D03*
Y778510D02*
D03*
Y753110D02*
D03*
Y727710D02*
D03*
Y674370D02*
D03*
Y647700D02*
D03*
Y623570D02*
D03*
Y598170D02*
D03*
X712570Y623570D02*
D03*
X712570Y647700D02*
D03*
X712570Y674370D02*
D03*
X712570Y727710D02*
D03*
X712570Y753110D02*
D03*
X712570Y778510D02*
D03*
Y803910D02*
D03*
Y857250D02*
D03*
Y882650D02*
D03*
Y908050D02*
D03*
Y933450D02*
D03*
Y984250D02*
D03*
Y1010920D02*
D03*
Y1035050D02*
D03*
Y1060450D02*
D03*
Y598170D02*
D03*
X962630Y783590D02*
D03*
X976630D02*
D03*
X848980Y828040D02*
D03*
X862980D02*
D03*
X823580Y858520D02*
D03*
X837580D02*
D03*
X968360Y946150D02*
D03*
X982360D02*
D03*
D20*
X811790Y931919D02*
D03*
X821690Y922020D02*
D03*
D21*
X958030Y923290D02*
D03*
X982530D02*
D03*
M02*
