G04*
G04 #@! TF.GenerationSoftware,Altium Limited,Altium Designer,21.7.2 (23)*
G04*
G04 Layer_Physical_Order=2*
G04 Layer_Color=16711680*
%FSLAX44Y44*%
%MOMM*%
G71*
G04*
G04 #@! TF.SameCoordinates,D8B0C331-9F13-42D9-86B2-76A37CFF7907*
G04*
G04*
G04 #@! TF.FilePolarity,Positive*
G04*
G01*
G75*
%ADD36C,0.2540*%
%ADD38C,1.7500*%
%ADD39C,0.6000*%
G36*
X1037590Y582930D02*
X754380D01*
X748030Y589280D01*
Y629460D01*
X749702D01*
X751738Y630303D01*
X752550Y631115D01*
X775226D01*
X802488Y603853D01*
X803748Y603011D01*
X805235Y602715D01*
X832534D01*
X834020Y603011D01*
X835281Y603853D01*
X835947Y604520D01*
X838032D01*
X840068Y605363D01*
X841627Y606922D01*
X842470Y608958D01*
Y611162D01*
X841627Y613198D01*
X840068Y614757D01*
X838032Y615600D01*
X835828D01*
X833792Y614757D01*
X832233Y613198D01*
X831390Y611162D01*
Y610950D01*
X830925Y610485D01*
X806844D01*
X779582Y637747D01*
X778322Y638589D01*
X776835Y638885D01*
X752550D01*
X751738Y639697D01*
X749702Y640540D01*
X748030D01*
Y668020D01*
X756920Y676910D01*
X862330D01*
Y687070D01*
X878840Y703580D01*
Y715010D01*
X825500Y768350D01*
X783590D01*
X731520Y820420D01*
Y857250D01*
X786130Y911860D01*
Y975360D01*
X797560Y986790D01*
X906780D01*
X916940Y996950D01*
Y1083310D01*
X1037590D01*
Y582930D01*
D02*
G37*
G36*
X913130Y998220D02*
X905510Y990600D01*
X792480D01*
X782320Y980440D01*
Y913130D01*
X727710Y858520D01*
Y819150D01*
X782320Y764540D01*
X822960D01*
X875030Y712470D01*
Y703580D01*
X868680Y697230D01*
X863600D01*
X858520Y692150D01*
Y681990D01*
X857250Y680720D01*
X755650D01*
X744220Y669290D01*
Y638455D01*
X743903Y638138D01*
X743060Y636102D01*
Y633898D01*
X743903Y631862D01*
X744220Y631545D01*
Y589280D01*
X737870Y582930D01*
X575310D01*
Y1083310D01*
X913130D01*
Y998220D01*
D02*
G37*
%LPC*%
G36*
X915513Y918877D02*
X913309D01*
X911273Y918034D01*
X909715Y916475D01*
X908871Y914439D01*
Y912235D01*
X909715Y910199D01*
X910604Y909309D01*
X909243Y907948D01*
X908400Y905912D01*
Y903708D01*
X909243Y901672D01*
X910375Y900540D01*
X909243Y899408D01*
X908400Y897372D01*
Y895168D01*
X909243Y893132D01*
X910375Y892000D01*
X909243Y890868D01*
X908400Y888832D01*
Y886628D01*
X909243Y884592D01*
X910802Y883033D01*
X912838Y882190D01*
X915042D01*
X917078Y883033D01*
X917672Y883627D01*
X941973D01*
X943003Y882597D01*
X945039Y881753D01*
X947243D01*
X949279Y882597D01*
X950838Y884155D01*
X951681Y886191D01*
Y888395D01*
X950838Y890432D01*
X949791Y891478D01*
X951007Y892694D01*
X951851Y894730D01*
Y896934D01*
X951007Y898970D01*
X949804Y900173D01*
X950900Y901269D01*
X951743Y903305D01*
Y904503D01*
X951822Y905520D01*
X952916Y905677D01*
X954038D01*
X956074Y906520D01*
X957633Y908079D01*
X958476Y910115D01*
Y912319D01*
X957633Y914355D01*
X956074Y915913D01*
X954038Y916757D01*
X951834D01*
X951702Y916702D01*
X951366Y916926D01*
X949880Y917222D01*
X918362D01*
X917550Y918034D01*
X915513Y918877D01*
D02*
G37*
G36*
X980656Y772020D02*
X980440D01*
Y762000D01*
X990460D01*
Y762216D01*
X989691Y765088D01*
X988204Y767662D01*
X986102Y769764D01*
X983528Y771251D01*
X980656Y772020D01*
D02*
G37*
G36*
X977900D02*
X977684D01*
X974812Y771251D01*
X972238Y769764D01*
X970136Y767662D01*
X968649Y765088D01*
X967880Y762216D01*
Y762000D01*
X977900D01*
Y772020D01*
D02*
G37*
G36*
X881318Y843846D02*
X879114D01*
X877078Y843002D01*
X875519Y841444D01*
X874676Y839408D01*
Y837204D01*
X875519Y835168D01*
X876331Y834356D01*
Y823405D01*
X867772Y814846D01*
X866624D01*
X864588Y814003D01*
X863029Y812444D01*
X862186Y810408D01*
Y808204D01*
X863029Y806168D01*
X864588Y804609D01*
X866624Y803766D01*
X867772D01*
X877035Y794503D01*
Y764680D01*
X876223Y763868D01*
X875380Y761832D01*
Y759628D01*
X876223Y757592D01*
X877782Y756033D01*
X879818Y755190D01*
X882022D01*
X884058Y756033D01*
X884870Y756845D01*
X907100D01*
X907912Y756033D01*
X909948Y755190D01*
X912152D01*
X914188Y756033D01*
X915747Y757592D01*
X916590Y759628D01*
Y761832D01*
X915747Y763868D01*
X914188Y765427D01*
X912152Y766270D01*
X909948D01*
X907912Y765427D01*
X907100Y764615D01*
X884870D01*
X884805Y764680D01*
Y796112D01*
X884509Y797598D01*
X883667Y798859D01*
X873266Y809260D01*
Y809352D01*
X882963Y819049D01*
X883805Y820309D01*
X884100Y821796D01*
Y834356D01*
X884912Y835168D01*
X885756Y837204D01*
Y839408D01*
X884912Y841444D01*
X883354Y843002D01*
X881318Y843846D01*
D02*
G37*
G36*
X990460Y759460D02*
X980440D01*
Y749440D01*
X980656D01*
X983528Y750209D01*
X986102Y751696D01*
X988204Y753798D01*
X989691Y756372D01*
X990460Y759244D01*
Y759460D01*
D02*
G37*
G36*
X977900D02*
X967880D01*
Y759244D01*
X968649Y756372D01*
X970136Y753798D01*
X972238Y751696D01*
X974812Y750209D01*
X977684Y749440D01*
X977900D01*
Y759460D01*
D02*
G37*
G36*
X955256Y772020D02*
X952284D01*
X949412Y771251D01*
X946838Y769764D01*
X944736Y767662D01*
X943249Y765088D01*
X942480Y762216D01*
Y759244D01*
X943249Y756372D01*
X944736Y753798D01*
X946838Y751696D01*
X949412Y750209D01*
X952284Y749440D01*
X955256D01*
X958128Y750209D01*
X960702Y751696D01*
X962804Y753798D01*
X964291Y756372D01*
X965060Y759244D01*
Y762216D01*
X964291Y765088D01*
X962804Y767662D01*
X960702Y769764D01*
X958128Y771251D01*
X955256Y772020D01*
D02*
G37*
G36*
X980656Y746620D02*
X977684D01*
X974812Y745851D01*
X972238Y744364D01*
X970136Y742262D01*
X968649Y739688D01*
X967880Y736816D01*
Y733844D01*
X968649Y730972D01*
X970136Y728398D01*
X972238Y726296D01*
X974812Y724809D01*
X977684Y724040D01*
X980656D01*
X983528Y724809D01*
X986102Y726296D01*
X988204Y728398D01*
X989691Y730972D01*
X990460Y733844D01*
Y736816D01*
X989691Y739688D01*
X988204Y742262D01*
X986102Y744364D01*
X983528Y745851D01*
X980656Y746620D01*
D02*
G37*
G36*
X955256D02*
X952284D01*
X949412Y745851D01*
X946838Y744364D01*
X944736Y742262D01*
X943249Y739688D01*
X942480Y736816D01*
Y733844D01*
X943249Y730972D01*
X944736Y728398D01*
X946838Y726296D01*
X949412Y724809D01*
X952284Y724040D01*
X955256D01*
X958128Y724809D01*
X960702Y726296D01*
X962804Y728398D01*
X964291Y730972D01*
X965060Y733844D01*
Y736816D01*
X964291Y739688D01*
X962804Y742262D01*
X960702Y744364D01*
X958128Y745851D01*
X955256Y746620D01*
D02*
G37*
G36*
X917053Y718470D02*
X914849D01*
X912813Y717627D01*
X911339Y716153D01*
X909852Y715857D01*
X908592Y715015D01*
X894866Y701289D01*
X893718D01*
X891682Y700446D01*
X890123Y698887D01*
X889280Y696851D01*
Y694647D01*
X890123Y692611D01*
X891682Y691053D01*
X893718Y690209D01*
X895922D01*
X897958Y691053D01*
X899517Y692611D01*
X900360Y694647D01*
Y695796D01*
X912805Y708241D01*
X912813Y708233D01*
X914849Y707390D01*
X917053D01*
X919089Y708233D01*
X920647Y709792D01*
X921491Y711828D01*
Y714032D01*
X920647Y716068D01*
X919089Y717627D01*
X917053Y718470D01*
D02*
G37*
G36*
X955256Y721220D02*
X952284D01*
X949412Y720451D01*
X946838Y718964D01*
X944736Y716862D01*
X943249Y714288D01*
X942480Y711416D01*
Y708444D01*
X943249Y705572D01*
X944736Y702998D01*
X946838Y700896D01*
X949412Y699409D01*
X952284Y698640D01*
X955256D01*
X958128Y699409D01*
X960702Y700896D01*
X962804Y702998D01*
X964291Y705572D01*
X965060Y708444D01*
Y711416D01*
X964291Y714288D01*
X962804Y716862D01*
X960702Y718964D01*
X958128Y720451D01*
X955256Y721220D01*
D02*
G37*
G36*
X980656Y721220D02*
X977684D01*
X974812Y720451D01*
X972238Y718964D01*
X970136Y716862D01*
X968649Y714288D01*
X967880Y711416D01*
Y708444D01*
X968649Y705572D01*
X970136Y702998D01*
X972238Y700896D01*
X974812Y699409D01*
X977684Y698640D01*
X980656D01*
X983528Y699409D01*
X986102Y700896D01*
X988204Y702998D01*
X989691Y705572D01*
X990460Y708444D01*
Y711416D01*
X989691Y714288D01*
X988204Y716862D01*
X986102Y718964D01*
X983528Y720451D01*
X980656Y721220D01*
D02*
G37*
G36*
X1013292Y729440D02*
X1011088D01*
X1009052Y728597D01*
X1007493Y727038D01*
X1006650Y725002D01*
Y723854D01*
X1005958Y723162D01*
X1005116Y721902D01*
X1004820Y720415D01*
Y698704D01*
X1005116Y697218D01*
X1005958Y695957D01*
X1006915Y695001D01*
Y693853D01*
X1007758Y691816D01*
X1009316Y690258D01*
X1011353Y689415D01*
X1013557D01*
X1015593Y690258D01*
X1017151Y691816D01*
X1017995Y693853D01*
Y696057D01*
X1017151Y698093D01*
X1015593Y699651D01*
X1013557Y700495D01*
X1012590D01*
Y718360D01*
X1013292D01*
X1015328Y719203D01*
X1016887Y720762D01*
X1017730Y722798D01*
Y725002D01*
X1016887Y727038D01*
X1015328Y728597D01*
X1013292Y729440D01*
D02*
G37*
G36*
X980656Y695820D02*
X977684D01*
X974812Y695051D01*
X972238Y693564D01*
X970136Y691462D01*
X968649Y688888D01*
X967880Y686016D01*
Y683044D01*
X968649Y680172D01*
X970136Y677598D01*
X972238Y675496D01*
X974812Y674009D01*
X977684Y673240D01*
X980656D01*
X983528Y674009D01*
X986102Y675496D01*
X988204Y677598D01*
X989691Y680172D01*
X990460Y683044D01*
Y686016D01*
X989691Y688888D01*
X988204Y691462D01*
X986102Y693564D01*
X983528Y695051D01*
X980656Y695820D01*
D02*
G37*
G36*
X955256D02*
X952284D01*
X949412Y695051D01*
X946838Y693564D01*
X944736Y691462D01*
X943249Y688888D01*
X942480Y686016D01*
Y683044D01*
X943249Y680172D01*
X944736Y677598D01*
X946838Y675496D01*
X949412Y674009D01*
X952284Y673240D01*
X955256D01*
X958128Y674009D01*
X960702Y675496D01*
X962804Y677598D01*
X964291Y680172D01*
X965060Y683044D01*
Y686016D01*
X964291Y688888D01*
X962804Y691462D01*
X960702Y693564D01*
X958128Y695051D01*
X955256Y695820D01*
D02*
G37*
G36*
Y670420D02*
X952284D01*
X949412Y669651D01*
X946838Y668164D01*
X944736Y666062D01*
X943249Y663488D01*
X942480Y660616D01*
Y657644D01*
X943249Y654772D01*
X944736Y652198D01*
X946838Y650096D01*
X949412Y648609D01*
X952284Y647840D01*
X955256D01*
X958128Y648609D01*
X960702Y650096D01*
X962804Y652198D01*
X964291Y654772D01*
X965060Y657644D01*
Y660616D01*
X964291Y663488D01*
X962804Y666062D01*
X960702Y668164D01*
X958128Y669651D01*
X955256Y670420D01*
D02*
G37*
G36*
X980656Y670420D02*
X977684D01*
X974812Y669651D01*
X972238Y668164D01*
X970136Y666062D01*
X968649Y663488D01*
X967880Y660616D01*
Y657644D01*
X968649Y654772D01*
X970136Y652198D01*
X972238Y650096D01*
X974812Y648609D01*
X977684Y647840D01*
X980656D01*
X983528Y648609D01*
X986102Y650096D01*
X988204Y652198D01*
X989691Y654772D01*
X990460Y657644D01*
Y660616D01*
X989691Y663488D01*
X988204Y666062D01*
X986102Y668164D01*
X983528Y669651D01*
X980656Y670420D01*
D02*
G37*
G36*
X914232Y655690D02*
X912028D01*
X909992Y654847D01*
X908433Y653288D01*
X908344Y653072D01*
X907091Y652235D01*
X901746Y646890D01*
X900598D01*
X898562Y646047D01*
X897750Y645235D01*
X878360D01*
X877548Y646047D01*
X875512Y646890D01*
X873308D01*
X871272Y646047D01*
X869713Y644488D01*
X868870Y642452D01*
Y640248D01*
X869713Y638212D01*
X871272Y636653D01*
X873308Y635810D01*
X875512D01*
X877548Y636653D01*
X878360Y637465D01*
X897750D01*
X898562Y636653D01*
X900598Y635810D01*
X902802D01*
X904838Y636653D01*
X906397Y638212D01*
X907240Y640248D01*
Y641396D01*
X910915Y645071D01*
X912028Y644610D01*
X914232D01*
X916268Y645453D01*
X917827Y647012D01*
X918670Y649048D01*
Y651252D01*
X917827Y653288D01*
X916268Y654847D01*
X914232Y655690D01*
D02*
G37*
G36*
X1028532Y639270D02*
X1026328D01*
X1024292Y638427D01*
X1023480Y637615D01*
X1005980D01*
X1005168Y638427D01*
X1003132Y639270D01*
X1000928D01*
X998892Y638427D01*
X997333Y636868D01*
X996490Y634832D01*
Y632628D01*
X997333Y630592D01*
X998892Y629033D01*
X1000928Y628190D01*
X1003132D01*
X1005168Y629033D01*
X1005980Y629845D01*
X1023480D01*
X1024292Y629033D01*
X1026328Y628190D01*
X1028532D01*
X1030568Y629033D01*
X1032127Y630592D01*
X1032970Y632628D01*
Y634832D01*
X1032127Y636868D01*
X1030568Y638427D01*
X1028532Y639270D01*
D02*
G37*
G36*
X980656Y645020D02*
X977684D01*
X974812Y644251D01*
X972238Y642764D01*
X970136Y640662D01*
X968649Y638088D01*
X967880Y635216D01*
Y632244D01*
X968649Y629372D01*
X970136Y626798D01*
X972238Y624696D01*
X974812Y623209D01*
X977684Y622440D01*
X980656D01*
X983528Y623209D01*
X986102Y624696D01*
X988204Y626798D01*
X989691Y629372D01*
X990460Y632244D01*
Y635216D01*
X989691Y638088D01*
X988204Y640662D01*
X986102Y642764D01*
X983528Y644251D01*
X980656Y645020D01*
D02*
G37*
G36*
X955256D02*
X952284D01*
X949412Y644251D01*
X946838Y642764D01*
X944736Y640662D01*
X943249Y638088D01*
X942480Y635216D01*
Y632244D01*
X943249Y629372D01*
X944736Y626798D01*
X946838Y624696D01*
X949412Y623209D01*
X952284Y622440D01*
X955256D01*
X958128Y623209D01*
X960702Y624696D01*
X962804Y626798D01*
X964291Y629372D01*
X965060Y632244D01*
Y635216D01*
X964291Y638088D01*
X962804Y640662D01*
X960702Y642764D01*
X958128Y644251D01*
X955256Y645020D01*
D02*
G37*
G36*
X980272Y616410D02*
X978068D01*
X976032Y615567D01*
X974473Y614008D01*
X973630Y611972D01*
Y609768D01*
X974473Y607732D01*
X976032Y606173D01*
X978068Y605330D01*
X980153D01*
X980578Y604905D01*
X981838Y604062D01*
X983325Y603767D01*
X1006378D01*
X1007190Y602955D01*
X1009227Y602112D01*
X1011431D01*
X1013467Y602955D01*
X1015025Y604513D01*
X1015869Y606549D01*
Y608753D01*
X1015025Y610790D01*
X1013467Y612348D01*
X1011431Y613191D01*
X1009227D01*
X1007190Y612348D01*
X1006378Y611536D01*
X984934D01*
X984710Y611760D01*
Y611972D01*
X983867Y614008D01*
X982308Y615567D01*
X980272Y616410D01*
D02*
G37*
G36*
X642836Y1071740D02*
X642620D01*
Y1061720D01*
X652640D01*
Y1061936D01*
X651871Y1064808D01*
X650384Y1067382D01*
X648282Y1069484D01*
X645708Y1070971D01*
X642836Y1071740D01*
D02*
G37*
G36*
X640080D02*
X639864D01*
X636992Y1070971D01*
X634418Y1069484D01*
X632316Y1067382D01*
X630829Y1064808D01*
X630060Y1061936D01*
Y1061720D01*
X640080D01*
Y1071740D01*
D02*
G37*
G36*
X652640Y1059180D02*
X642620D01*
Y1049160D01*
X642836D01*
X645708Y1049929D01*
X648282Y1051416D01*
X650384Y1053518D01*
X651871Y1056092D01*
X652640Y1058964D01*
Y1059180D01*
D02*
G37*
G36*
X640080D02*
X630060D01*
Y1058964D01*
X630829Y1056092D01*
X632316Y1053518D01*
X634418Y1051416D01*
X636992Y1049929D01*
X639864Y1049160D01*
X640080D01*
Y1059180D01*
D02*
G37*
G36*
X617436Y1071740D02*
X614464D01*
X611592Y1070971D01*
X609018Y1069484D01*
X606916Y1067382D01*
X605429Y1064808D01*
X604660Y1061936D01*
Y1058964D01*
X605429Y1056092D01*
X606916Y1053518D01*
X609018Y1051416D01*
X611592Y1049929D01*
X614464Y1049160D01*
X617436D01*
X620308Y1049929D01*
X622882Y1051416D01*
X624984Y1053518D01*
X626471Y1056092D01*
X627240Y1058964D01*
Y1061936D01*
X626471Y1064808D01*
X624984Y1067382D01*
X622882Y1069484D01*
X620308Y1070971D01*
X617436Y1071740D01*
D02*
G37*
G36*
X592036Y1071740D02*
X589064D01*
X586192Y1070971D01*
X583618Y1069484D01*
X581516Y1067382D01*
X580029Y1064808D01*
X579260Y1061936D01*
Y1058964D01*
X580029Y1056092D01*
X581516Y1053518D01*
X583618Y1051416D01*
X586192Y1049929D01*
X589064Y1049160D01*
X592036D01*
X594908Y1049929D01*
X597482Y1051416D01*
X599584Y1053518D01*
X601071Y1056092D01*
X601840Y1058964D01*
Y1061936D01*
X601071Y1064808D01*
X599584Y1067382D01*
X597482Y1069484D01*
X594908Y1070971D01*
X592036Y1071740D01*
D02*
G37*
G36*
X642836Y1046340D02*
X642620D01*
Y1036320D01*
X652640D01*
Y1036536D01*
X651871Y1039408D01*
X650384Y1041982D01*
X648282Y1044084D01*
X645708Y1045571D01*
X642836Y1046340D01*
D02*
G37*
G36*
X640080D02*
X639864D01*
X636992Y1045571D01*
X634418Y1044084D01*
X632316Y1041982D01*
X630829Y1039408D01*
X630060Y1036536D01*
Y1036320D01*
X640080D01*
Y1046340D01*
D02*
G37*
G36*
X652640Y1033780D02*
X642620D01*
Y1023760D01*
X642836D01*
X645708Y1024529D01*
X648282Y1026016D01*
X650384Y1028118D01*
X651871Y1030692D01*
X652640Y1033564D01*
Y1033780D01*
D02*
G37*
G36*
X640080D02*
X630060D01*
Y1033564D01*
X630829Y1030692D01*
X632316Y1028118D01*
X634418Y1026016D01*
X636992Y1024529D01*
X639864Y1023760D01*
X640080D01*
Y1033780D01*
D02*
G37*
G36*
X617436Y1046340D02*
X614464D01*
X611592Y1045571D01*
X609018Y1044084D01*
X606916Y1041982D01*
X605429Y1039408D01*
X604660Y1036536D01*
Y1033564D01*
X605429Y1030692D01*
X606916Y1028118D01*
X609018Y1026016D01*
X611592Y1024529D01*
X614464Y1023760D01*
X617436D01*
X620308Y1024529D01*
X622882Y1026016D01*
X624984Y1028118D01*
X626471Y1030692D01*
X627240Y1033564D01*
Y1036536D01*
X626471Y1039408D01*
X624984Y1041982D01*
X622882Y1044084D01*
X620308Y1045571D01*
X617436Y1046340D01*
D02*
G37*
G36*
X592036D02*
X589064D01*
X586192Y1045571D01*
X583618Y1044084D01*
X581516Y1041982D01*
X580029Y1039408D01*
X579260Y1036536D01*
Y1033564D01*
X580029Y1030692D01*
X581516Y1028118D01*
X583618Y1026016D01*
X586192Y1024529D01*
X589064Y1023760D01*
X592036D01*
X594908Y1024529D01*
X597482Y1026016D01*
X599584Y1028118D01*
X601071Y1030692D01*
X601840Y1033564D01*
Y1036536D01*
X601071Y1039408D01*
X599584Y1041982D01*
X597482Y1044084D01*
X594908Y1045571D01*
X592036Y1046340D01*
D02*
G37*
G36*
X642836Y1020940D02*
X642620D01*
Y1010920D01*
X652640D01*
Y1011136D01*
X651871Y1014008D01*
X650384Y1016582D01*
X648282Y1018684D01*
X645708Y1020171D01*
X642836Y1020940D01*
D02*
G37*
G36*
X640080D02*
X639864D01*
X636992Y1020171D01*
X634418Y1018684D01*
X632316Y1016582D01*
X630829Y1014008D01*
X630060Y1011136D01*
Y1010920D01*
X640080D01*
Y1020940D01*
D02*
G37*
G36*
X652640Y1008380D02*
X642620D01*
Y998360D01*
X642836D01*
X645708Y999129D01*
X648282Y1000616D01*
X650384Y1002718D01*
X651871Y1005292D01*
X652640Y1008164D01*
Y1008380D01*
D02*
G37*
G36*
X640080D02*
X630060D01*
Y1008164D01*
X630829Y1005292D01*
X632316Y1002718D01*
X634418Y1000616D01*
X636992Y999129D01*
X639864Y998360D01*
X640080D01*
Y1008380D01*
D02*
G37*
G36*
X617436Y1020940D02*
X614464D01*
X611592Y1020171D01*
X609018Y1018684D01*
X606916Y1016582D01*
X605429Y1014008D01*
X604660Y1011136D01*
Y1008164D01*
X605429Y1005292D01*
X606916Y1002718D01*
X609018Y1000616D01*
X611592Y999129D01*
X614464Y998360D01*
X617436D01*
X620308Y999129D01*
X622882Y1000616D01*
X624984Y1002718D01*
X626471Y1005292D01*
X627240Y1008164D01*
Y1011136D01*
X626471Y1014008D01*
X624984Y1016582D01*
X622882Y1018684D01*
X620308Y1020171D01*
X617436Y1020940D01*
D02*
G37*
G36*
X592036D02*
X589064D01*
X586192Y1020171D01*
X583618Y1018684D01*
X581516Y1016582D01*
X580029Y1014008D01*
X579260Y1011136D01*
Y1008164D01*
X580029Y1005292D01*
X581516Y1002718D01*
X583618Y1000616D01*
X586192Y999129D01*
X589064Y998360D01*
X592036D01*
X594908Y999129D01*
X597482Y1000616D01*
X599584Y1002718D01*
X601071Y1005292D01*
X601840Y1008164D01*
Y1011136D01*
X601071Y1014008D01*
X599584Y1016582D01*
X597482Y1018684D01*
X594908Y1020171D01*
X592036Y1020940D01*
D02*
G37*
G36*
X642836Y995540D02*
X642620D01*
Y985520D01*
X652640D01*
Y985736D01*
X651871Y988608D01*
X650384Y991182D01*
X648282Y993284D01*
X645708Y994771D01*
X642836Y995540D01*
D02*
G37*
G36*
X640080D02*
X639864D01*
X636992Y994771D01*
X634418Y993284D01*
X632316Y991182D01*
X630829Y988608D01*
X630060Y985736D01*
Y985520D01*
X640080D01*
Y995540D01*
D02*
G37*
G36*
X652640Y982980D02*
X642620D01*
Y972960D01*
X642836D01*
X645708Y973729D01*
X648282Y975216D01*
X650384Y977318D01*
X651871Y979892D01*
X652640Y982764D01*
Y982980D01*
D02*
G37*
G36*
X640080D02*
X630060D01*
Y982764D01*
X630829Y979892D01*
X632316Y977318D01*
X634418Y975216D01*
X636992Y973729D01*
X639864Y972960D01*
X640080D01*
Y982980D01*
D02*
G37*
G36*
X617436Y995540D02*
X614464D01*
X611592Y994771D01*
X609018Y993284D01*
X606916Y991182D01*
X605429Y988608D01*
X604660Y985736D01*
Y982764D01*
X605429Y979892D01*
X606916Y977318D01*
X609018Y975216D01*
X611592Y973729D01*
X614464Y972960D01*
X617436D01*
X620308Y973729D01*
X622882Y975216D01*
X624984Y977318D01*
X626471Y979892D01*
X627240Y982764D01*
Y985736D01*
X626471Y988608D01*
X624984Y991182D01*
X622882Y993284D01*
X620308Y994771D01*
X617436Y995540D01*
D02*
G37*
G36*
X592036D02*
X589064D01*
X586192Y994771D01*
X583618Y993284D01*
X581516Y991182D01*
X580029Y988608D01*
X579260Y985736D01*
Y982764D01*
X580029Y979892D01*
X581516Y977318D01*
X583618Y975216D01*
X586192Y973729D01*
X589064Y972960D01*
X592036D01*
X594908Y973729D01*
X597482Y975216D01*
X599584Y977318D01*
X601071Y979892D01*
X601840Y982764D01*
Y985736D01*
X601071Y988608D01*
X599584Y991182D01*
X597482Y993284D01*
X594908Y994771D01*
X592036Y995540D01*
D02*
G37*
G36*
X642836Y944740D02*
X642620D01*
Y934720D01*
X652640D01*
Y934936D01*
X651871Y937808D01*
X650384Y940382D01*
X648282Y942484D01*
X645708Y943971D01*
X642836Y944740D01*
D02*
G37*
G36*
X640080D02*
X639864D01*
X636992Y943971D01*
X634418Y942484D01*
X632316Y940382D01*
X630829Y937808D01*
X630060Y934936D01*
Y934720D01*
X640080D01*
Y944740D01*
D02*
G37*
G36*
X652640Y932180D02*
X642620D01*
Y922160D01*
X642836D01*
X645708Y922929D01*
X648282Y924416D01*
X650384Y926518D01*
X651871Y929092D01*
X652640Y931964D01*
Y932180D01*
D02*
G37*
G36*
X640080D02*
X630060D01*
Y931964D01*
X630829Y929092D01*
X632316Y926518D01*
X634418Y924416D01*
X636992Y922929D01*
X639864Y922160D01*
X640080D01*
Y932180D01*
D02*
G37*
G36*
X617436Y944740D02*
X614464D01*
X611592Y943971D01*
X609018Y942484D01*
X606916Y940382D01*
X605429Y937808D01*
X604660Y934936D01*
Y931964D01*
X605429Y929092D01*
X606916Y926518D01*
X609018Y924416D01*
X611592Y922929D01*
X614464Y922160D01*
X617436D01*
X620308Y922929D01*
X622882Y924416D01*
X624984Y926518D01*
X626471Y929092D01*
X627240Y931964D01*
Y934936D01*
X626471Y937808D01*
X624984Y940382D01*
X622882Y942484D01*
X620308Y943971D01*
X617436Y944740D01*
D02*
G37*
G36*
X592036D02*
X589064D01*
X586192Y943971D01*
X583618Y942484D01*
X581516Y940382D01*
X580029Y937808D01*
X579260Y934936D01*
Y931964D01*
X580029Y929092D01*
X581516Y926518D01*
X583618Y924416D01*
X586192Y922929D01*
X589064Y922160D01*
X592036D01*
X594908Y922929D01*
X597482Y924416D01*
X599584Y926518D01*
X601071Y929092D01*
X601840Y931964D01*
Y934936D01*
X601071Y937808D01*
X599584Y940382D01*
X597482Y942484D01*
X594908Y943971D01*
X592036Y944740D01*
D02*
G37*
G36*
X642836Y919340D02*
X642620D01*
Y909320D01*
X652640D01*
Y909536D01*
X651871Y912408D01*
X650384Y914982D01*
X648282Y917084D01*
X645708Y918571D01*
X642836Y919340D01*
D02*
G37*
G36*
X640080D02*
X639864D01*
X636992Y918571D01*
X634418Y917084D01*
X632316Y914982D01*
X630829Y912408D01*
X630060Y909536D01*
Y909320D01*
X640080D01*
Y919340D01*
D02*
G37*
G36*
X652640Y906780D02*
X642620D01*
Y896760D01*
X642836D01*
X645708Y897529D01*
X648282Y899016D01*
X650384Y901118D01*
X651871Y903692D01*
X652640Y906564D01*
Y906780D01*
D02*
G37*
G36*
X640080D02*
X630060D01*
Y906564D01*
X630829Y903692D01*
X632316Y901118D01*
X634418Y899016D01*
X636992Y897529D01*
X639864Y896760D01*
X640080D01*
Y906780D01*
D02*
G37*
G36*
X617436Y919340D02*
X614464D01*
X611592Y918571D01*
X609018Y917084D01*
X606916Y914982D01*
X605429Y912408D01*
X604660Y909536D01*
Y906564D01*
X605429Y903692D01*
X606916Y901118D01*
X609018Y899016D01*
X611592Y897529D01*
X614464Y896760D01*
X617436D01*
X620308Y897529D01*
X622882Y899016D01*
X624984Y901118D01*
X626471Y903692D01*
X627240Y906564D01*
Y909536D01*
X626471Y912408D01*
X624984Y914982D01*
X622882Y917084D01*
X620308Y918571D01*
X617436Y919340D01*
D02*
G37*
G36*
X592036D02*
X589064D01*
X586192Y918571D01*
X583618Y917084D01*
X581516Y914982D01*
X580029Y912408D01*
X579260Y909536D01*
Y906564D01*
X580029Y903692D01*
X581516Y901118D01*
X583618Y899016D01*
X586192Y897529D01*
X589064Y896760D01*
X592036D01*
X594908Y897529D01*
X597482Y899016D01*
X599584Y901118D01*
X601071Y903692D01*
X601840Y906564D01*
Y909536D01*
X601071Y912408D01*
X599584Y914982D01*
X597482Y917084D01*
X594908Y918571D01*
X592036Y919340D01*
D02*
G37*
G36*
X642836Y893940D02*
X642620D01*
Y883920D01*
X652640D01*
Y884136D01*
X651871Y887008D01*
X650384Y889582D01*
X648282Y891684D01*
X645708Y893171D01*
X642836Y893940D01*
D02*
G37*
G36*
X640080D02*
X639864D01*
X636992Y893171D01*
X634418Y891684D01*
X632316Y889582D01*
X630829Y887008D01*
X630060Y884136D01*
Y883920D01*
X640080D01*
Y893940D01*
D02*
G37*
G36*
X652640Y881380D02*
X642620D01*
Y871360D01*
X642836D01*
X645708Y872129D01*
X648282Y873616D01*
X650384Y875718D01*
X651871Y878292D01*
X652640Y881164D01*
Y881380D01*
D02*
G37*
G36*
X640080D02*
X630060D01*
Y881164D01*
X630829Y878292D01*
X632316Y875718D01*
X634418Y873616D01*
X636992Y872129D01*
X639864Y871360D01*
X640080D01*
Y881380D01*
D02*
G37*
G36*
X617436Y893940D02*
X614464D01*
X611592Y893171D01*
X609018Y891684D01*
X606916Y889582D01*
X605429Y887008D01*
X604660Y884136D01*
Y881164D01*
X605429Y878292D01*
X606916Y875718D01*
X609018Y873616D01*
X611592Y872129D01*
X614464Y871360D01*
X617436D01*
X620308Y872129D01*
X622882Y873616D01*
X624984Y875718D01*
X626471Y878292D01*
X627240Y881164D01*
Y884136D01*
X626471Y887008D01*
X624984Y889582D01*
X622882Y891684D01*
X620308Y893171D01*
X617436Y893940D01*
D02*
G37*
G36*
X592036D02*
X589064D01*
X586192Y893171D01*
X583618Y891684D01*
X581516Y889582D01*
X580029Y887008D01*
X579260Y884136D01*
Y881164D01*
X580029Y878292D01*
X581516Y875718D01*
X583618Y873616D01*
X586192Y872129D01*
X589064Y871360D01*
X592036D01*
X594908Y872129D01*
X597482Y873616D01*
X599584Y875718D01*
X601071Y878292D01*
X601840Y881164D01*
Y884136D01*
X601071Y887008D01*
X599584Y889582D01*
X597482Y891684D01*
X594908Y893171D01*
X592036Y893940D01*
D02*
G37*
G36*
X642836Y868540D02*
X642620D01*
Y858520D01*
X652640D01*
Y858736D01*
X651871Y861608D01*
X650384Y864182D01*
X648282Y866284D01*
X645708Y867771D01*
X642836Y868540D01*
D02*
G37*
G36*
X640080D02*
X639864D01*
X636992Y867771D01*
X634418Y866284D01*
X632316Y864182D01*
X630829Y861608D01*
X630060Y858736D01*
Y858520D01*
X640080D01*
Y868540D01*
D02*
G37*
G36*
X652640Y855980D02*
X642620D01*
Y845960D01*
X642836D01*
X645708Y846729D01*
X648282Y848216D01*
X650384Y850318D01*
X651871Y852892D01*
X652640Y855764D01*
Y855980D01*
D02*
G37*
G36*
X640080D02*
X630060D01*
Y855764D01*
X630829Y852892D01*
X632316Y850318D01*
X634418Y848216D01*
X636992Y846729D01*
X639864Y845960D01*
X640080D01*
Y855980D01*
D02*
G37*
G36*
X617436Y868540D02*
X614464D01*
X611592Y867771D01*
X609018Y866284D01*
X606916Y864182D01*
X605429Y861608D01*
X604660Y858736D01*
Y855764D01*
X605429Y852892D01*
X606916Y850318D01*
X609018Y848216D01*
X611592Y846729D01*
X614464Y845960D01*
X617436D01*
X620308Y846729D01*
X622882Y848216D01*
X624984Y850318D01*
X626471Y852892D01*
X627240Y855764D01*
Y858736D01*
X626471Y861608D01*
X624984Y864182D01*
X622882Y866284D01*
X620308Y867771D01*
X617436Y868540D01*
D02*
G37*
G36*
X592036D02*
X589064D01*
X586192Y867771D01*
X583618Y866284D01*
X581516Y864182D01*
X580029Y861608D01*
X579260Y858736D01*
Y855764D01*
X580029Y852892D01*
X581516Y850318D01*
X583618Y848216D01*
X586192Y846729D01*
X589064Y845960D01*
X592036D01*
X594908Y846729D01*
X597482Y848216D01*
X599584Y850318D01*
X601071Y852892D01*
X601840Y855764D01*
Y858736D01*
X601071Y861608D01*
X599584Y864182D01*
X597482Y866284D01*
X594908Y867771D01*
X592036Y868540D01*
D02*
G37*
G36*
X642836Y815200D02*
X642620D01*
Y805180D01*
X652640D01*
Y805396D01*
X651871Y808268D01*
X650384Y810842D01*
X648282Y812944D01*
X645708Y814431D01*
X642836Y815200D01*
D02*
G37*
G36*
X640080D02*
X639864D01*
X636992Y814431D01*
X634418Y812944D01*
X632316Y810842D01*
X630829Y808268D01*
X630060Y805396D01*
Y805180D01*
X640080D01*
Y815200D01*
D02*
G37*
G36*
X592036Y815200D02*
X589064D01*
X586192Y814431D01*
X583618Y812944D01*
X581516Y810842D01*
X580029Y808268D01*
X579260Y805396D01*
Y802424D01*
X580029Y799552D01*
X581516Y796978D01*
X583618Y794876D01*
X586192Y793389D01*
X589064Y792620D01*
X592036D01*
X594908Y793389D01*
X597482Y794876D01*
X599584Y796978D01*
X601071Y799552D01*
X601840Y802424D01*
Y805396D01*
X601071Y808268D01*
X599584Y810842D01*
X597482Y812944D01*
X594908Y814431D01*
X592036Y815200D01*
D02*
G37*
G36*
X652640Y802640D02*
X642620D01*
Y792620D01*
X642836D01*
X645708Y793389D01*
X648282Y794876D01*
X650384Y796978D01*
X651871Y799552D01*
X652640Y802424D01*
Y802640D01*
D02*
G37*
G36*
X640080D02*
X630060D01*
Y802424D01*
X630829Y799552D01*
X632316Y796978D01*
X634418Y794876D01*
X636992Y793389D01*
X639864Y792620D01*
X640080D01*
Y802640D01*
D02*
G37*
G36*
X617436Y815200D02*
X614464D01*
X611592Y814431D01*
X609018Y812944D01*
X606916Y810842D01*
X605429Y808268D01*
X604660Y805396D01*
Y802424D01*
X605429Y799552D01*
X606916Y796978D01*
X609018Y794876D01*
X611592Y793389D01*
X614464Y792620D01*
X617436D01*
X620308Y793389D01*
X622882Y794876D01*
X624984Y796978D01*
X626471Y799552D01*
X627240Y802424D01*
Y805396D01*
X626471Y808268D01*
X624984Y810842D01*
X622882Y812944D01*
X620308Y814431D01*
X617436Y815200D01*
D02*
G37*
G36*
X642836Y789800D02*
X642620D01*
Y779780D01*
X652640D01*
Y779996D01*
X651871Y782868D01*
X650384Y785442D01*
X648282Y787544D01*
X645708Y789031D01*
X642836Y789800D01*
D02*
G37*
G36*
X640080D02*
X639864D01*
X636992Y789031D01*
X634418Y787544D01*
X632316Y785442D01*
X630829Y782868D01*
X630060Y779996D01*
Y779780D01*
X640080D01*
Y789800D01*
D02*
G37*
G36*
X652640Y777240D02*
X642620D01*
Y767220D01*
X642836D01*
X645708Y767989D01*
X648282Y769476D01*
X650384Y771578D01*
X651871Y774152D01*
X652640Y777024D01*
Y777240D01*
D02*
G37*
G36*
X640080D02*
X630060D01*
Y777024D01*
X630829Y774152D01*
X632316Y771578D01*
X634418Y769476D01*
X636992Y767989D01*
X639864Y767220D01*
X640080D01*
Y777240D01*
D02*
G37*
G36*
X617436Y789800D02*
X614464D01*
X611592Y789031D01*
X609018Y787544D01*
X606916Y785442D01*
X605429Y782868D01*
X604660Y779996D01*
Y777024D01*
X605429Y774152D01*
X606916Y771578D01*
X609018Y769476D01*
X611592Y767989D01*
X614464Y767220D01*
X617436D01*
X620308Y767989D01*
X622882Y769476D01*
X624984Y771578D01*
X626471Y774152D01*
X627240Y777024D01*
Y779996D01*
X626471Y782868D01*
X624984Y785442D01*
X622882Y787544D01*
X620308Y789031D01*
X617436Y789800D01*
D02*
G37*
G36*
X592036D02*
X589064D01*
X586192Y789031D01*
X583618Y787544D01*
X581516Y785442D01*
X580029Y782868D01*
X579260Y779996D01*
Y777024D01*
X580029Y774152D01*
X581516Y771578D01*
X583618Y769476D01*
X586192Y767989D01*
X589064Y767220D01*
X592036D01*
X594908Y767989D01*
X597482Y769476D01*
X599584Y771578D01*
X601071Y774152D01*
X601840Y777024D01*
Y779996D01*
X601071Y782868D01*
X599584Y785442D01*
X597482Y787544D01*
X594908Y789031D01*
X592036Y789800D01*
D02*
G37*
G36*
X642836Y764400D02*
X642620D01*
Y754380D01*
X652640D01*
Y754596D01*
X651871Y757468D01*
X650384Y760042D01*
X648282Y762144D01*
X645708Y763631D01*
X642836Y764400D01*
D02*
G37*
G36*
X640080D02*
X639864D01*
X636992Y763631D01*
X634418Y762144D01*
X632316Y760042D01*
X630829Y757468D01*
X630060Y754596D01*
Y754380D01*
X640080D01*
Y764400D01*
D02*
G37*
G36*
X592036Y764400D02*
X589064D01*
X586192Y763631D01*
X583618Y762144D01*
X581516Y760042D01*
X580029Y757468D01*
X579260Y754596D01*
Y751624D01*
X580029Y748752D01*
X581516Y746178D01*
X583618Y744076D01*
X586192Y742589D01*
X589064Y741820D01*
X592036D01*
X594908Y742589D01*
X597482Y744076D01*
X599584Y746178D01*
X601071Y748752D01*
X601840Y751624D01*
Y754596D01*
X601071Y757468D01*
X599584Y760042D01*
X597482Y762144D01*
X594908Y763631D01*
X592036Y764400D01*
D02*
G37*
G36*
X652640Y751840D02*
X642620D01*
Y741820D01*
X642836D01*
X645708Y742589D01*
X648282Y744076D01*
X650384Y746178D01*
X651871Y748752D01*
X652640Y751624D01*
Y751840D01*
D02*
G37*
G36*
X640080D02*
X630060D01*
Y751624D01*
X630829Y748752D01*
X632316Y746178D01*
X634418Y744076D01*
X636992Y742589D01*
X639864Y741820D01*
X640080D01*
Y751840D01*
D02*
G37*
G36*
X617436Y764400D02*
X614464D01*
X611592Y763631D01*
X609018Y762144D01*
X606916Y760042D01*
X605429Y757468D01*
X604660Y754596D01*
Y751624D01*
X605429Y748752D01*
X606916Y746178D01*
X609018Y744076D01*
X611592Y742589D01*
X614464Y741820D01*
X617436D01*
X620308Y742589D01*
X622882Y744076D01*
X624984Y746178D01*
X626471Y748752D01*
X627240Y751624D01*
Y754596D01*
X626471Y757468D01*
X624984Y760042D01*
X622882Y762144D01*
X620308Y763631D01*
X617436Y764400D01*
D02*
G37*
G36*
X642836Y739000D02*
X642620D01*
Y728980D01*
X652640D01*
Y729196D01*
X651871Y732068D01*
X650384Y734642D01*
X648282Y736744D01*
X645708Y738231D01*
X642836Y739000D01*
D02*
G37*
G36*
X640080D02*
X639864D01*
X636992Y738231D01*
X634418Y736744D01*
X632316Y734642D01*
X630829Y732068D01*
X630060Y729196D01*
Y728980D01*
X640080D01*
Y739000D01*
D02*
G37*
G36*
X617436Y739000D02*
X614464D01*
X611592Y738231D01*
X609018Y736744D01*
X606916Y734642D01*
X605429Y732068D01*
X604660Y729196D01*
Y726224D01*
X605429Y723352D01*
X606916Y720778D01*
X609018Y718676D01*
X611592Y717189D01*
X614464Y716420D01*
X617436D01*
X620308Y717189D01*
X622882Y718676D01*
X624984Y720778D01*
X626471Y723352D01*
X627240Y726224D01*
Y729196D01*
X626471Y732068D01*
X624984Y734642D01*
X622882Y736744D01*
X620308Y738231D01*
X617436Y739000D01*
D02*
G37*
G36*
X592036D02*
X589064D01*
X586192Y738231D01*
X583618Y736744D01*
X581516Y734642D01*
X580029Y732068D01*
X579260Y729196D01*
Y726224D01*
X580029Y723352D01*
X581516Y720778D01*
X583618Y718676D01*
X586192Y717189D01*
X589064Y716420D01*
X592036D01*
X594908Y717189D01*
X597482Y718676D01*
X599584Y720778D01*
X601071Y723352D01*
X601840Y726224D01*
Y729196D01*
X601071Y732068D01*
X599584Y734642D01*
X597482Y736744D01*
X594908Y738231D01*
X592036Y739000D01*
D02*
G37*
G36*
X652640Y726440D02*
X642620D01*
Y716420D01*
X642836D01*
X645708Y717189D01*
X648282Y718676D01*
X650384Y720778D01*
X651871Y723352D01*
X652640Y726224D01*
Y726440D01*
D02*
G37*
G36*
X640080D02*
X630060D01*
Y726224D01*
X630829Y723352D01*
X632316Y720778D01*
X634418Y718676D01*
X636992Y717189D01*
X639864Y716420D01*
X640080D01*
Y726440D01*
D02*
G37*
G36*
X642836Y685660D02*
X642620D01*
Y675640D01*
X652640D01*
Y675856D01*
X651871Y678728D01*
X650384Y681302D01*
X648282Y683404D01*
X645708Y684891D01*
X642836Y685660D01*
D02*
G37*
G36*
X640080D02*
X639864D01*
X636992Y684891D01*
X634418Y683404D01*
X632316Y681302D01*
X630829Y678728D01*
X630060Y675856D01*
Y675640D01*
X640080D01*
Y685660D01*
D02*
G37*
G36*
X652640Y673100D02*
X642620D01*
Y663080D01*
X642836D01*
X645708Y663849D01*
X648282Y665336D01*
X650384Y667438D01*
X651871Y670012D01*
X652640Y672884D01*
Y673100D01*
D02*
G37*
G36*
X640080D02*
X630060D01*
Y672884D01*
X630829Y670012D01*
X632316Y667438D01*
X634418Y665336D01*
X636992Y663849D01*
X639864Y663080D01*
X640080D01*
Y673100D01*
D02*
G37*
G36*
X617436Y685660D02*
X614464D01*
X611592Y684891D01*
X609018Y683404D01*
X606916Y681302D01*
X605429Y678728D01*
X604660Y675856D01*
Y672884D01*
X605429Y670012D01*
X606916Y667438D01*
X609018Y665336D01*
X611592Y663849D01*
X614464Y663080D01*
X617436D01*
X620308Y663849D01*
X622882Y665336D01*
X624984Y667438D01*
X626471Y670012D01*
X627240Y672884D01*
Y675856D01*
X626471Y678728D01*
X624984Y681302D01*
X622882Y683404D01*
X620308Y684891D01*
X617436Y685660D01*
D02*
G37*
G36*
X592036D02*
X589064D01*
X586192Y684891D01*
X583618Y683404D01*
X581516Y681302D01*
X580029Y678728D01*
X579260Y675856D01*
Y672884D01*
X580029Y670012D01*
X581516Y667438D01*
X583618Y665336D01*
X586192Y663849D01*
X589064Y663080D01*
X592036D01*
X594908Y663849D01*
X597482Y665336D01*
X599584Y667438D01*
X601071Y670012D01*
X601840Y672884D01*
Y675856D01*
X601071Y678728D01*
X599584Y681302D01*
X597482Y683404D01*
X594908Y684891D01*
X592036Y685660D01*
D02*
G37*
G36*
X642836Y660260D02*
X642620D01*
Y650240D01*
X652640D01*
Y650456D01*
X651871Y653328D01*
X650384Y655902D01*
X648282Y658004D01*
X645708Y659491D01*
X642836Y660260D01*
D02*
G37*
G36*
X640080D02*
X639864D01*
X636992Y659491D01*
X634418Y658004D01*
X632316Y655902D01*
X630829Y653328D01*
X630060Y650456D01*
Y650240D01*
X640080D01*
Y660260D01*
D02*
G37*
G36*
X652640Y647700D02*
X642620D01*
Y637680D01*
X642836D01*
X645708Y638449D01*
X648282Y639936D01*
X650384Y642038D01*
X651871Y644612D01*
X652640Y647484D01*
Y647700D01*
D02*
G37*
G36*
X640080D02*
X630060D01*
Y647484D01*
X630829Y644612D01*
X632316Y642038D01*
X634418Y639936D01*
X636992Y638449D01*
X639864Y637680D01*
X640080D01*
Y647700D01*
D02*
G37*
G36*
X617436Y660260D02*
X614464D01*
X611592Y659491D01*
X609018Y658004D01*
X606916Y655902D01*
X605429Y653328D01*
X604660Y650456D01*
Y647484D01*
X605429Y644612D01*
X606916Y642038D01*
X609018Y639936D01*
X611592Y638449D01*
X614464Y637680D01*
X617436D01*
X620308Y638449D01*
X622882Y639936D01*
X624984Y642038D01*
X626471Y644612D01*
X627240Y647484D01*
Y650456D01*
X626471Y653328D01*
X624984Y655902D01*
X622882Y658004D01*
X620308Y659491D01*
X617436Y660260D01*
D02*
G37*
G36*
X592036D02*
X589064D01*
X586192Y659491D01*
X583618Y658004D01*
X581516Y655902D01*
X580029Y653328D01*
X579260Y650456D01*
Y647484D01*
X580029Y644612D01*
X581516Y642038D01*
X583618Y639936D01*
X586192Y638449D01*
X589064Y637680D01*
X592036D01*
X594908Y638449D01*
X597482Y639936D01*
X599584Y642038D01*
X601071Y644612D01*
X601840Y647484D01*
Y650456D01*
X601071Y653328D01*
X599584Y655902D01*
X597482Y658004D01*
X594908Y659491D01*
X592036Y660260D01*
D02*
G37*
G36*
X642836Y634860D02*
X642620D01*
Y624840D01*
X652640D01*
Y625056D01*
X651871Y627928D01*
X650384Y630502D01*
X648282Y632604D01*
X645708Y634091D01*
X642836Y634860D01*
D02*
G37*
G36*
X640080D02*
X639864D01*
X636992Y634091D01*
X634418Y632604D01*
X632316Y630502D01*
X630829Y627928D01*
X630060Y625056D01*
Y624840D01*
X640080D01*
Y634860D01*
D02*
G37*
G36*
X652640Y622300D02*
X642620D01*
Y612280D01*
X642836D01*
X645708Y613049D01*
X648282Y614536D01*
X650384Y616638D01*
X651871Y619212D01*
X652640Y622084D01*
Y622300D01*
D02*
G37*
G36*
X640080D02*
X630060D01*
Y622084D01*
X630829Y619212D01*
X632316Y616638D01*
X634418Y614536D01*
X636992Y613049D01*
X639864Y612280D01*
X640080D01*
Y622300D01*
D02*
G37*
G36*
X617436Y634860D02*
X614464D01*
X611592Y634091D01*
X609018Y632604D01*
X606916Y630502D01*
X605429Y627928D01*
X604660Y625056D01*
Y622084D01*
X605429Y619212D01*
X606916Y616638D01*
X609018Y614536D01*
X611592Y613049D01*
X614464Y612280D01*
X617436D01*
X620308Y613049D01*
X622882Y614536D01*
X624984Y616638D01*
X626471Y619212D01*
X627240Y622084D01*
Y625056D01*
X626471Y627928D01*
X624984Y630502D01*
X622882Y632604D01*
X620308Y634091D01*
X617436Y634860D01*
D02*
G37*
G36*
X592036D02*
X589064D01*
X586192Y634091D01*
X583618Y632604D01*
X581516Y630502D01*
X580029Y627928D01*
X579260Y625056D01*
Y622084D01*
X580029Y619212D01*
X581516Y616638D01*
X583618Y614536D01*
X586192Y613049D01*
X589064Y612280D01*
X592036D01*
X594908Y613049D01*
X597482Y614536D01*
X599584Y616638D01*
X601071Y619212D01*
X601840Y622084D01*
Y625056D01*
X601071Y627928D01*
X599584Y630502D01*
X597482Y632604D01*
X594908Y634091D01*
X592036Y634860D01*
D02*
G37*
G36*
X642836Y609460D02*
X642620D01*
Y599440D01*
X652640D01*
Y599656D01*
X651871Y602528D01*
X650384Y605102D01*
X648282Y607204D01*
X645708Y608691D01*
X642836Y609460D01*
D02*
G37*
G36*
X640080D02*
X639864D01*
X636992Y608691D01*
X634418Y607204D01*
X632316Y605102D01*
X630829Y602528D01*
X630060Y599656D01*
Y599440D01*
X640080D01*
Y609460D01*
D02*
G37*
G36*
X652640Y596900D02*
X642620D01*
Y586880D01*
X642836D01*
X645708Y587649D01*
X648282Y589136D01*
X650384Y591238D01*
X651871Y593812D01*
X652640Y596684D01*
Y596900D01*
D02*
G37*
G36*
X640080D02*
X630060D01*
Y596684D01*
X630829Y593812D01*
X632316Y591238D01*
X634418Y589136D01*
X636992Y587649D01*
X639864Y586880D01*
X640080D01*
Y596900D01*
D02*
G37*
G36*
X617436Y609460D02*
X614464D01*
X611592Y608691D01*
X609018Y607204D01*
X606916Y605102D01*
X605429Y602528D01*
X604660Y599656D01*
Y596684D01*
X605429Y593812D01*
X606916Y591238D01*
X609018Y589136D01*
X611592Y587649D01*
X614464Y586880D01*
X617436D01*
X620308Y587649D01*
X622882Y589136D01*
X624984Y591238D01*
X626471Y593812D01*
X627240Y596684D01*
Y599656D01*
X626471Y602528D01*
X624984Y605102D01*
X622882Y607204D01*
X620308Y608691D01*
X617436Y609460D01*
D02*
G37*
G36*
X592036D02*
X589064D01*
X586192Y608691D01*
X583618Y607204D01*
X581516Y605102D01*
X580029Y602528D01*
X579260Y599656D01*
Y596684D01*
X580029Y593812D01*
X581516Y591238D01*
X583618Y589136D01*
X586192Y587649D01*
X589064Y586880D01*
X592036D01*
X594908Y587649D01*
X597482Y589136D01*
X599584Y591238D01*
X601071Y593812D01*
X601840Y596684D01*
Y599656D01*
X601071Y602528D01*
X599584Y605102D01*
X597482Y607204D01*
X594908Y608691D01*
X592036Y609460D01*
D02*
G37*
%LPD*%
D36*
X748600Y635000D02*
X776835D01*
X805235Y606600D01*
X832534D01*
X835994Y610060D01*
X911339Y712268D02*
X915289D01*
X894820Y695749D02*
X911339Y712268D01*
X915289D02*
X915951Y712930D01*
X835994Y610060D02*
X836930D01*
X979170Y610870D02*
X980106D01*
X983325Y607651D02*
X1010329D01*
X980106Y610870D02*
X983325Y607651D01*
X914411Y913337D02*
X949880D01*
X952000Y911217D02*
X952936D01*
X949880Y913337D02*
X952000Y911217D01*
X1002030Y633730D02*
X1027430D01*
X914158Y887512D02*
X945923D01*
X946141Y887293D01*
X913940Y887730D02*
X914158Y887512D01*
X946092Y896051D02*
X946311Y895832D01*
X914159Y896051D02*
X946092D01*
X913940Y896270D02*
X914159Y896051D01*
X913940Y904810D02*
X914142Y904608D01*
X946002D01*
X946203Y904407D01*
X1008705Y720415D02*
X1012190Y723900D01*
X1008705Y698704D02*
X1012455Y694955D01*
X1008705Y698704D02*
Y720415D01*
X880920Y760730D02*
Y796112D01*
X867726Y809306D02*
X880920Y796112D01*
Y760730D02*
X911050D01*
X874410Y641350D02*
X901700D01*
X909838Y649488D01*
X912468D02*
X913130Y650150D01*
X909838Y649488D02*
X912468D01*
X867726Y809306D02*
X880216Y821796D01*
Y838306D01*
D38*
X953770Y760730D02*
D03*
X979170Y760730D02*
D03*
Y709930D02*
D03*
X953770Y709930D02*
D03*
Y633730D02*
D03*
X979170D02*
D03*
X953770Y684530D02*
D03*
X979170D02*
D03*
Y659130D02*
D03*
X953770Y659130D02*
D03*
X979170Y735330D02*
D03*
X953770D02*
D03*
X641350Y598170D02*
D03*
X615950D02*
D03*
X590550D02*
D03*
X641350Y623570D02*
D03*
X615950D02*
D03*
X590550D02*
D03*
X641350Y648970D02*
D03*
X615950D02*
D03*
X590550D02*
D03*
X641350Y674370D02*
D03*
X615950D02*
D03*
X590550D02*
D03*
X641350Y727710D02*
D03*
X615950Y727710D02*
D03*
X590550D02*
D03*
X641350Y753110D02*
D03*
X615950D02*
D03*
X590550Y753110D02*
D03*
X641350Y778510D02*
D03*
X615950D02*
D03*
X590550D02*
D03*
X641350Y803910D02*
D03*
X615950D02*
D03*
X590550Y803910D02*
D03*
X641350Y857250D02*
D03*
X615950D02*
D03*
X590550D02*
D03*
X641350Y882650D02*
D03*
X615950D02*
D03*
X590550D02*
D03*
X641350Y908050D02*
D03*
X615950D02*
D03*
X590550D02*
D03*
X641350Y933450D02*
D03*
X615950D02*
D03*
X590550D02*
D03*
X641350Y984250D02*
D03*
X615950D02*
D03*
X590550D02*
D03*
X641350Y1009650D02*
D03*
X615950Y1009650D02*
D03*
X590550D02*
D03*
X641350Y1035050D02*
D03*
X615950D02*
D03*
X590550D02*
D03*
X641350Y1060450D02*
D03*
X615950D02*
D03*
X590550Y1060450D02*
D03*
D39*
X715010Y834390D02*
D03*
X745490D02*
D03*
X824230Y631190D02*
D03*
X748600Y635000D02*
D03*
X836930Y610060D02*
D03*
X894820Y695749D02*
D03*
X915951Y712930D02*
D03*
X779780Y750570D02*
D03*
X828040Y613410D02*
D03*
X787290Y696070D02*
D03*
Y660290D02*
D03*
X833120Y685800D02*
D03*
X811530Y685800D02*
D03*
X833120Y671830D02*
D03*
X811530D02*
D03*
X801370Y1073150D02*
D03*
X883920D02*
D03*
X951230Y1023620D02*
D03*
X1014730D02*
D03*
X1016000Y953770D02*
D03*
X759460Y590550D02*
D03*
X1024890Y596900D02*
D03*
X1022350Y749300D02*
D03*
X1021080Y788670D02*
D03*
Y830580D02*
D03*
X800100Y790400D02*
D03*
X720090Y857250D02*
D03*
X979170Y610870D02*
D03*
X1010329Y607651D02*
D03*
X952936Y911217D02*
D03*
X914411Y913337D02*
D03*
X1002030Y633730D02*
D03*
X1027430D02*
D03*
X946141Y887293D02*
D03*
X946311Y895832D02*
D03*
X946203Y904407D02*
D03*
X913940Y904810D02*
D03*
X1012190Y723900D02*
D03*
X1012455Y694955D02*
D03*
X913940Y896270D02*
D03*
Y887730D02*
D03*
X957580Y824230D02*
D03*
X911050Y760730D02*
D03*
X967740Y993140D02*
D03*
X957580Y854710D02*
D03*
X874410Y641350D02*
D03*
X880920Y760730D02*
D03*
X901700Y641350D02*
D03*
X913130Y650150D02*
D03*
X880216Y838306D02*
D03*
X867726Y809306D02*
D03*
X842010Y795020D02*
D03*
X913130Y693420D02*
D03*
X954390Y783590D02*
D03*
X996950Y923290D02*
D03*
X826150Y1048400D02*
D03*
X847090Y858520D02*
D03*
X885190Y922020D02*
D03*
Y938530D02*
D03*
X825500Y1005840D02*
D03*
X869950Y995680D02*
D03*
X848360D02*
D03*
X825390Y970170D02*
D03*
X848360Y981710D02*
D03*
X869950D02*
D03*
X721360Y598170D02*
D03*
Y623570D02*
D03*
Y647700D02*
D03*
Y674370D02*
D03*
Y727710D02*
D03*
Y753110D02*
D03*
Y778510D02*
D03*
Y803910D02*
D03*
Y882650D02*
D03*
Y908050D02*
D03*
Y933450D02*
D03*
Y984250D02*
D03*
Y1010920D02*
D03*
Y1035050D02*
D03*
Y1060450D02*
D03*
X772160Y852170D02*
D03*
X797560Y850900D02*
D03*
X871220Y828040D02*
D03*
X838840Y830120D02*
D03*
M02*
